<svg xmlns="http://www.w3.org/2000/svg" xmlns:xlink="http://www.w3.org/1999/xlink" width="50" zoomAndPan="magnify" viewBox="0 0 37.5 37.499999" height="50" preserveAspectRatio="xMidYMid meet" version="1.0"><defs><clipPath id="id1"><path d="M 0 0 L 37.007812 0 L 37.007812 37.007812 L 0 37.007812 Z M 0 0 " clip-rule="nonzero"/></clipPath><clipPath id="id2"><path d="M 0.601562 0.601562 L 30 0.601562 L 30 36.601562 L 0.601562 36.601562 Z M 0.601562 0.601562 " clip-rule="nonzero"/></clipPath><clipPath id="id3"><path d="M 15 5 L 36.601562 5 L 36.601562 27 L 15 27 Z M 15 5 " clip-rule="nonzero"/></clipPath></defs><g clip-path="url(#id1)"><path fill="#ffffff" d="M 0 0 L 37.5 0 L 37.5 37.5 L 0 37.5 Z M 0 0 " fill-opacity="1" fill-rule="nonzero"/><path fill="#ffffff" d="M 0 0 L 37.5 0 L 37.5 37.5 L 0 37.5 Z M 0 0 " fill-opacity="1" fill-rule="nonzero"/><path fill="#ffffff" d="M 0 0 L 37.5 0 L 37.5 37.5 L 0 37.5 Z M 0 0 " fill-opacity="1" fill-rule="nonzero"/></g><path fill="#560216" d="M 16.324219 9.894531 L 4.53125 9.894531 C 4.222656 9.894531 3.96875 10.148438 3.96875 10.457031 C 3.96875 10.765625 4.222656 11.019531 4.53125 11.019531 L 16.324219 11.019531 C 16.632812 11.019531 16.886719 10.765625 16.886719 10.457031 C 16.886719 10.148438 16.632812 9.894531 16.324219 9.894531 Z M 16.324219 9.894531 " fill-opacity="1" fill-rule="nonzero"/><path fill="#560216" d="M 16.324219 12.140625 L 4.53125 12.140625 C 4.222656 12.140625 3.96875 12.394531 3.96875 12.703125 C 3.96875 13.011719 4.222656 13.265625 4.53125 13.265625 L 16.324219 13.265625 C 16.632812 13.265625 16.886719 13.011719 16.886719 12.703125 C 16.886719 12.394531 16.632812 12.140625 16.324219 12.140625 Z M 16.324219 12.140625 " fill-opacity="1" fill-rule="nonzero"/><path fill="#560216" d="M 16.324219 14.386719 L 4.53125 14.386719 C 4.222656 14.386719 3.96875 14.640625 3.96875 14.949219 C 3.96875 15.257812 4.222656 15.511719 4.53125 15.511719 L 16.324219 15.511719 C 16.632812 15.511719 16.886719 15.257812 16.886719 14.949219 C 16.886719 14.640625 16.632812 14.386719 16.324219 14.386719 Z M 16.324219 14.386719 " fill-opacity="1" fill-rule="nonzero"/><path fill="#560216" d="M 16.886719 30.957031 C 16.886719 30.648438 16.632812 30.394531 16.324219 30.394531 L 4.53125 30.394531 C 4.222656 30.394531 3.96875 30.648438 3.96875 30.957031 C 3.96875 31.265625 4.222656 31.515625 4.53125 31.515625 L 16.324219 31.515625 C 16.632812 31.515625 16.886719 31.265625 16.886719 30.957031 Z M 16.886719 30.957031 " fill-opacity="1" fill-rule="nonzero"/><path fill="#560216" d="M 4.53125 32.640625 C 4.222656 32.640625 3.96875 32.894531 3.96875 33.203125 C 3.96875 33.511719 4.222656 33.765625 4.53125 33.765625 L 12.675781 33.765625 C 12.984375 33.765625 13.238281 33.511719 13.238281 33.203125 C 13.238281 32.894531 12.984375 32.640625 12.675781 32.640625 Z M 4.53125 32.640625 " fill-opacity="1" fill-rule="nonzero"/><path fill="#560216" d="M 12.675781 22.53125 C 12.984375 22.53125 13.238281 22.277344 13.238281 21.96875 C 13.238281 21.660156 12.984375 21.40625 12.675781 21.40625 L 4.53125 21.40625 C 4.222656 21.40625 3.96875 21.660156 3.96875 21.96875 C 3.96875 22.277344 4.222656 22.53125 4.53125 22.53125 Z M 12.675781 22.53125 " fill-opacity="1" fill-rule="nonzero"/><path fill="#560216" d="M 3.96875 27.023438 C 3.96875 27.640625 4.476562 28.148438 5.09375 28.148438 L 7.339844 28.148438 C 7.957031 28.148438 8.460938 27.640625 8.460938 27.023438 L 8.460938 24.777344 C 8.460938 24.160156 7.957031 23.65625 7.339844 23.65625 L 5.09375 23.65625 C 4.476562 23.65625 3.96875 24.160156 3.96875 24.777344 Z M 5.09375 24.777344 L 7.339844 24.777344 L 7.339844 27.023438 L 5.09375 27.023438 Z M 5.09375 24.777344 " fill-opacity="1" fill-rule="nonzero"/><path fill="#560216" d="M 15.988281 19.949219 L 16.773438 19.160156 L 4.53125 19.160156 C 4.222656 19.160156 3.96875 19.414062 3.96875 19.722656 C 3.96875 20.03125 4.222656 20.285156 4.53125 20.285156 L 15.707031 20.285156 C 15.792969 20.144531 15.875 20.03125 15.988281 19.949219 Z M 15.988281 19.949219 " fill-opacity="1" fill-rule="nonzero"/><path fill="#560216" d="M 26.378906 9.53125 C 26.238281 9.082031 25.816406 8.773438 25.3125 8.773438 L 19.695312 8.773438 C 19.078125 8.773438 18.570312 9.277344 18.570312 9.894531 L 18.570312 15.511719 C 18.570312 16.015625 18.910156 16.410156 19.332031 16.578125 L 20.398438 15.511719 L 19.695312 15.511719 L 19.695312 9.894531 L 25.3125 9.894531 L 25.3125 10.597656 Z M 26.378906 9.53125 " fill-opacity="1" fill-rule="nonzero"/><path fill="#560216" d="M 21.351562 25.816406 L 20.820312 25.984375 L 20.820312 27.023438 C 20.820312 27.640625 21.324219 28.148438 21.941406 28.148438 L 24.1875 28.148438 C 24.804688 28.148438 25.3125 27.640625 25.3125 27.023438 L 25.3125 24.777344 C 25.3125 24.160156 24.804688 23.65625 24.1875 23.65625 L 23.765625 23.65625 L 22.644531 24.777344 L 24.1875 24.777344 L 24.1875 27.023438 L 21.941406 27.023438 L 21.941406 25.480469 C 21.773438 25.621094 21.578125 25.734375 21.351562 25.816406 Z M 21.351562 25.816406 " fill-opacity="1" fill-rule="nonzero"/><path fill="#560216" d="M 14.332031 24.777344 L 14.667969 23.65625 L 13.515625 23.65625 C 12.898438 23.65625 12.394531 24.160156 12.394531 24.777344 L 12.394531 27.023438 C 12.394531 27.640625 12.898438 28.148438 13.515625 28.148438 L 15.765625 28.148438 C 16.269531 28.148438 16.71875 27.78125 16.832031 27.304688 L 16.296875 27.472656 C 16.128906 27.558594 15.933594 27.585938 15.765625 27.585938 C 15.316406 27.585938 14.921875 27.417969 14.585938 27.109375 C 14.554688 27.082031 14.527344 27.050781 14.5 27.023438 L 13.515625 27.023438 L 13.515625 24.777344 Z M 14.332031 24.777344 " fill-opacity="1" fill-rule="nonzero"/><g clip-path="url(#id2)"><path fill="#560216" d="M 29.804688 6.105469 L 29.804688 2.875 C 29.804688 1.640625 28.792969 0.628906 27.558594 0.628906 L 2.847656 0.628906 C 1.609375 0.628906 0.601562 1.640625 0.601562 2.875 L 0.601562 34.324219 C 0.601562 35.5625 1.609375 36.570312 2.847656 36.570312 L 27.558594 36.570312 C 28.792969 36.570312 29.804688 35.5625 29.804688 34.324219 L 29.804688 17.617188 L 28.679688 18.742188 L 28.679688 34.324219 C 28.679688 34.941406 28.175781 35.449219 27.558594 35.449219 L 2.847656 35.449219 C 2.230469 35.449219 1.722656 34.941406 1.722656 34.324219 L 1.722656 5.683594 L 28.679688 5.683594 L 28.679688 7.226562 Z M 1.722656 4.558594 L 1.722656 2.875 C 1.722656 2.257812 2.230469 1.75 2.847656 1.75 L 27.558594 1.75 C 28.175781 1.75 28.679688 2.257812 28.679688 2.875 L 28.679688 4.558594 Z M 1.722656 4.558594 " fill-opacity="1" fill-rule="nonzero"/></g><g clip-path="url(#id3)"><path fill="#560216" d="M 33.003906 5.289062 C 32.78125 5.066406 32.445312 5.066406 32.21875 5.289062 L 16.773438 20.734375 C 16.71875 20.789062 16.664062 20.875 16.632812 20.957031 L 15.230469 25.734375 C 15.175781 25.929688 15.230469 26.152344 15.371094 26.292969 C 15.484375 26.40625 15.625 26.460938 15.765625 26.460938 C 15.820312 26.460938 15.875 26.460938 15.933594 26.433594 L 20.988281 24.75 C 21.070312 24.722656 21.15625 24.664062 21.210938 24.609375 L 36.375 9.445312 C 36.601562 9.222656 36.601562 8.882812 36.375 8.660156 Z M 16.605469 25.03125 L 17.671875 21.4375 L 17.730469 21.378906 L 20.199219 23.851562 Z M 21.097656 23.148438 L 18.515625 20.566406 L 30.648438 8.433594 L 33.230469 11.019531 Z M 34.015625 10.230469 L 31.433594 7.648438 L 32.613281 6.46875 L 35.195312 9.050781 Z M 34.015625 10.230469 " fill-opacity="1" fill-rule="nonzero"/></g></svg>