<svg xmlns="http://www.w3.org/2000/svg" xmlns:xlink="http://www.w3.org/1999/xlink" width="50" zoomAndPan="magnify" viewBox="0 0 37.5 37.499999" height="50" preserveAspectRatio="xMidYMid meet" version="1.0"><defs><clipPath id="id1"><path d="M 0 0 L 37.007812 0 L 37.007812 37.007812 L 0 37.007812 Z M 0 0 " clip-rule="nonzero"/></clipPath><clipPath id="id2"><path d="M 4.042969 0.480469 L 33.292969 0.480469 L 33.292969 37.007812 L 4.042969 37.007812 Z M 4.042969 0.480469 " clip-rule="nonzero"/></clipPath></defs><g clip-path="url(#id1)"><path fill="#ffffff" d="M 0 0 L 37.5 0 L 37.5 262.5 L 0 262.5 Z M 0 0 " fill-opacity="1" fill-rule="nonzero"/><path fill="#ffffff" d="M 0 0 L 37.5 0 L 37.5 37.5 L 0 37.5 Z M 0 0 " fill-opacity="1" fill-rule="nonzero"/><path fill="#ffffff" d="M 0 0 L 37.5 0 L 37.5 37.5 L 0 37.5 Z M 0 0 " fill-opacity="1" fill-rule="nonzero"/><path fill="#ffffff" d="M 0 0 L 37.5 0 L 37.5 37.5 L 0 37.5 Z M 0 0 " fill-opacity="1" fill-rule="nonzero"/></g><g clip-path="url(#id2)"><path fill="#560216" d="M 33.253906 5.164062 C 33.25 5.027344 33.203125 4.910156 33.109375 4.8125 L 28.96875 0.625 C 28.871094 0.53125 28.753906 0.480469 28.617188 0.480469 L 7.84375 0.480469 C 7.707031 0.480469 7.589844 0.527344 7.492188 0.625 C 7.398438 0.722656 7.347656 0.84375 7.347656 0.980469 L 7.347656 3.542969 L 4.546875 3.542969 C 4.410156 3.542969 4.292969 3.59375 4.195312 3.691406 C 4.097656 3.789062 4.050781 3.910156 4.050781 4.046875 L 4.050781 36.726562 C 4.050781 36.863281 4.097656 36.984375 4.195312 37.082031 C 4.292969 37.179688 4.410156 37.226562 4.546875 37.226562 L 29.882812 37.226562 C 30.019531 37.226562 30.136719 37.179688 30.234375 37.082031 C 30.332031 36.984375 30.378906 36.863281 30.378906 36.726562 L 30.378906 33.785156 L 32.757812 33.785156 C 32.894531 33.785156 33.011719 33.734375 33.109375 33.636719 C 33.207031 33.539062 33.253906 33.417969 33.253906 33.28125 Z M 28.832031 1.90625 L 31.824219 4.933594 L 27.347656 6.339844 Z M 29.386719 36.222656 L 5.042969 36.222656 L 5.042969 4.550781 L 7.347656 4.550781 L 7.347656 33.28125 C 7.347656 33.417969 7.398438 33.539062 7.492188 33.636719 C 7.589844 33.734375 7.707031 33.785156 7.84375 33.785156 L 29.386719 33.785156 Z M 8.339844 32.777344 L 8.339844 1.484375 L 27.925781 1.484375 L 26.097656 6.949219 C 26.03125 7.144531 26.070312 7.316406 26.210938 7.464844 C 26.351562 7.609375 26.519531 7.652344 26.714844 7.59375 L 32.261719 5.851562 L 32.261719 32.777344 Z M 8.339844 32.777344 " fill-opacity="1" fill-rule="nonzero"/></g><path fill="#560216" d="M 15.460938 10.679688 C 15.597656 10.679688 15.714844 10.632812 15.808594 10.53125 C 15.90625 10.433594 15.957031 10.316406 15.957031 10.175781 L 15.957031 7.691406 L 18.289062 7.691406 L 18.289062 10.175781 C 18.289062 10.316406 18.335938 10.433594 18.433594 10.53125 C 18.53125 10.632812 18.648438 10.679688 18.785156 10.679688 C 18.921875 10.679688 19.039062 10.632812 19.136719 10.53125 C 19.234375 10.433594 19.28125 10.316406 19.28125 10.175781 L 19.28125 3.972656 C 19.28125 3.832031 19.234375 3.714844 19.136719 3.617188 L 18.546875 3.019531 C 18.449219 2.917969 18.332031 2.871094 18.195312 2.871094 L 16.050781 2.871094 C 15.914062 2.871094 15.796875 2.917969 15.699219 3.019531 L 15.109375 3.617188 C 15.011719 3.714844 14.960938 3.832031 14.960938 3.972656 L 14.960938 10.175781 C 14.960938 10.316406 15.011719 10.433594 15.109375 10.53125 C 15.203125 10.632812 15.320312 10.679688 15.460938 10.679688 Z M 16.257812 3.875 L 17.988281 3.875 L 18.289062 4.179688 L 18.289062 6.683594 L 15.957031 6.683594 L 15.957031 4.179688 Z M 16.257812 3.875 " fill-opacity="1" fill-rule="nonzero"/><path fill="#560216" d="M 10.210938 3.875 L 11.378906 3.875 L 11.378906 10.175781 C 11.378906 10.316406 11.425781 10.433594 11.523438 10.53125 C 11.621094 10.632812 11.738281 10.679688 11.875 10.679688 C 12.011719 10.679688 12.128906 10.632812 12.226562 10.53125 C 12.320312 10.433594 12.371094 10.316406 12.371094 10.175781 L 12.371094 3.875 L 13.535156 3.875 C 13.675781 3.875 13.792969 3.828125 13.886719 3.726562 C 13.984375 3.628906 14.035156 3.511719 14.035156 3.375 C 14.035156 3.234375 13.984375 3.117188 13.886719 3.019531 C 13.792969 2.917969 13.675781 2.871094 13.535156 2.871094 L 10.210938 2.871094 C 10.074219 2.871094 9.957031 2.917969 9.859375 3.019531 C 9.761719 3.117188 9.714844 3.234375 9.714844 3.375 C 9.714844 3.511719 9.761719 3.628906 9.859375 3.726562 C 9.957031 3.828125 10.074219 3.875 10.210938 3.875 Z M 10.210938 3.875 " fill-opacity="1" fill-rule="nonzero"/><path fill="#560216" d="M 20.707031 10.679688 C 20.84375 10.679688 20.960938 10.632812 21.058594 10.53125 C 21.15625 10.433594 21.203125 10.316406 21.203125 10.175781 L 21.203125 8.558594 L 22.371094 7.410156 L 23.539062 8.558594 L 23.539062 10.175781 C 23.539062 10.316406 23.585938 10.433594 23.683594 10.53125 C 23.78125 10.632812 23.898438 10.679688 24.035156 10.679688 C 24.171875 10.679688 24.289062 10.632812 24.386719 10.53125 C 24.480469 10.433594 24.53125 10.316406 24.53125 10.175781 L 24.53125 8.34375 C 24.53125 8.203125 24.480469 8.085938 24.378906 7.984375 L 23.082031 6.710938 L 24.378906 5.433594 C 24.480469 5.335938 24.53125 5.214844 24.53125 5.074219 L 24.53125 3.375 C 24.53125 3.234375 24.480469 3.117188 24.386719 3.019531 C 24.289062 2.917969 24.171875 2.871094 24.035156 2.871094 C 23.898438 2.871094 23.78125 2.917969 23.683594 3.019531 C 23.585938 3.117188 23.539062 3.234375 23.539062 3.375 L 23.539062 4.863281 L 22.371094 6.007812 L 21.203125 4.863281 L 21.203125 3.375 C 21.203125 3.234375 21.15625 3.117188 21.058594 3.019531 C 20.960938 2.917969 20.84375 2.871094 20.707031 2.871094 C 20.570312 2.871094 20.453125 2.917969 20.355469 3.019531 C 20.257812 3.117188 20.210938 3.234375 20.210938 3.375 L 20.210938 5.074219 C 20.210938 5.214844 20.261719 5.335938 20.363281 5.433594 L 21.660156 6.710938 L 20.363281 7.984375 C 20.261719 8.085938 20.210938 8.203125 20.210938 8.347656 L 20.210938 10.175781 C 20.210938 10.316406 20.257812 10.433594 20.355469 10.53125 C 20.453125 10.632812 20.570312 10.679688 20.707031 10.679688 Z M 20.707031 10.679688 " fill-opacity="1" fill-rule="nonzero"/><path fill="#560216" d="M 30.390625 12.328125 L 10.210938 12.328125 C 10.074219 12.328125 9.957031 12.378906 9.859375 12.476562 C 9.761719 12.574219 9.714844 12.691406 9.714844 12.832031 L 9.714844 18.121094 C 9.714844 18.261719 9.761719 18.378906 9.859375 18.476562 C 9.957031 18.574219 10.074219 18.625 10.210938 18.625 L 30.390625 18.625 C 30.527344 18.625 30.644531 18.574219 30.742188 18.476562 C 30.839844 18.378906 30.886719 18.261719 30.886719 18.121094 L 30.886719 12.832031 C 30.886719 12.691406 30.839844 12.574219 30.742188 12.476562 C 30.644531 12.378906 30.527344 12.328125 30.390625 12.328125 Z M 29.894531 17.621094 L 10.707031 17.621094 L 10.707031 13.335938 L 29.894531 13.335938 Z M 29.894531 17.621094 " fill-opacity="1" fill-rule="nonzero"/><path fill="#560216" d="M 30.390625 20.066406 L 10.210938 20.066406 C 10.074219 20.066406 9.957031 20.117188 9.859375 20.214844 C 9.761719 20.3125 9.714844 20.433594 9.714844 20.570312 C 9.714844 20.710938 9.761719 20.828125 9.859375 20.925781 C 9.957031 21.023438 10.074219 21.074219 10.210938 21.074219 L 30.390625 21.074219 C 30.527344 21.074219 30.644531 21.023438 30.742188 20.925781 C 30.839844 20.828125 30.886719 20.710938 30.886719 20.570312 C 30.886719 20.433594 30.839844 20.3125 30.742188 20.214844 C 30.644531 20.117188 30.527344 20.066406 30.390625 20.066406 Z M 30.390625 20.066406 " fill-opacity="1" fill-rule="nonzero"/><path fill="#560216" d="M 28.691406 24.363281 C 28.828125 24.363281 28.945312 24.3125 29.042969 24.214844 C 29.140625 24.117188 29.1875 24 29.1875 23.859375 C 29.1875 23.722656 29.140625 23.601562 29.042969 23.503906 C 28.945312 23.40625 28.828125 23.359375 28.691406 23.359375 L 11.910156 23.359375 C 11.773438 23.359375 11.65625 23.40625 11.558594 23.503906 C 11.460938 23.601562 11.414062 23.722656 11.414062 23.859375 C 11.414062 24 11.460938 24.117188 11.558594 24.214844 C 11.65625 24.3125 11.773438 24.363281 11.910156 24.363281 Z M 28.691406 24.363281 " fill-opacity="1" fill-rule="nonzero"/><path fill="#560216" d="M 30.390625 26.648438 L 10.210938 26.648438 C 10.074219 26.648438 9.957031 26.695312 9.859375 26.792969 C 9.761719 26.894531 9.714844 27.011719 9.714844 27.148438 C 9.714844 27.289062 9.761719 27.40625 9.859375 27.503906 C 9.957031 27.605469 10.074219 27.652344 10.210938 27.652344 L 30.390625 27.652344 C 30.527344 27.652344 30.644531 27.605469 30.742188 27.503906 C 30.839844 27.40625 30.886719 27.289062 30.886719 27.148438 C 30.886719 27.011719 30.839844 26.894531 30.742188 26.792969 C 30.644531 26.695312 30.527344 26.648438 30.390625 26.648438 Z M 30.390625 26.648438 " fill-opacity="1" fill-rule="nonzero"/><path fill="#560216" d="M 28.691406 29.9375 L 11.910156 29.9375 C 11.773438 29.9375 11.65625 29.984375 11.558594 30.082031 C 11.460938 30.179688 11.414062 30.300781 11.414062 30.4375 C 11.414062 30.578125 11.460938 30.695312 11.558594 30.792969 C 11.65625 30.890625 11.773438 30.941406 11.910156 30.941406 L 28.691406 30.941406 C 28.828125 30.941406 28.945312 30.890625 29.042969 30.792969 C 29.140625 30.695312 29.1875 30.578125 29.1875 30.4375 C 29.1875 30.300781 29.140625 30.179688 29.042969 30.082031 C 28.945312 29.984375 28.828125 29.9375 28.691406 29.9375 Z M 28.691406 29.9375 " fill-opacity="1" fill-rule="nonzero"/></svg>