<svg xmlns="http://www.w3.org/2000/svg" xmlns:xlink="http://www.w3.org/1999/xlink" width="50" zoomAndPan="magnify" viewBox="0 0 37.5 37.499999" height="50" preserveAspectRatio="xMidYMid meet" version="1.0"><defs><clipPath id="id1"><path d="M 0 0 L 37.007812 0 L 37.007812 37.007812 L 0 37.007812 Z M 0 0 " clip-rule="nonzero"/></clipPath><clipPath id="id2"><path d="M 6 0.789062 L 36.789062 0.789062 L 36.789062 36.789062 L 6 36.789062 Z M 6 0.789062 " clip-rule="nonzero"/></clipPath><clipPath id="id3"><path d="M 0.789062 17 L 9 17 L 9 36.789062 L 0.789062 36.789062 Z M 0.789062 17 " clip-rule="nonzero"/></clipPath></defs><g clip-path="url(#id1)"><path fill="#ffffff" d="M 0 0 L 37.5 0 L 37.5 37.5 L 0 37.5 Z M 0 0 " fill-opacity="1" fill-rule="nonzero"/><path fill="#ffffff" d="M 0 0 L 37.5 0 L 37.5 37.5 L 0 37.5 Z M 0 0 " fill-opacity="1" fill-rule="nonzero"/><path fill="#ffffff" d="M 0 0 L 37.5 0 L 37.5 37.5 L 0 37.5 Z M 0 0 " fill-opacity="1" fill-rule="nonzero"/></g><g clip-path="url(#id2)"><path fill="#560216" d="M 36.789062 36.789062 L 6.472656 36.789062 L 6.472656 0.789062 L 36.789062 0.789062 Z M 8.367188 34.894531 L 34.894531 34.894531 L 34.894531 2.683594 L 8.367188 2.683594 Z M 8.367188 34.894531 " fill-opacity="1" fill-rule="nonzero"/></g><g clip-path="url(#id3)"><path fill="#560216" d="M 8.367188 36.789062 L 7.417969 36.789062 C 6.984375 36.789062 6.550781 36.746094 6.125 36.660156 C 5.699219 36.574219 5.285156 36.449219 4.882812 36.28125 C 4.480469 36.117188 4.097656 35.910156 3.734375 35.667969 C 3.371094 35.429688 3.039062 35.152344 2.730469 34.84375 C 2.421875 34.539062 2.148438 34.203125 1.90625 33.839844 C 1.664062 33.476562 1.457031 33.097656 1.292969 32.695312 C 1.125 32.292969 1 31.875 0.914062 31.449219 C 0.828125 31.023438 0.789062 30.589844 0.789062 30.15625 L 0.789062 17.839844 L 8.367188 17.839844 Z M 2.683594 19.734375 L 2.683594 30.15625 C 2.671875 30.710938 2.753906 31.25 2.933594 31.773438 C 3.109375 32.300781 3.375 32.777344 3.71875 33.210938 C 4.066406 33.644531 4.476562 34.003906 4.949219 34.292969 C 5.421875 34.582031 5.929688 34.78125 6.472656 34.894531 L 6.472656 19.734375 Z M 2.683594 19.734375 " fill-opacity="1" fill-rule="nonzero"/></g><path fill="#560216" d="M 18.789062 19.734375 C 18.351562 19.734375 17.921875 19.691406 17.492188 19.609375 C 17.066406 19.523438 16.652344 19.398438 16.25 19.230469 C 15.847656 19.0625 15.464844 18.859375 15.101562 18.617188 C 14.742188 18.375 14.40625 18.101562 14.097656 17.792969 C 13.789062 17.484375 13.515625 17.148438 13.273438 16.789062 C 13.03125 16.425781 12.828125 16.042969 12.660156 15.640625 C 12.492188 15.238281 12.367188 14.824219 12.285156 14.398438 C 12.199219 13.96875 12.15625 13.539062 12.15625 13.101562 C 12.15625 12.667969 12.199219 12.238281 12.285156 11.808594 C 12.367188 11.382812 12.492188 10.96875 12.660156 10.566406 C 12.828125 10.164062 13.03125 9.78125 13.273438 9.417969 C 13.515625 9.058594 13.789062 8.722656 14.097656 8.414062 C 14.40625 8.105469 14.742188 7.832031 15.101562 7.589844 C 15.464844 7.347656 15.847656 7.144531 16.25 6.976562 C 16.652344 6.808594 17.066406 6.683594 17.492188 6.597656 C 17.921875 6.515625 18.351562 6.472656 18.789062 6.472656 C 19.222656 6.472656 19.652344 6.515625 20.082031 6.597656 C 20.507812 6.683594 20.921875 6.808594 21.324219 6.976562 C 21.726562 7.144531 22.109375 7.347656 22.472656 7.589844 C 22.832031 7.832031 23.167969 8.105469 23.476562 8.414062 C 23.785156 8.722656 24.058594 9.058594 24.300781 9.417969 C 24.542969 9.78125 24.746094 10.164062 24.914062 10.566406 C 25.082031 10.96875 25.207031 11.382812 25.292969 11.808594 C 25.375 12.238281 25.417969 12.667969 25.417969 13.101562 C 25.417969 13.539062 25.375 13.96875 25.292969 14.398438 C 25.207031 14.824219 25.082031 15.238281 24.914062 15.640625 C 24.746094 16.042969 24.542969 16.425781 24.300781 16.789062 C 24.058594 17.148438 23.785156 17.484375 23.476562 17.792969 C 23.167969 18.101562 22.832031 18.375 22.472656 18.617188 C 22.109375 18.859375 21.726562 19.0625 21.324219 19.230469 C 20.921875 19.398438 20.507812 19.523438 20.082031 19.609375 C 19.652344 19.691406 19.222656 19.734375 18.789062 19.734375 Z M 18.789062 8.367188 C 18.476562 8.367188 18.167969 8.398438 17.863281 8.457031 C 17.558594 8.519531 17.261719 8.609375 16.976562 8.726562 C 16.6875 8.847656 16.414062 8.992188 16.15625 9.164062 C 15.898438 9.335938 15.65625 9.535156 15.4375 9.753906 C 15.21875 9.972656 15.023438 10.214844 14.847656 10.472656 C 14.675781 10.730469 14.53125 11.003906 14.410156 11.289062 C 14.292969 11.578125 14.203125 11.875 14.140625 12.179688 C 14.082031 12.484375 14.050781 12.792969 14.050781 13.101562 C 14.050781 13.414062 14.082031 13.722656 14.140625 14.027344 C 14.203125 14.332031 14.292969 14.628906 14.410156 14.914062 C 14.53125 15.203125 14.675781 15.476562 14.847656 15.734375 C 15.023438 15.992188 15.21875 16.234375 15.4375 16.453125 C 15.65625 16.671875 15.898438 16.867188 16.15625 17.042969 C 16.414062 17.214844 16.6875 17.359375 16.976562 17.480469 C 17.261719 17.597656 17.558594 17.6875 17.863281 17.75 C 18.167969 17.808594 18.476562 17.839844 18.789062 17.839844 C 19.097656 17.839844 19.40625 17.808594 19.710938 17.75 C 20.015625 17.6875 20.3125 17.597656 20.601562 17.480469 C 20.886719 17.359375 21.160156 17.214844 21.417969 17.042969 C 21.679688 16.867188 21.917969 16.671875 22.136719 16.453125 C 22.355469 16.234375 22.554688 15.992188 22.726562 15.734375 C 22.898438 15.476562 23.042969 15.203125 23.164062 14.914062 C 23.28125 14.628906 23.371094 14.332031 23.433594 14.027344 C 23.492188 13.722656 23.523438 13.414062 23.523438 13.101562 C 23.523438 12.792969 23.492188 12.484375 23.433594 12.179688 C 23.371094 11.875 23.28125 11.578125 23.164062 11.289062 C 23.042969 11.003906 22.898438 10.730469 22.726562 10.472656 C 22.554688 10.214844 22.355469 9.972656 22.136719 9.753906 C 21.917969 9.535156 21.679688 9.335938 21.417969 9.164062 C 21.160156 8.992188 20.886719 8.847656 20.601562 8.726562 C 20.3125 8.609375 20.015625 8.519531 19.710938 8.457031 C 19.40625 8.398438 19.097656 8.367188 18.789062 8.367188 Z M 18.789062 8.367188 " fill-opacity="1" fill-rule="nonzero"/><path fill="#560216" d="M 19.734375 18.789062 L 17.839844 18.789062 L 17.839844 12.15625 L 24.472656 12.15625 L 24.472656 14.050781 L 19.734375 14.050781 Z M 19.734375 18.789062 " fill-opacity="1" fill-rule="nonzero"/><path fill="#560216" d="M 12.15625 21.628906 L 31.101562 21.628906 L 31.101562 23.523438 L 12.15625 23.523438 Z M 12.15625 21.628906 " fill-opacity="1" fill-rule="nonzero"/><path fill="#560216" d="M 12.15625 27.3125 L 31.101562 27.3125 L 31.101562 29.207031 L 12.15625 29.207031 Z M 12.15625 27.3125 " fill-opacity="1" fill-rule="nonzero"/></svg>