<svg xmlns="http://www.w3.org/2000/svg" xmlns:xlink="http://www.w3.org/1999/xlink" width="50" zoomAndPan="magnify" viewBox="0 0 37.5 37.499999" height="50" preserveAspectRatio="xMidYMid meet" version="1.0"><defs><clipPath id="id1"><path d="M 0 0 L 37.007812 0 L 37.007812 37.007812 L 0 37.007812 Z M 0 0 " clip-rule="nonzero"/></clipPath><clipPath id="id2"><path d="M 0.675781 5 L 20 5 L 20 31 L 0.675781 31 Z M 0.675781 5 " clip-rule="nonzero"/></clipPath><clipPath id="id3"><path d="M 20 19 L 31 19 L 31 36.675781 L 20 36.675781 Z M 20 19 " clip-rule="nonzero"/></clipPath><clipPath id="id4"><path d="M 31 18 L 36 18 L 36 36.675781 L 31 36.675781 Z M 31 18 " clip-rule="nonzero"/></clipPath><clipPath id="id5"><path d="M 34 3 L 36.675781 3 L 36.675781 18 L 34 18 Z M 34 3 " clip-rule="nonzero"/></clipPath><clipPath id="id6"><path d="M 18 0.675781 L 36 0.675781 L 36 8 L 18 8 Z M 18 0.675781 " clip-rule="nonzero"/></clipPath></defs><g clip-path="url(#id1)"><path fill="#ffffff" d="M 0 0 L 37.5 0 L 37.5 37.5 L 0 37.5 Z M 0 0 " fill-opacity="1" fill-rule="nonzero"/><path fill="#ffffff" d="M 0 0 L 37.5 0 L 37.5 37.5 L 0 37.5 Z M 0 0 " fill-opacity="1" fill-rule="nonzero"/><path fill="#ffffff" d="M 0 0 L 37.5 0 L 37.5 37.5 L 0 37.5 Z M 0 0 " fill-opacity="1" fill-rule="nonzero"/></g><path fill="#560216" d="M 16.316406 20.191406 C 16.316406 18.027344 14.558594 16.269531 12.394531 16.269531 C 10.230469 16.269531 8.472656 18.027344 8.472656 20.191406 C 8.472656 22.355469 10.230469 24.113281 12.394531 24.113281 C 14.558594 24.113281 16.316406 22.355469 16.316406 20.191406 Z M 9.042969 20.191406 C 9.042969 18.34375 10.546875 16.839844 12.394531 16.839844 C 14.242188 16.839844 15.746094 18.34375 15.746094 20.191406 C 15.746094 22.039062 14.242188 23.542969 12.394531 23.542969 C 10.546875 23.542969 9.042969 22.039062 9.042969 20.191406 Z M 9.042969 20.191406 " fill-opacity="1" fill-rule="nonzero"/><path fill="#560216" d="M 13.394531 22.726562 C 13.441406 22.734375 13.488281 22.738281 13.535156 22.738281 C 13.675781 22.738281 13.8125 22.703125 13.933594 22.636719 C 14.871094 22.140625 15.359375 21.292969 15.347656 20.1875 C 15.34375 19.765625 15.042969 19.414062 14.632812 19.351562 C 14.585938 19.34375 14.539062 19.335938 14.484375 19.335938 C 14.011719 19.34375 13.632812 19.730469 13.636719 20.203125 C 13.640625 20.660156 13.488281 20.933594 13.128906 21.125 C 12.925781 21.230469 12.78125 21.414062 12.714844 21.632812 C 12.644531 21.851562 12.667969 22.085938 12.777344 22.28125 C 12.898438 22.523438 13.125 22.683594 13.394531 22.726562 Z M 13.394531 22.726562 " fill-opacity="1" fill-rule="nonzero"/><g clip-path="url(#id2)"><path fill="#560216" d="M 17.472656 26.542969 L 17.472656 5.632812 C 17.472656 5.476562 17.34375 5.347656 17.1875 5.347656 L 4.15625 5.347656 C 4.148438 5.347656 4.140625 5.351562 4.136719 5.351562 C 4.109375 5.355469 4.085938 5.359375 4.0625 5.367188 C 4.050781 5.371094 4.042969 5.375 4.03125 5.378906 C 4.007812 5.390625 3.984375 5.40625 3.964844 5.425781 C 3.960938 5.429688 3.957031 5.429688 3.953125 5.433594 C 3.949219 5.4375 3.949219 5.4375 3.949219 5.4375 L 0.753906 8.761719 C 0.734375 8.785156 0.714844 8.8125 0.703125 8.839844 C 0.699219 8.847656 0.699219 8.859375 0.695312 8.867188 C 0.6875 8.890625 0.679688 8.917969 0.679688 8.945312 C 0.679688 8.949219 0.675781 8.953125 0.675781 8.960938 L 0.675781 30.675781 C 0.675781 30.835938 0.804688 30.964844 0.960938 30.964844 L 17.1875 30.964844 C 17.34375 30.964844 17.472656 30.835938 17.472656 30.675781 L 17.472656 30.097656 L 17.578125 30.269531 C 17.773438 30.578125 18.101562 30.75 18.425781 30.75 C 18.59375 30.75 18.757812 30.703125 18.90625 30.609375 C 19.175781 30.441406 19.335938 30.144531 19.335938 29.816406 C 19.335938 29.621094 19.28125 29.433594 19.175781 29.269531 Z M 9.289062 23.460938 C 9.015625 23.199219 8.773438 22.902344 8.570312 22.582031 C 8.292969 22.132812 8.097656 21.65625 7.992188 21.15625 C 7.824219 20.390625 7.859375 19.597656 8.089844 18.855469 C 8.378906 17.921875 8.949219 17.125 9.738281 16.550781 L 9.757812 16.535156 C 9.839844 16.480469 9.921875 16.425781 10.007812 16.371094 C 12.113281 15.054688 14.898438 15.695312 16.214844 17.804688 C 16.664062 18.519531 16.902344 19.347656 16.902344 20.1875 C 16.902344 21.535156 16.3125 22.796875 15.28125 23.652344 C 15.128906 23.78125 14.960938 23.902344 14.785156 24.011719 C 14.597656 24.128906 14.414062 24.226562 14.234375 24.304688 C 12.585938 25.046875 10.597656 24.703125 9.289062 23.460938 Z M 15.085938 24.496094 C 15.191406 24.433594 15.292969 24.363281 15.394531 24.289062 L 16.539062 26.121094 L 15.90625 26.515625 L 14.761719 24.683594 C 14.871094 24.625 14.976562 24.566406 15.085938 24.496094 Z M 16.902344 25.625 L 15.832031 23.917969 C 16.273438 23.511719 16.632812 23.042969 16.902344 22.523438 Z M 3.898438 6.3125 L 4.011719 8.832031 L 1.601562 8.707031 Z M 1.246094 30.390625 L 1.246094 9.261719 L 4.296875 9.421875 C 4.300781 9.421875 4.308594 9.421875 4.3125 9.421875 C 4.386719 9.421875 4.460938 9.390625 4.511719 9.335938 C 4.570312 9.28125 4.601562 9.203125 4.597656 9.121094 L 4.453125 5.921875 L 16.902344 5.921875 L 16.902344 17.855469 C 16.839844 17.734375 16.773438 17.617188 16.699219 17.5 C 15.214844 15.125 12.078125 14.402344 9.703125 15.886719 C 9.628906 15.933594 9.558594 15.984375 9.484375 16.03125 L 3.527344 16.03125 C 3.371094 16.03125 3.242188 16.160156 3.242188 16.316406 C 3.242188 16.476562 3.371094 16.605469 3.527344 16.605469 L 8.800781 16.605469 C 8.269531 17.132812 7.871094 17.769531 7.617188 18.484375 L 3.527344 18.484375 C 3.371094 18.484375 3.242188 18.613281 3.242188 18.769531 C 3.242188 18.925781 3.371094 19.054688 3.527344 19.054688 L 7.445312 19.054688 C 7.304688 19.667969 7.277344 20.308594 7.371094 20.933594 L 3.527344 20.933594 C 3.371094 20.933594 3.242188 21.058594 3.242188 21.21875 C 3.242188 21.375 3.371094 21.503906 3.527344 21.503906 L 7.492188 21.503906 C 7.617188 21.984375 7.816406 22.449219 8.085938 22.882812 C 8.195312 23.058594 8.3125 23.222656 8.441406 23.378906 L 3.527344 23.378906 C 3.371094 23.378906 3.242188 23.507812 3.242188 23.667969 C 3.242188 23.824219 3.371094 23.953125 3.527344 23.953125 L 8.988281 23.953125 C 9.941406 24.816406 11.152344 25.273438 12.386719 25.273438 C 13.007812 25.273438 13.632812 25.152344 14.234375 24.917969 L 16.902344 29.183594 L 16.902344 30.390625 Z M 1.246094 30.390625 " fill-opacity="1" fill-rule="nonzero"/></g><path fill="#560216" d="M 10.402344 8.730469 L 15.816406 8.730469 C 15.976562 8.730469 16.105469 8.601562 16.105469 8.441406 C 16.105469 8.285156 15.976562 8.15625 15.816406 8.15625 L 10.402344 8.15625 C 10.242188 8.15625 10.113281 8.285156 10.113281 8.441406 C 10.113281 8.601562 10.242188 8.730469 10.402344 8.730469 Z M 10.402344 8.730469 " fill-opacity="1" fill-rule="nonzero"/><path fill="#560216" d="M 3.527344 11.707031 L 14.960938 11.707031 C 15.117188 11.707031 15.246094 11.578125 15.246094 11.421875 C 15.246094 11.261719 15.117188 11.132812 14.960938 11.132812 L 3.527344 11.132812 C 3.371094 11.132812 3.242188 11.261719 3.242188 11.421875 C 3.242188 11.578125 3.371094 11.707031 3.527344 11.707031 Z M 3.527344 11.707031 " fill-opacity="1" fill-rule="nonzero"/><path fill="#560216" d="M 3.527344 14.15625 L 14.960938 14.15625 C 15.117188 14.15625 15.246094 14.027344 15.246094 13.871094 C 15.246094 13.710938 15.117188 13.582031 14.960938 13.582031 L 3.527344 13.582031 C 3.371094 13.582031 3.242188 13.710938 3.242188 13.871094 C 3.242188 14.027344 3.371094 14.15625 3.527344 14.15625 Z M 3.527344 14.15625 " fill-opacity="1" fill-rule="nonzero"/><g clip-path="url(#id3)"><path fill="#560216" d="M 28.757812 19.492188 L 21.742188 19.492188 C 20.84375 19.492188 20.113281 20.222656 20.113281 21.125 L 20.113281 34.832031 C 20.113281 35.734375 20.84375 36.464844 21.742188 36.464844 L 28.757812 36.464844 C 29.65625 36.464844 30.390625 35.734375 30.390625 34.832031 L 30.390625 21.125 C 30.390625 20.222656 29.65625 19.492188 28.757812 19.492188 Z M 29.816406 34.832031 C 29.816406 35.417969 29.34375 35.894531 28.757812 35.894531 L 21.742188 35.894531 C 21.160156 35.894531 20.683594 35.417969 20.683594 34.832031 L 20.683594 21.125 C 20.683594 20.539062 21.160156 20.0625 21.742188 20.0625 L 28.757812 20.0625 C 29.34375 20.0625 29.816406 20.539062 29.816406 21.125 Z M 29.816406 34.832031 " fill-opacity="1" fill-rule="nonzero"/></g><path fill="#560216" d="M 28.675781 21.257812 L 21.828125 21.257812 C 21.667969 21.257812 21.539062 21.386719 21.539062 21.542969 L 21.539062 23.660156 C 21.539062 23.820312 21.667969 23.945312 21.828125 23.945312 L 28.675781 23.945312 C 28.832031 23.945312 28.960938 23.820312 28.960938 23.660156 L 28.960938 21.542969 C 28.960938 21.386719 28.832031 21.257812 28.675781 21.257812 Z M 28.390625 23.375 L 22.113281 23.375 L 22.113281 21.828125 L 28.390625 21.828125 Z M 28.390625 23.375 " fill-opacity="1" fill-rule="nonzero"/><path fill="#560216" d="M 25.25 25.113281 C 24.671875 25.113281 24.203125 25.585938 24.203125 26.160156 C 24.203125 26.738281 24.671875 27.207031 25.25 27.207031 C 25.828125 27.207031 26.296875 26.738281 26.296875 26.160156 C 26.296875 25.585938 25.828125 25.113281 25.25 25.113281 Z M 25.25 26.632812 C 24.988281 26.632812 24.773438 26.421875 24.773438 26.160156 C 24.773438 25.898438 24.988281 25.6875 25.25 25.6875 C 25.511719 25.6875 25.726562 25.898438 25.726562 26.160156 C 25.726562 26.421875 25.511719 26.632812 25.25 26.632812 Z M 25.25 26.632812 " fill-opacity="1" fill-rule="nonzero"/><path fill="#560216" d="M 25.25 27.753906 C 24.671875 27.753906 24.203125 28.222656 24.203125 28.796875 C 24.203125 29.375 24.671875 29.84375 25.25 29.84375 C 25.828125 29.84375 26.296875 29.375 26.296875 28.796875 C 26.296875 28.222656 25.828125 27.753906 25.25 27.753906 Z M 25.25 29.273438 C 24.988281 29.273438 24.773438 29.058594 24.773438 28.796875 C 24.773438 28.535156 24.988281 28.324219 25.25 28.324219 C 25.511719 28.324219 25.726562 28.535156 25.726562 28.796875 C 25.726562 29.058594 25.511719 29.273438 25.25 29.273438 Z M 25.25 29.273438 " fill-opacity="1" fill-rule="nonzero"/><path fill="#560216" d="M 25.25 30.390625 C 24.671875 30.390625 24.203125 30.859375 24.203125 31.4375 C 24.203125 32.015625 24.671875 32.484375 25.25 32.484375 C 25.828125 32.484375 26.296875 32.015625 26.296875 31.4375 C 26.296875 30.859375 25.828125 30.390625 25.25 30.390625 Z M 25.25 31.914062 C 24.988281 31.914062 24.773438 31.699219 24.773438 31.4375 C 24.773438 31.175781 24.988281 30.960938 25.25 30.960938 C 25.511719 30.960938 25.726562 31.175781 25.726562 31.4375 C 25.726562 31.699219 25.511719 31.914062 25.25 31.914062 Z M 25.25 31.914062 " fill-opacity="1" fill-rule="nonzero"/><path fill="#560216" d="M 25.25 33.027344 C 24.671875 33.027344 24.203125 33.5 24.203125 34.074219 C 24.203125 34.652344 24.671875 35.121094 25.25 35.121094 C 25.828125 35.121094 26.296875 34.652344 26.296875 34.074219 C 26.296875 33.5 25.828125 33.027344 25.25 33.027344 Z M 25.25 34.550781 C 24.988281 34.550781 24.773438 34.335938 24.773438 34.074219 C 24.773438 33.8125 24.988281 33.601562 25.25 33.601562 C 25.511719 33.601562 25.726562 33.8125 25.726562 34.074219 C 25.726562 34.335938 25.511719 34.550781 25.25 34.550781 Z M 25.25 34.550781 " fill-opacity="1" fill-rule="nonzero"/><path fill="#560216" d="M 22.585938 25.113281 C 22.011719 25.113281 21.539062 25.585938 21.539062 26.160156 C 21.539062 26.738281 22.011719 27.207031 22.585938 27.207031 C 23.164062 27.207031 23.632812 26.738281 23.632812 26.160156 C 23.632812 25.585938 23.164062 25.113281 22.585938 25.113281 Z M 22.585938 26.632812 C 22.324219 26.632812 22.113281 26.421875 22.113281 26.160156 C 22.113281 25.898438 22.324219 25.6875 22.585938 25.6875 C 22.847656 25.6875 23.0625 25.898438 23.0625 26.160156 C 23.0625 26.421875 22.847656 26.632812 22.585938 26.632812 Z M 22.585938 26.632812 " fill-opacity="1" fill-rule="nonzero"/><path fill="#560216" d="M 22.585938 27.753906 C 22.011719 27.753906 21.539062 28.222656 21.539062 28.796875 C 21.539062 29.375 22.011719 29.84375 22.585938 29.84375 C 23.164062 29.84375 23.632812 29.375 23.632812 28.796875 C 23.632812 28.222656 23.164062 27.753906 22.585938 27.753906 Z M 22.585938 29.273438 C 22.324219 29.273438 22.113281 29.058594 22.113281 28.796875 C 22.113281 28.535156 22.324219 28.324219 22.585938 28.324219 C 22.847656 28.324219 23.0625 28.535156 23.0625 28.796875 C 23.0625 29.058594 22.847656 29.273438 22.585938 29.273438 Z M 22.585938 29.273438 " fill-opacity="1" fill-rule="nonzero"/><path fill="#560216" d="M 22.585938 30.390625 C 22.011719 30.390625 21.539062 30.859375 21.539062 31.4375 C 21.539062 32.015625 22.011719 32.484375 22.585938 32.484375 C 23.164062 32.484375 23.632812 32.015625 23.632812 31.4375 C 23.632812 30.859375 23.164062 30.390625 22.585938 30.390625 Z M 22.585938 31.914062 C 22.324219 31.914062 22.113281 31.699219 22.113281 31.4375 C 22.113281 31.175781 22.324219 30.960938 22.585938 30.960938 C 22.847656 30.960938 23.0625 31.175781 23.0625 31.4375 C 23.0625 31.699219 22.847656 31.914062 22.585938 31.914062 Z M 22.585938 31.914062 " fill-opacity="1" fill-rule="nonzero"/><path fill="#560216" d="M 22.585938 33.027344 C 22.011719 33.027344 21.539062 33.5 21.539062 34.074219 C 21.539062 34.652344 22.011719 35.121094 22.585938 35.121094 C 23.164062 35.121094 23.632812 34.652344 23.632812 34.074219 C 23.632812 33.5 23.164062 33.027344 22.585938 33.027344 Z M 22.585938 34.550781 C 22.324219 34.550781 22.113281 34.335938 22.113281 34.074219 C 22.113281 33.8125 22.324219 33.601562 22.585938 33.601562 C 22.847656 33.601562 23.0625 33.8125 23.0625 34.074219 C 23.0625 34.335938 22.847656 34.550781 22.585938 34.550781 Z M 22.585938 34.550781 " fill-opacity="1" fill-rule="nonzero"/><path fill="#560216" d="M 27.914062 25.113281 C 27.339844 25.113281 26.871094 25.585938 26.871094 26.160156 C 26.871094 26.738281 27.339844 27.207031 27.914062 27.207031 C 28.492188 27.207031 28.960938 26.738281 28.960938 26.160156 C 28.960938 25.585938 28.492188 25.113281 27.914062 25.113281 Z M 27.914062 26.632812 C 27.652344 26.632812 27.441406 26.421875 27.441406 26.160156 C 27.441406 25.898438 27.652344 25.6875 27.914062 25.6875 C 28.175781 25.6875 28.390625 25.898438 28.390625 26.160156 C 28.390625 26.421875 28.175781 26.632812 27.914062 26.632812 Z M 27.914062 26.632812 " fill-opacity="1" fill-rule="nonzero"/><path fill="#560216" d="M 27.914062 27.753906 C 27.339844 27.753906 26.871094 28.222656 26.871094 28.796875 C 26.871094 29.375 27.339844 29.84375 27.914062 29.84375 C 28.492188 29.84375 28.960938 29.375 28.960938 28.796875 C 28.960938 28.222656 28.492188 27.753906 27.914062 27.753906 Z M 27.914062 29.273438 C 27.652344 29.273438 27.441406 29.058594 27.441406 28.796875 C 27.441406 28.535156 27.652344 28.324219 27.914062 28.324219 C 28.175781 28.324219 28.390625 28.535156 28.390625 28.796875 C 28.390625 29.058594 28.175781 29.273438 27.914062 29.273438 Z M 27.914062 29.273438 " fill-opacity="1" fill-rule="nonzero"/><path fill="#560216" d="M 27.914062 30.390625 C 27.339844 30.390625 26.871094 30.859375 26.871094 31.4375 C 26.871094 32.015625 27.339844 32.484375 27.914062 32.484375 C 28.492188 32.484375 28.960938 32.015625 28.960938 31.4375 C 28.960938 30.859375 28.492188 30.390625 27.914062 30.390625 Z M 27.914062 31.914062 C 27.652344 31.914062 27.441406 31.699219 27.441406 31.4375 C 27.441406 31.175781 27.652344 30.960938 27.914062 30.960938 C 28.175781 30.960938 28.390625 31.175781 28.390625 31.4375 C 28.390625 31.699219 28.175781 31.914062 27.914062 31.914062 Z M 27.914062 31.914062 " fill-opacity="1" fill-rule="nonzero"/><path fill="#560216" d="M 27.914062 33.027344 C 27.339844 33.027344 26.871094 33.5 26.871094 34.074219 C 26.871094 34.652344 27.339844 35.121094 27.914062 35.121094 C 28.492188 35.121094 28.960938 34.652344 28.960938 34.074219 C 28.960938 33.5 28.492188 33.027344 27.914062 33.027344 Z M 27.914062 34.550781 C 27.652344 34.550781 27.441406 34.335938 27.441406 34.074219 C 27.441406 33.8125 27.652344 33.601562 27.914062 33.601562 C 28.175781 33.601562 28.390625 33.8125 28.390625 34.074219 C 28.390625 34.335938 28.175781 34.550781 27.914062 34.550781 Z M 27.914062 34.550781 " fill-opacity="1" fill-rule="nonzero"/><g clip-path="url(#id4)"><path fill="#560216" d="M 35.242188 29.652344 C 35.082031 29.652344 34.953125 29.78125 34.953125 29.9375 L 34.953125 33.910156 C 34.953125 34.171875 34.761719 34.390625 34.507812 34.433594 L 34.507812 21.226562 C 34.507812 21.210938 34.503906 21.195312 34.5 21.175781 C 34.496094 21.160156 34.496094 21.144531 34.492188 21.125 L 33.976562 19.753906 C 33.882812 19.507812 33.691406 19.324219 33.453125 19.242188 L 33.453125 18.304688 C 33.453125 18.144531 33.324219 18.019531 33.167969 18.019531 C 33.007812 18.019531 32.882812 18.144531 32.882812 18.304688 L 32.882812 19.242188 C 32.644531 19.324219 32.449219 19.507812 32.355469 19.753906 L 31.839844 21.125 C 31.832031 21.140625 31.835938 21.160156 31.832031 21.175781 C 31.828125 21.191406 31.820312 21.207031 31.820312 21.226562 L 31.820312 34.730469 C 31.820312 34.886719 31.949219 35.015625 32.105469 35.015625 L 32.277344 35.015625 L 32.277344 35.773438 C 32.277344 36.011719 32.371094 36.238281 32.535156 36.398438 C 32.703125 36.566406 32.925781 36.660156 33.167969 36.660156 C 33.65625 36.660156 34.054688 36.261719 34.054688 35.773438 L 34.054688 35.015625 L 34.417969 35.015625 C 35.027344 35.015625 35.527344 34.519531 35.527344 33.910156 L 35.527344 29.9375 C 35.527344 29.78125 35.398438 29.652344 35.242188 29.652344 Z M 33.9375 22.652344 L 33.9375 27.222656 L 32.390625 27.222656 L 32.390625 22.652344 Z M 33.9375 27.792969 L 33.9375 33.375 L 32.390625 33.375 L 32.390625 27.792969 Z M 32.890625 19.953125 C 32.957031 19.777344 33.117188 19.761719 33.167969 19.761719 C 33.214844 19.761719 33.375 19.777344 33.441406 19.953125 L 33.8125 20.941406 L 32.519531 20.941406 Z M 33.484375 35.773438 C 33.484375 35.945312 33.339844 36.089844 33.167969 36.089844 C 33.082031 36.089844 33.003906 36.058594 32.941406 35.992188 C 32.882812 35.9375 32.847656 35.855469 32.847656 35.773438 L 32.847656 35.015625 L 33.484375 35.015625 Z M 33.484375 35.773438 " fill-opacity="1" fill-rule="nonzero"/></g><path fill="#560216" d="M 20.96875 9.835938 C 20.8125 9.835938 20.683594 9.964844 20.683594 10.125 L 20.683594 17.414062 C 20.683594 17.574219 20.8125 17.699219 20.96875 17.699219 L 22.914062 17.699219 C 23.070312 17.699219 23.199219 17.574219 23.199219 17.414062 L 23.199219 10.125 C 23.199219 9.964844 23.070312 9.835938 22.914062 9.835938 Z M 22.625 17.128906 L 21.253906 17.128906 L 21.253906 10.410156 L 22.625 10.410156 Z M 22.625 17.128906 " fill-opacity="1" fill-rule="nonzero"/><path fill="#560216" d="M 24.335938 7.066406 C 24.179688 7.066406 24.050781 7.195312 24.050781 7.351562 L 24.050781 17.414062 C 24.050781 17.574219 24.179688 17.699219 24.335938 17.699219 L 26.28125 17.699219 C 26.4375 17.699219 26.566406 17.574219 26.566406 17.414062 L 26.566406 7.351562 C 26.566406 7.195312 26.4375 7.066406 26.28125 7.066406 Z M 25.996094 17.128906 L 24.625 17.128906 L 24.625 7.636719 L 25.996094 7.636719 Z M 25.996094 17.128906 " fill-opacity="1" fill-rule="nonzero"/><path fill="#560216" d="M 27.710938 11.597656 C 27.550781 11.597656 27.421875 11.726562 27.421875 11.882812 L 27.421875 17.414062 C 27.421875 17.574219 27.550781 17.699219 27.710938 17.699219 L 29.648438 17.699219 C 29.808594 17.699219 29.933594 17.574219 29.933594 17.414062 L 29.933594 11.882812 C 29.933594 11.726562 29.808594 11.597656 29.648438 11.597656 Z M 29.363281 17.128906 L 27.996094 17.128906 L 27.996094 12.167969 L 29.363281 12.167969 Z M 29.363281 17.128906 " fill-opacity="1" fill-rule="nonzero"/><path fill="#560216" d="M 33.304688 17.414062 L 33.304688 5.226562 C 33.304688 5.070312 33.179688 4.941406 33.019531 4.941406 L 31.078125 4.941406 C 30.921875 4.941406 30.792969 5.070312 30.792969 5.226562 L 30.792969 17.414062 C 30.792969 17.574219 30.921875 17.699219 31.078125 17.699219 L 33.019531 17.699219 C 33.179688 17.699219 33.304688 17.574219 33.304688 17.414062 Z M 32.734375 17.128906 L 31.363281 17.128906 L 31.363281 5.511719 L 32.734375 5.511719 Z M 32.734375 17.128906 " fill-opacity="1" fill-rule="nonzero"/><g clip-path="url(#id5)"><path fill="#560216" d="M 36.390625 3.183594 L 34.445312 3.183594 C 34.289062 3.183594 34.160156 3.3125 34.160156 3.46875 L 34.160156 17.414062 C 34.160156 17.574219 34.289062 17.699219 34.445312 17.699219 L 36.390625 17.699219 C 36.546875 17.699219 36.675781 17.574219 36.675781 17.414062 L 36.675781 3.46875 C 36.675781 3.3125 36.546875 3.183594 36.390625 3.183594 Z M 36.105469 17.128906 L 34.730469 17.128906 L 34.730469 3.753906 L 36.105469 3.753906 Z M 36.105469 17.128906 " fill-opacity="1" fill-rule="nonzero"/></g><g clip-path="url(#id6)"><path fill="#560216" d="M 26.742188 3.925781 C 26.894531 3.96875 27.015625 4.070312 27.085938 4.207031 C 27.277344 4.59375 27.664062 4.832031 28.097656 4.832031 C 28.285156 4.832031 28.460938 4.789062 28.621094 4.707031 L 32.992188 2.433594 L 33.410156 3.183594 C 33.457031 3.269531 33.546875 3.324219 33.644531 3.328125 C 33.648438 3.328125 33.652344 3.328125 33.65625 3.328125 C 33.753906 3.328125 33.84375 3.28125 33.894531 3.203125 L 35.296875 1.121094 C 35.359375 1.03125 35.363281 0.917969 35.3125 0.820312 C 35.257812 0.726562 35.15625 0.671875 35.050781 0.675781 L 32.542969 0.773438 C 32.441406 0.777344 32.351562 0.832031 32.304688 0.917969 C 32.253906 1.003906 32.253906 1.109375 32.304688 1.199219 L 32.714844 1.933594 L 28.359375 4.199219 C 28.277344 4.242188 28.191406 4.261719 28.097656 4.261719 C 27.882812 4.261719 27.691406 4.144531 27.597656 3.953125 C 27.453125 3.671875 27.210938 3.46875 26.910156 3.378906 C 26.609375 3.289062 26.296875 3.324219 26.027344 3.476562 L 19.101562 7.363281 C 18.964844 7.441406 18.914062 7.613281 18.992188 7.753906 C 19.046875 7.847656 19.140625 7.898438 19.242188 7.898438 C 19.289062 7.898438 19.335938 7.886719 19.382812 7.863281 L 26.308594 3.972656 C 26.441406 3.898438 26.59375 3.878906 26.742188 3.925781 Z M 26.742188 3.925781 " fill-opacity="1" fill-rule="nonzero"/></g></svg>