<svg xmlns="http://www.w3.org/2000/svg" xmlns:xlink="http://www.w3.org/1999/xlink" width="100" zoomAndPan="magnify" viewBox="0 0 75 74.999997" height="100" preserveAspectRatio="xMidYMid meet" version="1.0"><defs><clipPath id="id1"><path d="M 7.5 1.703125 L 67.5 1.703125 L 67.5 72.953125 L 7.5 72.953125 Z M 7.5 1.703125 " clip-rule="nonzero"/></clipPath></defs><path fill="#560216" d="M 19.507812 11.203125 C 18.847656 11.203125 18.308594 11.738281 18.308594 12.390625 C 18.308594 13.042969 18.847656 13.578125 19.507812 13.578125 L 21.90625 13.578125 C 22.566406 13.578125 23.105469 13.042969 23.105469 12.390625 C 23.105469 11.738281 22.566406 11.203125 21.90625 11.203125 L 19.507812 11.203125 " fill-opacity="1" fill-rule="nonzero"/><path fill="#560216" d="M 27.902344 13.578125 L 47.097656 13.578125 C 47.757812 13.578125 48.296875 13.042969 48.296875 12.390625 C 48.296875 11.738281 47.757812 11.203125 47.097656 11.203125 L 27.902344 11.203125 C 27.242188 11.203125 26.703125 11.738281 26.703125 12.390625 C 26.703125 13.042969 27.242188 13.578125 27.902344 13.578125 " fill-opacity="1" fill-rule="nonzero"/><path fill="#560216" d="M 51.894531 13.578125 L 55.492188 13.578125 C 56.152344 13.578125 56.691406 13.042969 56.691406 12.390625 C 56.691406 11.738281 56.152344 11.203125 55.492188 11.203125 L 51.894531 11.203125 C 51.234375 11.203125 50.695312 11.738281 50.695312 12.390625 C 50.695312 13.042969 51.234375 13.578125 51.894531 13.578125 " fill-opacity="1" fill-rule="nonzero"/><path fill="#560216" d="M 19.507812 18.328125 L 38.699219 18.328125 C 39.359375 18.328125 39.898438 17.792969 39.898438 17.140625 C 39.898438 16.488281 39.359375 15.953125 38.699219 15.953125 L 19.507812 15.953125 C 18.847656 15.953125 18.308594 16.488281 18.308594 17.140625 C 18.308594 17.792969 18.847656 18.328125 19.507812 18.328125 " fill-opacity="1" fill-rule="nonzero"/><path fill="#560216" d="M 55.492188 15.953125 L 43.496094 15.953125 C 42.835938 15.953125 42.296875 16.488281 42.296875 17.140625 C 42.296875 17.792969 42.835938 18.328125 43.496094 18.328125 L 55.492188 18.328125 C 56.152344 18.328125 56.691406 17.792969 56.691406 17.140625 C 56.691406 16.488281 56.152344 15.953125 55.492188 15.953125 " fill-opacity="1" fill-rule="nonzero"/><path fill="#560216" d="M 21.90625 7.640625 C 21.90625 6.988281 21.367188 6.453125 20.707031 6.453125 L 13.511719 6.453125 C 12.847656 6.453125 12.3125 6.988281 12.3125 7.640625 L 12.3125 14.765625 C 12.3125 15.417969 12.847656 15.953125 13.511719 15.953125 C 14.171875 15.953125 14.710938 15.417969 14.710938 14.765625 L 14.710938 8.828125 L 20.707031 8.828125 C 21.367188 8.828125 21.90625 8.292969 21.90625 7.640625 " fill-opacity="1" fill-rule="nonzero"/><path fill="#560216" d="M 54.292969 8.828125 L 60.289062 8.828125 L 60.289062 14.765625 C 60.289062 15.417969 60.828125 15.953125 61.488281 15.953125 C 62.152344 15.953125 62.6875 15.417969 62.6875 14.765625 L 62.6875 7.640625 C 62.6875 6.988281 62.152344 6.453125 61.488281 6.453125 L 54.292969 6.453125 C 53.632812 6.453125 53.09375 6.988281 53.09375 7.640625 C 53.09375 8.292969 53.632812 8.828125 54.292969 8.828125 " fill-opacity="1" fill-rule="nonzero"/><path fill="#560216" d="M 55.492188 20.703125 L 19.507812 20.703125 C 18.847656 20.703125 18.308594 21.238281 18.308594 21.890625 C 18.308594 22.542969 18.847656 23.078125 19.507812 23.078125 L 55.492188 23.078125 C 56.152344 23.078125 56.691406 22.542969 56.691406 21.890625 C 56.691406 21.238281 56.152344 20.703125 55.492188 20.703125 " fill-opacity="1" fill-rule="nonzero"/><path fill="#560216" d="M 19.507812 29.015625 L 30.304688 29.015625 C 30.964844 29.015625 31.503906 28.480469 31.503906 27.828125 C 31.503906 27.175781 30.964844 26.640625 30.304688 26.640625 L 19.507812 26.640625 C 18.847656 26.640625 18.308594 27.175781 18.308594 27.828125 C 18.308594 28.480469 18.847656 29.015625 19.507812 29.015625 " fill-opacity="1" fill-rule="nonzero"/><path fill="#560216" d="M 55.492188 26.640625 L 35.101562 26.640625 C 34.441406 26.640625 33.902344 27.175781 33.902344 27.828125 C 33.902344 28.480469 34.441406 29.015625 35.101562 29.015625 L 55.492188 29.015625 C 56.152344 29.015625 56.691406 28.480469 56.691406 27.828125 C 56.691406 27.175781 56.152344 26.640625 55.492188 26.640625 " fill-opacity="1" fill-rule="nonzero"/><path fill="#560216" d="M 37.5 32.578125 C 37.5 31.925781 36.960938 31.390625 36.300781 31.390625 L 19.507812 31.390625 C 18.847656 31.390625 18.308594 31.925781 18.308594 32.578125 C 18.308594 33.230469 18.847656 33.765625 19.507812 33.765625 L 36.300781 33.765625 C 36.960938 33.765625 37.5 33.230469 37.5 32.578125 " fill-opacity="1" fill-rule="nonzero"/><path fill="#560216" d="M 55.492188 31.390625 L 41.097656 31.390625 C 40.4375 31.390625 39.898438 31.925781 39.898438 32.578125 C 39.898438 33.230469 40.4375 33.765625 41.097656 33.765625 L 55.492188 33.765625 C 56.152344 33.765625 56.691406 33.230469 56.691406 32.578125 C 56.691406 31.925781 56.152344 31.390625 55.492188 31.390625 " fill-opacity="1" fill-rule="nonzero"/><path fill="#560216" d="M 19.507812 38.515625 C 18.847656 38.515625 18.308594 39.050781 18.308594 39.703125 C 18.308594 40.355469 18.847656 40.890625 19.507812 40.890625 L 25.503906 40.890625 C 26.164062 40.890625 26.703125 40.355469 26.703125 39.703125 C 26.703125 39.050781 26.164062 38.515625 25.503906 38.515625 L 19.507812 38.515625 " fill-opacity="1" fill-rule="nonzero"/><path fill="#560216" d="M 41.097656 38.515625 L 30.304688 38.515625 C 29.640625 38.515625 29.105469 39.050781 29.105469 39.703125 C 29.105469 40.355469 29.640625 40.890625 30.304688 40.890625 L 41.097656 40.890625 C 41.757812 40.890625 42.296875 40.355469 42.296875 39.703125 C 42.296875 39.050781 41.757812 38.515625 41.097656 38.515625 " fill-opacity="1" fill-rule="nonzero"/><path fill="#560216" d="M 18.289062 52.171875 C 18.269531 52.167969 18.261719 52.15625 18.246094 52.152344 C 17.554688 51.828125 17.117188 50.960938 17.140625 49.949219 C 17.152344 49.410156 17.347656 47.601562 19.414062 46.734375 C 19.609375 46.648438 19.757812 46.605469 19.855469 46.582031 C 19.992188 47.402344 19.359375 49.570312 18.289062 52.171875 Z M 38.699219 49.203125 C 38.105469 49.203125 37.835938 49.074219 37.53125 48.925781 C 35.765625 48.0625 34.832031 48.976562 32.152344 51.980469 C 31.042969 53.230469 30.425781 53.566406 30.191406 53.65625 C 30.109375 53.476562 30.039062 53.144531 30.023438 52.859375 C 30.167969 52.046875 30.480469 49.371094 28.742188 48.359375 C 26.839844 47.257812 24.210938 49.152344 22.398438 50.671875 C 21.960938 51.039062 21.542969 51.347656 21.132812 51.59375 C 22.660156 47.429688 22.328125 45.613281 21.601562 44.839844 C 21.109375 44.3125 20.167969 43.832031 18.472656 44.546875 C 16.222656 45.496094 14.792969 47.546875 14.742188 49.898438 C 14.699219 51.875 15.648438 53.558594 17.214844 54.296875 C 17.253906 54.316406 17.296875 54.332031 17.332031 54.351562 C 16.933594 55.214844 16.5 56.097656 16.046875 56.96875 C 15.742188 57.554688 15.964844 58.265625 16.554688 58.570312 C 16.734375 58.660156 16.921875 58.703125 17.109375 58.703125 C 17.539062 58.703125 17.960938 58.472656 18.171875 58.0625 C 18.835938 56.800781 19.398438 55.652344 19.878906 54.605469 C 20.992188 54.414062 22.359375 53.824219 23.953125 52.484375 C 26.652344 50.210938 27.503906 50.398438 27.523438 50.40625 C 27.726562 50.582031 27.820312 51.621094 27.640625 52.539062 C 27.628906 52.613281 27.621094 52.6875 27.621094 52.765625 C 27.621094 53.1875 27.703125 55.328125 29.308594 55.929688 C 31.007812 56.558594 32.773438 54.875 33.953125 53.550781 C 34.445312 53.003906 35.859375 51.414062 36.421875 51.03125 C 36.441406 51.039062 36.457031 51.042969 36.46875 51.054688 C 36.871094 51.25 37.542969 51.578125 38.699219 51.578125 C 39.359375 51.578125 39.898438 51.042969 39.898438 50.390625 C 39.898438 49.738281 39.359375 49.203125 38.699219 49.203125 " fill-opacity="1" fill-rule="nonzero"/><g clip-path="url(#id1)"><path fill="#560216" d="M 9.910156 4.078125 L 65.089844 4.078125 L 65.089844 63.453125 L 62.023438 63.453125 L 59.679688 57.277344 C 61.527344 55.542969 62.6875 53.105469 62.6875 50.390625 C 62.6875 45.152344 58.382812 40.890625 53.09375 40.890625 C 47.804688 40.890625 43.496094 45.152344 43.496094 50.390625 C 43.496094 53.105469 44.660156 55.542969 46.503906 57.277344 L 44.164062 63.453125 L 9.910156 63.453125 Z M 57.527344 70.578125 L 54.378906 62.265625 L 55.378906 59.609375 C 56.191406 59.410156 56.957031 59.121094 57.671875 58.734375 L 62.15625 70.578125 Z M 45.894531 50.390625 C 45.894531 46.460938 49.125 43.265625 53.09375 43.265625 C 57.0625 43.265625 60.289062 46.460938 60.289062 50.390625 C 60.289062 54.320312 57.0625 57.515625 53.09375 57.515625 C 49.125 57.515625 45.894531 54.320312 45.894531 50.390625 Z M 48.660156 70.578125 L 44.03125 70.578125 L 48.515625 58.734375 C 49.769531 59.417969 51.199219 59.8125 52.71875 59.871094 Z M 8.710938 65.828125 L 43.261719 65.828125 L 41.171875 71.347656 C 41.039062 71.714844 41.089844 72.121094 41.308594 72.441406 C 41.535156 72.761719 41.90625 72.953125 42.296875 72.953125 L 49.496094 72.953125 C 49.996094 72.953125 50.441406 72.648438 50.621094 72.183594 L 53.09375 65.648438 L 55.566406 72.183594 C 55.746094 72.648438 56.191406 72.953125 56.691406 72.953125 L 63.890625 72.953125 C 64.28125 72.953125 64.652344 72.761719 64.878906 72.441406 C 65.097656 72.121094 65.148438 71.714844 65.011719 71.347656 L 62.921875 65.828125 L 66.289062 65.828125 C 66.949219 65.828125 67.488281 65.292969 67.488281 64.640625 L 67.488281 2.890625 C 67.488281 2.238281 66.949219 1.703125 66.289062 1.703125 L 8.710938 1.703125 C 8.050781 1.703125 7.511719 2.238281 7.511719 2.890625 L 7.511719 64.640625 C 7.511719 65.292969 8.050781 65.828125 8.710938 65.828125 " fill-opacity="1" fill-rule="nonzero"/></g></svg>