<svg xmlns="http://www.w3.org/2000/svg" xmlns:xlink="http://www.w3.org/1999/xlink" width="50" zoomAndPan="magnify" viewBox="0 0 37.5 37.499999" height="50" preserveAspectRatio="xMidYMid meet" version="1.0"><defs><clipPath id="id1"><path d="M 0 0 L 37.007812 0 L 37.007812 37.007812 L 0 37.007812 Z M 0 0 " clip-rule="nonzero"/></clipPath><clipPath id="id2"><path d="M 6.441406 0.445312 L 31.191406 0.445312 L 31.191406 37.007812 L 6.441406 37.007812 Z M 6.441406 0.445312 " clip-rule="nonzero"/></clipPath></defs><g clip-path="url(#id1)"><path fill="#ffffff" d="M 0 0 L 37.5 0 L 37.5 37.5 L 0 37.5 Z M 0 0 " fill-opacity="1" fill-rule="nonzero"/><path fill="#ffffff" d="M 0 0 L 37.5 0 L 37.5 37.5 L 0 37.5 Z M 0 0 " fill-opacity="1" fill-rule="nonzero"/><path fill="#ffffff" d="M 0 0 L 37.5 0 L 37.5 37.5 L 0 37.5 Z M 0 0 " fill-opacity="1" fill-rule="nonzero"/></g><path fill="#560216" d="M 26.867188 18.246094 L 11.335938 18.246094 C 11.019531 18.246094 10.761719 18.503906 10.761719 18.820312 C 10.761719 19.136719 11.019531 19.394531 11.335938 19.394531 L 26.867188 19.394531 C 27.183594 19.394531 27.445312 19.136719 27.445312 18.820312 C 27.445312 18.503906 27.183594 18.246094 26.867188 18.246094 Z M 26.867188 18.246094 " fill-opacity="1" fill-rule="nonzero"/><path fill="#560216" d="M 27.445312 21.117188 C 27.445312 20.800781 27.183594 20.542969 26.867188 20.542969 L 11.335938 20.542969 C 11.019531 20.542969 10.761719 20.800781 10.761719 21.117188 C 10.761719 21.433594 11.019531 21.691406 11.335938 21.691406 L 26.867188 21.691406 C 27.183594 21.691406 27.445312 21.433594 27.445312 21.117188 Z M 27.445312 21.117188 " fill-opacity="1" fill-rule="nonzero"/><path fill="#560216" d="M 22.4375 22.839844 L 11.335938 22.839844 C 11.019531 22.839844 10.761719 23.097656 10.761719 23.414062 C 10.761719 23.730469 11.019531 23.988281 11.335938 23.988281 L 20.828125 23.988281 C 21.289062 23.527344 21.835938 23.15625 22.4375 22.839844 Z M 22.4375 22.839844 " fill-opacity="1" fill-rule="nonzero"/><g clip-path="url(#id2)"><path fill="#560216" d="M 31.183594 8.800781 L 21.777344 0.445312 L 8.171875 0.445312 C 7.222656 0.445312 6.445312 1.21875 6.445312 2.167969 L 6.445312 35.472656 C 6.445312 36.421875 7.222656 37.195312 8.171875 37.195312 L 29.457031 37.195312 C 30.40625 37.195312 31.183594 36.421875 31.183594 35.472656 L 31.183594 31.96875 C 30.867188 32.515625 30.492188 33.003906 30.035156 33.460938 L 30.035156 35.472656 C 30.035156 35.789062 29.773438 36.046875 29.457031 36.046875 L 8.171875 36.046875 C 7.855469 36.046875 7.597656 35.789062 7.597656 35.472656 L 7.597656 2.167969 C 7.597656 1.851562 7.855469 1.59375 8.171875 1.59375 L 21.117188 1.59375 L 21.117188 7.910156 C 21.117188 8.859375 21.894531 9.632812 22.84375 9.632812 L 30.035156 9.632812 L 30.035156 23.988281 C 30.492188 24.417969 30.867188 24.9375 31.183594 25.480469 Z M 22.84375 8.484375 C 22.527344 8.484375 22.265625 8.226562 22.265625 7.910156 L 22.265625 2.425781 L 29.027344 8.484375 Z M 22.84375 8.484375 " fill-opacity="1" fill-rule="nonzero"/></g><path fill="#560216" d="M 25.429688 34.179688 C 28.449219 34.179688 30.894531 31.738281 30.894531 28.726562 C 30.894531 25.710938 28.449219 23.269531 25.429688 23.269531 C 22.410156 23.269531 19.964844 25.710938 19.964844 28.726562 C 19.964844 31.738281 22.410156 34.179688 25.429688 34.179688 Z M 25.429688 24.417969 C 27.816406 24.417969 29.746094 26.34375 29.746094 28.726562 C 29.746094 31.109375 27.816406 33.03125 25.429688 33.03125 C 23.042969 33.03125 21.117188 31.109375 21.117188 28.726562 C 21.117188 26.34375 23.042969 24.417969 25.429688 24.417969 Z M 25.429688 24.417969 " fill-opacity="1" fill-rule="nonzero"/><path fill="#560216" d="M 13.753906 10.808594 L 13.40625 13.25 C 13.320312 13.625 13.492188 14.027344 13.839844 14.226562 L 14.472656 14.714844 L 14.527344 14.742188 C 14.703125 14.859375 14.902344 14.886719 15.105469 14.886719 C 15.304688 14.886719 15.507812 14.828125 15.679688 14.742188 L 16.371094 14.226562 C 16.714844 13.996094 16.886719 13.59375 16.773438 13.222656 L 16.371094 10.808594 C 16.023438 10.925781 15.621094 11.011719 15.25 11.011719 L 15.652344 13.308594 L 15.074219 13.765625 L 14.558594 13.363281 L 14.875 11.066406 C 14.472656 11.039062 14.097656 10.953125 13.753906 10.808594 Z M 13.753906 10.808594 " fill-opacity="1" fill-rule="nonzero"/><path fill="#560216" d="M 12.171875 9.691406 C 10.617188 10.550781 9.609375 12.246094 9.609375 14.253906 L 9.609375 14.800781 C 9.609375 15.117188 9.871094 15.375 10.1875 15.375 C 10.503906 15.375 10.761719 15.117188 10.761719 14.800781 L 10.761719 14.253906 C 10.761719 12.503906 11.710938 11.097656 13.089844 10.523438 C 12.746094 10.292969 12.429688 10.007812 12.171875 9.691406 Z M 12.171875 9.691406 " fill-opacity="1" fill-rule="nonzero"/><path fill="#560216" d="M 17.980469 9.691406 C 17.722656 10.007812 17.40625 10.292969 17.058594 10.492188 C 18.46875 11.066406 19.390625 12.503906 19.390625 14.226562 L 19.390625 14.800781 C 19.390625 15.117188 19.648438 15.375 19.964844 15.375 C 20.28125 15.375 20.539062 15.117188 20.539062 14.800781 L 20.539062 14.253906 C 20.539062 12.246094 19.503906 10.550781 17.980469 9.691406 Z M 17.980469 9.691406 " fill-opacity="1" fill-rule="nonzero"/><path fill="#560216" d="M 15.074219 4.75 C 13.636719 4.75 12.488281 5.898438 12.488281 7.335938 C 12.488281 8.769531 13.636719 9.917969 15.074219 9.917969 C 16.515625 9.917969 17.664062 8.769531 17.664062 7.335938 C 17.664062 5.898438 16.515625 4.75 15.074219 4.75 Z M 15.074219 8.769531 C 14.269531 8.769531 13.636719 8.140625 13.636719 7.335938 C 13.636719 6.53125 14.269531 5.898438 15.074219 5.898438 C 15.882812 5.898438 16.515625 6.53125 16.515625 7.335938 C 16.515625 8.140625 15.882812 8.769531 15.074219 8.769531 Z M 15.074219 8.769531 " fill-opacity="1" fill-rule="nonzero"/><path fill="#560216" d="M 19.878906 25.136719 L 11.335938 25.136719 C 11.019531 25.136719 10.761719 25.394531 10.761719 25.710938 C 10.761719 26.027344 11.019531 26.285156 11.335938 26.285156 L 19.273438 26.285156 C 19.449219 25.882812 19.648438 25.511719 19.878906 25.136719 Z M 19.878906 25.136719 " fill-opacity="1" fill-rule="nonzero"/><path fill="#560216" d="M 11.335938 28.582031 L 18.816406 28.582031 C 18.816406 28.179688 18.871094 27.808594 18.929688 27.433594 L 11.335938 27.433594 C 11.019531 27.433594 10.761719 27.691406 10.761719 28.007812 C 10.761719 28.324219 11.019531 28.582031 11.335938 28.582031 Z M 11.335938 28.582031 " fill-opacity="1" fill-rule="nonzero"/><path fill="#560216" d="M 11.335938 30.878906 L 19.1875 30.878906 C 19.074219 30.503906 18.957031 30.132812 18.902344 29.730469 L 11.335938 29.730469 C 11.019531 29.730469 10.761719 29.988281 10.761719 30.304688 C 10.761719 30.621094 11.019531 30.878906 11.335938 30.878906 Z M 11.335938 30.878906 " fill-opacity="1" fill-rule="nonzero"/><path fill="#560216" d="M 11.335938 33.175781 L 20.539062 33.175781 C 20.222656 32.832031 19.9375 32.429688 19.707031 32.027344 L 11.335938 32.027344 C 11.019531 32.027344 10.761719 32.285156 10.761719 32.601562 C 10.761719 32.917969 11.019531 33.175781 11.335938 33.175781 Z M 11.335938 33.175781 " fill-opacity="1" fill-rule="nonzero"/><path fill="#560216" d="M 24.136719 30.21875 C 24.222656 30.332031 24.367188 30.417969 24.539062 30.449219 C 24.566406 30.449219 24.597656 30.449219 24.597656 30.449219 C 24.742188 30.449219 24.855469 30.390625 24.96875 30.332031 L 27.816406 28.035156 C 28.078125 27.835938 28.105469 27.460938 27.90625 27.234375 C 27.703125 26.972656 27.328125 26.945312 27.097656 27.144531 L 24.710938 29.070312 L 23.878906 28.007812 C 23.675781 27.75 23.332031 27.71875 23.070312 27.894531 C 22.8125 28.09375 22.785156 28.4375 22.957031 28.695312 Z M 24.136719 30.21875 " fill-opacity="1" fill-rule="nonzero"/></svg>