<svg xmlns="http://www.w3.org/2000/svg" xmlns:xlink="http://www.w3.org/1999/xlink" width="100" zoomAndPan="magnify" viewBox="0 0 75 74.999997" height="100" preserveAspectRatio="xMidYMid meet" version="1.0"><defs><clipPath id="id1"><path d="M 1.1875 1.1875 L 73.9375 1.1875 L 73.9375 73.9375 L 1.1875 73.9375 Z M 1.1875 1.1875 " clip-rule="nonzero"/></clipPath></defs><path fill="#560216" d="M 13.90625 25.269531 C 14.324219 25.519531 14.742188 25.515625 15.160156 25.261719 C 15.429688 25.09375 21.800781 21.101562 21.800781 13.3125 C 21.800781 12.855469 21.605469 12.511719 21.210938 12.273438 L 15.148438 8.636719 C 14.734375 8.386719 14.320312 8.386719 13.902344 8.636719 L 7.839844 12.273438 C 7.449219 12.507812 7.253906 12.851562 7.25 13.308594 C 7.25 13.632812 7.285156 21.320312 13.90625 25.269531 Z M 14.527344 11.089844 L 19.355469 13.988281 C 19.078125 18.773438 15.867188 21.71875 14.5 22.765625 C 10.664062 20.078125 9.878906 15.636719 9.71875 13.976562 Z M 14.527344 11.089844 " fill-opacity="1" fill-rule="nonzero"/><path fill="#560216" d="M 7.25 31.5 L 41.203125 31.5 C 41.363281 31.5 41.515625 31.472656 41.664062 31.410156 C 41.8125 31.347656 41.945312 31.261719 42.058594 31.144531 C 42.171875 31.03125 42.261719 30.902344 42.320312 30.753906 C 42.382812 30.605469 42.414062 30.449219 42.414062 30.289062 C 42.414062 30.128906 42.382812 29.972656 42.320312 29.824219 C 42.261719 29.675781 42.171875 29.546875 42.058594 29.433594 C 41.945312 29.316406 41.8125 29.230469 41.664062 29.167969 C 41.515625 29.105469 41.363281 29.078125 41.203125 29.078125 L 7.25 29.078125 C 7.089844 29.078125 6.9375 29.105469 6.789062 29.167969 C 6.640625 29.230469 6.507812 29.316406 6.394531 29.433594 C 6.28125 29.546875 6.191406 29.675781 6.132812 29.824219 C 6.070312 29.972656 6.039062 30.128906 6.039062 30.289062 C 6.039062 30.449219 6.070312 30.605469 6.132812 30.753906 C 6.191406 30.902344 6.28125 31.03125 6.394531 31.144531 C 6.507812 31.261719 6.640625 31.347656 6.789062 31.410156 C 6.9375 31.472656 7.089844 31.5 7.25 31.5 Z M 7.25 31.5 " fill-opacity="1" fill-rule="nonzero"/><path fill="#560216" d="M 7.25 36.351562 L 44.839844 36.351562 C 45 36.351562 45.15625 36.320312 45.304688 36.257812 C 45.453125 36.199219 45.582031 36.109375 45.695312 35.996094 C 45.808594 35.882812 45.898438 35.75 45.960938 35.601562 C 46.019531 35.453125 46.050781 35.300781 46.050781 35.140625 C 46.050781 34.976562 46.019531 34.824219 45.960938 34.675781 C 45.898438 34.527344 45.808594 34.394531 45.695312 34.28125 C 45.582031 34.167969 45.453125 34.082031 45.304688 34.019531 C 45.15625 33.957031 45 33.925781 44.839844 33.925781 L 7.25 33.925781 C 7.089844 33.925781 6.9375 33.957031 6.789062 34.019531 C 6.640625 34.082031 6.507812 34.167969 6.394531 34.28125 C 6.28125 34.394531 6.191406 34.527344 6.132812 34.675781 C 6.070312 34.824219 6.039062 34.976562 6.039062 35.140625 C 6.039062 35.300781 6.070312 35.453125 6.132812 35.601562 C 6.191406 35.75 6.28125 35.882812 6.394531 35.996094 C 6.507812 36.109375 6.640625 36.199219 6.789062 36.257812 C 6.9375 36.320312 7.089844 36.351562 7.25 36.351562 Z M 7.25 36.351562 " fill-opacity="1" fill-rule="nonzero"/><path fill="#560216" d="M 7.25 41.203125 L 44.839844 41.203125 C 45 41.203125 45.15625 41.171875 45.304688 41.109375 C 45.453125 41.046875 45.582031 40.960938 45.695312 40.847656 C 45.808594 40.734375 45.898438 40.601562 45.960938 40.453125 C 46.019531 40.304688 46.050781 40.148438 46.050781 39.988281 C 46.050781 39.828125 46.019531 39.671875 45.960938 39.523438 C 45.898438 39.375 45.808594 39.246094 45.695312 39.132812 C 45.582031 39.019531 45.453125 38.929688 45.304688 38.867188 C 45.15625 38.808594 45 38.777344 44.839844 38.777344 L 7.25 38.777344 C 7.089844 38.777344 6.9375 38.808594 6.789062 38.867188 C 6.640625 38.929688 6.507812 39.019531 6.394531 39.132812 C 6.28125 39.246094 6.191406 39.375 6.132812 39.523438 C 6.070312 39.671875 6.039062 39.828125 6.039062 39.988281 C 6.039062 40.148438 6.070312 40.304688 6.132812 40.453125 C 6.191406 40.601562 6.28125 40.734375 6.394531 40.847656 C 6.507812 40.960938 6.640625 41.046875 6.789062 41.109375 C 6.9375 41.171875 7.089844 41.203125 7.25 41.203125 Z M 7.25 41.203125 " fill-opacity="1" fill-rule="nonzero"/><path fill="#560216" d="M 41.203125 43.625 L 7.25 43.625 C 7.089844 43.625 6.9375 43.65625 6.789062 43.71875 C 6.640625 43.78125 6.507812 43.867188 6.394531 43.980469 C 6.28125 44.09375 6.191406 44.226562 6.132812 44.375 C 6.070312 44.523438 6.039062 44.679688 6.039062 44.839844 C 6.039062 45 6.070312 45.15625 6.132812 45.304688 C 6.191406 45.453125 6.28125 45.582031 6.394531 45.695312 C 6.507812 45.808594 6.640625 45.898438 6.789062 45.960938 C 6.9375 46.019531 7.089844 46.050781 7.25 46.050781 L 41.203125 46.050781 C 41.363281 46.050781 41.515625 46.019531 41.664062 45.960938 C 41.8125 45.898438 41.945312 45.808594 42.058594 45.695312 C 42.171875 45.582031 42.261719 45.453125 42.320312 45.304688 C 42.382812 45.15625 42.414062 45 42.414062 44.839844 C 42.414062 44.679688 42.382812 44.523438 42.320312 44.375 C 42.261719 44.226562 42.171875 44.09375 42.058594 43.980469 C 41.945312 43.867188 41.8125 43.78125 41.664062 43.71875 C 41.515625 43.65625 41.363281 43.625 41.203125 43.625 Z M 41.203125 43.625 " fill-opacity="1" fill-rule="nonzero"/><path fill="#560216" d="M 41.203125 48.476562 L 7.25 48.476562 C 7.089844 48.476562 6.9375 48.507812 6.789062 48.570312 C 6.640625 48.628906 6.507812 48.71875 6.394531 48.832031 C 6.28125 48.945312 6.191406 49.078125 6.132812 49.226562 C 6.070312 49.375 6.039062 49.527344 6.039062 49.6875 C 6.039062 49.851562 6.070312 50.003906 6.132812 50.152344 C 6.191406 50.300781 6.28125 50.433594 6.394531 50.546875 C 6.507812 50.660156 6.640625 50.746094 6.789062 50.808594 C 6.9375 50.871094 7.089844 50.902344 7.25 50.902344 L 41.203125 50.902344 C 41.363281 50.902344 41.515625 50.871094 41.664062 50.808594 C 41.8125 50.746094 41.945312 50.660156 42.058594 50.546875 C 42.171875 50.433594 42.261719 50.300781 42.320312 50.152344 C 42.382812 50.003906 42.414062 49.851562 42.414062 49.6875 C 42.414062 49.527344 42.382812 49.375 42.320312 49.226562 C 42.261719 49.078125 42.171875 48.945312 42.058594 48.832031 C 41.945312 48.71875 41.8125 48.628906 41.664062 48.570312 C 41.515625 48.507812 41.363281 48.476562 41.203125 48.476562 Z M 41.203125 48.476562 " fill-opacity="1" fill-rule="nonzero"/><path fill="#560216" d="M 31.5 56.964844 L 21.464844 56.964844 L 20.527344 54.15625 C 20.496094 54.058594 20.449219 53.964844 20.394531 53.878906 C 20.335938 53.792969 20.269531 53.714844 20.195312 53.644531 C 20.117188 53.574219 20.035156 53.515625 19.941406 53.46875 C 19.851562 53.417969 19.753906 53.382812 19.65625 53.359375 C 19.554688 53.335938 19.453125 53.324219 19.347656 53.328125 C 19.246094 53.328125 19.144531 53.34375 19.046875 53.371094 C 18.945312 53.402344 18.851562 53.441406 18.761719 53.492188 C 18.671875 53.546875 18.59375 53.609375 18.519531 53.679688 L 16.070312 56.128906 L 15.609375 55.210938 C 15.53125 55.054688 15.425781 54.921875 15.292969 54.8125 C 15.15625 54.703125 15.003906 54.625 14.835938 54.582031 C 14.667969 54.535156 14.5 54.527344 14.328125 54.554688 C 14.15625 54.585938 14 54.648438 13.855469 54.742188 L 10.523438 56.964844 L 7.25 56.964844 C 7.089844 56.964844 6.9375 56.996094 6.789062 57.054688 C 6.640625 57.117188 6.507812 57.207031 6.394531 57.320312 C 6.28125 57.433594 6.191406 57.5625 6.132812 57.710938 C 6.070312 57.859375 6.039062 58.015625 6.039062 58.175781 C 6.039062 58.335938 6.070312 58.492188 6.132812 58.640625 C 6.191406 58.789062 6.28125 58.921875 6.394531 59.035156 C 6.507812 59.148438 6.640625 59.234375 6.789062 59.296875 C 6.9375 59.359375 7.089844 59.390625 7.25 59.390625 L 10.890625 59.390625 C 11.132812 59.390625 11.359375 59.320312 11.5625 59.183594 L 14.058594 57.523438 L 14.65625 58.71875 C 14.839844 59.089844 15.136719 59.308594 15.546875 59.375 C 15.609375 59.382812 15.675781 59.390625 15.738281 59.390625 C 16.074219 59.390625 16.359375 59.269531 16.597656 59.035156 L 18.847656 56.785156 L 19.4375 58.558594 C 19.519531 58.808594 19.667969 59.007812 19.878906 59.160156 C 20.089844 59.3125 20.328125 59.390625 20.589844 59.390625 L 31.5 59.390625 C 31.664062 59.390625 31.816406 59.359375 31.964844 59.296875 C 32.113281 59.234375 32.246094 59.148438 32.359375 59.035156 C 32.472656 58.921875 32.558594 58.789062 32.621094 58.640625 C 32.683594 58.492188 32.714844 58.335938 32.714844 58.175781 C 32.714844 58.015625 32.683594 57.859375 32.621094 57.710938 C 32.558594 57.5625 32.472656 57.433594 32.359375 57.320312 C 32.246094 57.207031 32.113281 57.117188 31.964844 57.054688 C 31.816406 56.996094 31.664062 56.964844 31.5 56.964844 Z M 31.5 56.964844 " fill-opacity="1" fill-rule="nonzero"/><g clip-path="url(#id1)"><path fill="#560216" d="M 64.90625 38.941406 L 68.960938 30.832031 C 69.007812 30.738281 69.042969 30.640625 69.0625 30.542969 C 69.085938 30.441406 69.09375 30.335938 69.089844 30.234375 C 69.082031 30.132812 69.066406 30.03125 69.035156 29.929688 C 69.003906 29.832031 68.960938 29.738281 68.90625 29.652344 C 68.855469 29.5625 68.789062 29.484375 68.714844 29.414062 C 68.640625 29.339844 68.558594 29.28125 68.46875 29.230469 C 68.375 29.179688 68.28125 29.140625 68.179688 29.117188 C 68.082031 29.089844 67.980469 29.078125 67.875 29.078125 L 50.902344 29.078125 L 50.902344 27.808594 C 51.746094 27.730469 52.578125 27.574219 53.394531 27.335938 C 54.210938 27.101562 55 26.789062 55.757812 26.402344 C 56.511719 26.015625 57.226562 25.558594 57.894531 25.035156 C 58.566406 24.511719 59.179688 23.929688 59.738281 23.289062 C 60.296875 22.648438 60.789062 21.960938 61.21875 21.226562 C 61.644531 20.492188 61.996094 19.722656 62.277344 18.921875 C 62.558594 18.117188 62.757812 17.296875 62.882812 16.453125 C 63.003906 15.613281 63.046875 14.769531 63.007812 13.917969 C 62.96875 13.070312 62.851562 12.234375 62.652344 11.40625 C 62.453125 10.578125 62.179688 9.78125 61.824219 9.007812 C 61.472656 8.230469 61.050781 7.5 60.558594 6.804688 C 60.066406 6.113281 59.515625 5.472656 58.898438 4.886719 C 58.285156 4.296875 57.621094 3.773438 56.90625 3.3125 C 56.191406 2.851562 55.441406 2.464844 54.652344 2.148438 C 53.863281 1.832031 53.050781 1.59375 52.214844 1.429688 C 51.382812 1.269531 50.539062 1.1875 49.6875 1.1875 L 2.402344 1.1875 C 2.242188 1.1875 2.085938 1.21875 1.9375 1.28125 C 1.789062 1.34375 1.65625 1.429688 1.542969 1.542969 C 1.429688 1.65625 1.34375 1.789062 1.28125 1.9375 C 1.21875 2.085938 1.1875 2.242188 1.1875 2.402344 L 1.1875 72.726562 C 1.1875 72.886719 1.21875 73.042969 1.28125 73.191406 C 1.34375 73.339844 1.429688 73.46875 1.542969 73.582031 C 1.65625 73.699219 1.789062 73.785156 1.9375 73.847656 C 2.085938 73.910156 2.242188 73.9375 2.402344 73.9375 L 72.726562 73.9375 C 72.886719 73.9375 73.042969 73.910156 73.191406 73.847656 C 73.339844 73.785156 73.46875 73.699219 73.582031 73.582031 C 73.699219 73.46875 73.785156 73.339844 73.847656 73.191406 C 73.910156 73.042969 73.9375 72.886719 73.9375 72.726562 L 73.9375 49.6875 C 73.9375 49.050781 73.882812 48.421875 73.769531 47.792969 C 73.660156 47.167969 73.496094 46.554688 73.277344 45.957031 C 73.058594 45.355469 72.789062 44.78125 72.46875 44.230469 C 72.152344 43.679688 71.785156 43.160156 71.375 42.671875 C 70.96875 42.183594 70.519531 41.738281 70.03125 41.328125 C 69.542969 40.917969 69.023438 40.554688 68.46875 40.238281 C 67.917969 39.917969 67.34375 39.652344 66.746094 39.433594 C 66.144531 39.214844 65.53125 39.050781 64.90625 38.941406 Z M 65.914062 31.5 L 62.277344 38.777344 L 56.5 38.777344 L 52.863281 31.5 Z M 53.871094 38.941406 C 52.835938 39.121094 51.84375 39.449219 50.902344 39.917969 L 50.902344 33 Z M 60.601562 14.527344 C 60.601562 15.242188 60.53125 15.953125 60.390625 16.65625 C 60.253906 17.359375 60.046875 18.039062 59.769531 18.703125 C 59.496094 19.363281 59.160156 19.992188 58.761719 20.589844 C 58.363281 21.183594 57.910156 21.734375 57.40625 22.242188 C 56.898438 22.75 56.347656 23.203125 55.75 23.601562 C 55.15625 23.996094 54.527344 24.335938 53.863281 24.609375 C 53.203125 24.882812 52.519531 25.089844 51.816406 25.230469 C 51.113281 25.367188 50.40625 25.4375 49.6875 25.4375 C 48.972656 25.4375 48.261719 25.367188 47.558594 25.230469 C 46.855469 25.089844 46.175781 24.882812 45.511719 24.609375 C 44.851562 24.335938 44.222656 23.996094 43.625 23.601562 C 43.03125 23.203125 42.480469 22.75 41.972656 22.242188 C 41.464844 21.734375 41.015625 21.183594 40.617188 20.589844 C 40.21875 19.992188 39.882812 19.363281 39.605469 18.703125 C 39.332031 18.039062 39.125 17.359375 38.984375 16.65625 C 38.847656 15.953125 38.777344 15.242188 38.777344 14.527344 C 38.777344 13.808594 38.847656 13.101562 38.984375 12.398438 C 39.125 11.695312 39.332031 11.011719 39.605469 10.351562 C 39.882812 9.6875 40.21875 9.058594 40.617188 8.464844 C 41.015625 7.867188 41.464844 7.316406 41.972656 6.808594 C 42.480469 6.304688 43.03125 5.851562 43.625 5.453125 C 44.222656 5.054688 44.851562 4.71875 45.511719 4.445312 C 46.175781 4.171875 46.855469 3.964844 47.558594 3.824219 C 48.261719 3.683594 48.972656 3.613281 49.6875 3.613281 C 50.40625 3.613281 51.113281 3.683594 51.816406 3.824219 C 52.519531 3.964844 53.203125 4.171875 53.863281 4.449219 C 54.523438 4.722656 55.152344 5.058594 55.75 5.457031 C 56.34375 5.855469 56.894531 6.308594 57.402344 6.8125 C 57.910156 7.320312 58.359375 7.871094 58.757812 8.464844 C 59.15625 9.0625 59.492188 9.691406 59.769531 10.351562 C 60.042969 11.015625 60.25 11.695312 60.390625 12.398438 C 60.53125 13.101562 60.601562 13.808594 60.601562 14.527344 Z M 37.5625 58.175781 L 37.5625 71.515625 L 3.613281 71.515625 L 3.613281 3.613281 L 42.03125 3.613281 C 41.152344 4.230469 40.359375 4.9375 39.65625 5.746094 C 38.949219 6.550781 38.351562 7.429688 37.855469 8.378906 C 37.363281 9.328125 36.988281 10.320312 36.734375 11.363281 C 36.480469 12.402344 36.351562 13.457031 36.351562 14.527344 L 26.652344 14.527344 C 26.492188 14.527344 26.335938 14.558594 26.1875 14.617188 C 26.039062 14.679688 25.90625 14.769531 25.792969 14.882812 C 25.679688 14.996094 25.59375 15.125 25.53125 15.273438 C 25.46875 15.421875 25.4375 15.578125 25.4375 15.738281 C 25.4375 15.898438 25.46875 16.054688 25.53125 16.203125 C 25.59375 16.351562 25.679688 16.484375 25.792969 16.597656 C 25.90625 16.710938 26.039062 16.796875 26.1875 16.859375 C 26.335938 16.921875 26.492188 16.953125 26.652344 16.953125 L 36.574219 16.953125 C 36.726562 17.78125 36.957031 18.589844 37.265625 19.375 L 26.652344 19.375 C 26.492188 19.375 26.335938 19.40625 26.1875 19.46875 C 26.039062 19.53125 25.90625 19.617188 25.792969 19.730469 C 25.679688 19.84375 25.59375 19.976562 25.53125 20.125 C 25.46875 20.273438 25.4375 20.429688 25.4375 20.589844 C 25.4375 20.75 25.46875 20.90625 25.53125 21.054688 C 25.59375 21.203125 25.679688 21.332031 25.792969 21.445312 C 25.90625 21.558594 26.039062 21.648438 26.1875 21.710938 C 26.335938 21.769531 26.492188 21.800781 26.652344 21.800781 L 38.515625 21.800781 C 39.066406 22.644531 39.703125 23.417969 40.425781 24.117188 C 41.152344 24.816406 41.945312 25.425781 42.808594 25.945312 C 43.671875 26.46875 44.578125 26.882812 45.535156 27.199219 C 46.492188 27.511719 47.472656 27.714844 48.476562 27.808594 L 48.476562 41.5625 C 47.320312 42.597656 46.421875 43.820312 45.789062 45.238281 C 45.15625 46.652344 44.839844 48.136719 44.839844 49.6875 L 44.839844 56.964844 L 38.777344 56.964844 C 38.617188 56.964844 38.460938 56.996094 38.3125 57.054688 C 38.164062 57.117188 38.03125 57.207031 37.917969 57.320312 C 37.804688 57.433594 37.71875 57.5625 37.65625 57.710938 C 37.59375 57.859375 37.5625 58.015625 37.5625 58.175781 Z M 52.113281 71.515625 L 39.988281 71.515625 L 39.988281 69.089844 L 52.113281 69.089844 Z M 52.113281 66.664062 L 39.988281 66.664062 L 39.988281 64.238281 L 52.113281 64.238281 Z M 52.113281 61.8125 L 39.988281 61.8125 L 39.988281 59.390625 L 52.113281 59.390625 Z M 56.964844 71.515625 L 54.539062 71.515625 L 54.539062 59.390625 L 56.964844 59.390625 Z M 53.449219 56.964844 C 53.359375 56.523438 53.320312 56.078125 53.328125 55.628906 C 53.335938 55.179688 53.394531 54.738281 53.503906 54.300781 C 53.609375 53.863281 53.765625 53.445312 53.964844 53.042969 C 54.167969 52.640625 54.410156 52.265625 54.695312 51.917969 C 54.976562 51.570312 55.296875 51.257812 55.652344 50.980469 C 56.003906 50.703125 56.382812 50.46875 56.789062 50.277344 C 57.195312 50.082031 57.617188 49.9375 58.058594 49.839844 C 58.496094 49.738281 58.941406 49.691406 59.390625 49.691406 C 59.839844 49.691406 60.28125 49.738281 60.722656 49.839844 C 61.160156 49.9375 61.582031 50.082031 61.988281 50.277344 C 62.394531 50.46875 62.773438 50.703125 63.128906 50.980469 C 63.480469 51.257812 63.800781 51.570312 64.085938 51.917969 C 64.367188 52.265625 64.613281 52.640625 64.8125 53.042969 C 65.011719 53.445312 65.167969 53.863281 65.273438 54.300781 C 65.382812 54.738281 65.441406 55.179688 65.449219 55.628906 C 65.460938 56.078125 65.417969 56.523438 65.328125 56.964844 L 61.8125 56.964844 C 61.8125 56.640625 61.75 56.332031 61.628906 56.035156 C 61.503906 55.738281 61.332031 55.476562 61.101562 55.25 C 60.875 55.023438 60.613281 54.847656 60.316406 54.722656 C 60.019531 54.601562 59.710938 54.539062 59.390625 54.539062 L 60.601562 54.539062 C 60.761719 54.539062 60.917969 54.507812 61.066406 54.445312 C 61.214844 54.386719 61.34375 54.296875 61.457031 54.183594 C 61.574219 54.070312 61.660156 53.9375 61.722656 53.789062 C 61.785156 53.640625 61.8125 53.488281 61.8125 53.328125 C 61.8125 53.164062 61.785156 53.011719 61.722656 52.863281 C 61.660156 52.714844 61.574219 52.582031 61.457031 52.46875 C 61.34375 52.355469 61.214844 52.269531 61.066406 52.207031 C 60.917969 52.144531 60.761719 52.113281 60.601562 52.113281 L 59.390625 52.113281 C 59.066406 52.113281 58.757812 52.175781 58.460938 52.296875 C 58.164062 52.421875 57.902344 52.597656 57.675781 52.824219 C 57.445312 53.050781 57.273438 53.3125 57.148438 53.609375 C 57.027344 53.90625 56.964844 54.21875 56.964844 54.539062 C 56.964844 54.859375 57.027344 55.171875 57.148438 55.46875 C 57.273438 55.765625 57.445312 56.027344 57.675781 56.253906 C 57.902344 56.480469 58.164062 56.65625 58.460938 56.78125 C 58.757812 56.902344 59.066406 56.964844 59.390625 56.964844 Z M 71.515625 71.515625 L 59.390625 71.515625 L 59.390625 69.089844 L 71.515625 69.089844 Z M 71.515625 66.664062 L 59.390625 66.664062 L 59.390625 64.238281 L 71.515625 64.238281 Z M 71.515625 61.8125 L 59.390625 61.8125 L 59.390625 59.390625 L 71.515625 59.390625 Z M 71.515625 56.964844 L 67.789062 56.964844 C 67.875 56.363281 67.898438 55.757812 67.855469 55.148438 C 67.8125 54.542969 67.707031 53.945312 67.535156 53.363281 C 67.363281 52.777344 67.132812 52.21875 66.839844 51.683594 C 66.550781 51.148438 66.203125 50.652344 65.804688 50.191406 C 65.40625 49.730469 64.964844 49.320312 64.476562 48.953125 C 63.992188 48.589844 63.46875 48.28125 62.917969 48.027344 C 62.363281 47.773438 61.789062 47.582031 61.195312 47.453125 C 60.597656 47.324219 59.996094 47.257812 59.390625 47.257812 C 58.78125 47.257812 58.179688 47.324219 57.582031 47.453125 C 56.988281 47.582031 56.414062 47.773438 55.859375 48.027344 C 55.308594 48.28125 54.785156 48.589844 54.300781 48.953125 C 53.8125 49.320312 53.371094 49.730469 52.972656 50.191406 C 52.574219 50.652344 52.226562 51.148438 51.9375 51.683594 C 51.644531 52.21875 51.414062 52.777344 51.242188 53.363281 C 51.074219 53.945312 50.964844 54.542969 50.921875 55.148438 C 50.878906 55.757812 50.902344 56.363281 50.988281 56.964844 L 47.265625 56.964844 L 47.265625 49.6875 C 47.265625 49.132812 47.320312 48.582031 47.429688 48.035156 C 47.539062 47.488281 47.699219 46.957031 47.914062 46.441406 C 48.125 45.929688 48.386719 45.4375 48.699219 44.976562 C 49.007812 44.511719 49.359375 44.085938 49.753906 43.691406 C 50.148438 43.296875 50.574219 42.945312 51.039062 42.636719 C 51.5 42.324219 51.992188 42.0625 52.503906 41.851562 C 53.019531 41.636719 53.550781 41.476562 54.097656 41.367188 C 54.644531 41.257812 55.195312 41.203125 55.75 41.203125 L 63.027344 41.203125 C 63.582031 41.203125 64.136719 41.257812 64.683594 41.367188 C 65.226562 41.476562 65.757812 41.636719 66.273438 41.851562 C 66.789062 42.0625 67.277344 42.324219 67.738281 42.636719 C 68.203125 42.945312 68.632812 43.296875 69.023438 43.691406 C 69.417969 44.085938 69.769531 44.511719 70.082031 44.976562 C 70.390625 45.4375 70.652344 45.929688 70.867188 46.441406 C 71.078125 46.957031 71.238281 47.488281 71.347656 48.035156 C 71.457031 48.582031 71.511719 49.132812 71.515625 49.6875 Z M 71.515625 56.964844 " fill-opacity="1" fill-rule="nonzero"/></g><path fill="#560216" d="M 46.40625 19.019531 C 46.519531 19.136719 46.652344 19.222656 46.800781 19.285156 C 46.949219 19.347656 47.101562 19.375 47.265625 19.375 C 47.425781 19.375 47.578125 19.347656 47.726562 19.285156 C 47.875 19.222656 48.007812 19.136719 48.121094 19.019531 L 55.394531 11.746094 C 55.511719 11.632812 55.597656 11.5 55.660156 11.351562 C 55.71875 11.203125 55.75 11.050781 55.75 10.890625 C 55.75 10.730469 55.71875 10.574219 55.65625 10.425781 C 55.597656 10.277344 55.507812 10.144531 55.394531 10.03125 C 55.28125 9.917969 55.152344 9.832031 55.003906 9.769531 C 54.855469 9.707031 54.699219 9.675781 54.539062 9.675781 C 54.378906 9.675781 54.222656 9.707031 54.074219 9.769531 C 53.925781 9.832031 53.796875 9.917969 53.679688 10.03125 L 47.265625 16.449219 L 45.695312 14.882812 C 45.582031 14.769531 45.453125 14.679688 45.304688 14.617188 C 45.15625 14.558594 45 14.527344 44.839844 14.527344 C 44.679688 14.527344 44.523438 14.558594 44.375 14.617188 C 44.226562 14.679688 44.09375 14.769531 43.980469 14.882812 C 43.867188 14.996094 43.78125 15.125 43.71875 15.273438 C 43.65625 15.421875 43.625 15.578125 43.625 15.738281 C 43.625 15.898438 43.65625 16.054688 43.71875 16.203125 C 43.78125 16.351562 43.867188 16.484375 43.980469 16.597656 Z M 46.40625 19.019531 " fill-opacity="1" fill-rule="nonzero"/></svg>