<svg xmlns="http://www.w3.org/2000/svg" xmlns:xlink="http://www.w3.org/1999/xlink" width="100" zoomAndPan="magnify" viewBox="0 0 75 74.999997" height="100" preserveAspectRatio="xMidYMid meet" version="1.0"><defs><clipPath id="id1"><path d="M 7.5 1.105469 L 68.25 1.105469 L 68.25 73.855469 L 7.5 73.855469 Z M 7.5 1.105469 " clip-rule="nonzero"/></clipPath><clipPath id="id2"><path d="M 18.433594 21.730469 L 25.726562 21.730469 C 26.394531 21.730469 26.941406 22.273438 26.941406 22.941406 C 26.941406 23.609375 26.394531 24.152344 25.726562 24.152344 L 23.296875 24.152344 L 23.296875 30.210938 C 23.296875 30.878906 22.75 31.421875 22.078125 31.421875 C 21.410156 31.421875 20.863281 30.878906 20.863281 30.210938 L 20.863281 24.152344 L 18.433594 24.152344 C 17.765625 24.152344 17.21875 23.609375 17.21875 22.941406 C 17.21875 22.273438 17.765625 21.730469 18.433594 21.730469 Z M 25.851562 29.667969 L 29.5 22.398438 C 29.703125 21.988281 30.125 21.730469 30.585938 21.730469 C 31.046875 21.730469 31.464844 21.988281 31.671875 22.398438 L 35.316406 29.667969 C 35.617188 30.265625 35.375 30.996094 34.773438 31.292969 C 34.597656 31.382812 34.414062 31.421875 34.230469 31.421875 C 33.785156 31.421875 33.355469 31.175781 33.144531 30.753906 L 32.265625 29 L 28.90625 29 L 28.027344 30.753906 C 27.726562 31.351562 26.996094 31.59375 26.398438 31.292969 C 25.796875 30.996094 25.554688 30.265625 25.851562 29.667969 Z M 30.585938 25.652344 L 30.121094 26.574219 L 31.050781 26.574219 Z M 37.015625 31.066406 C 37.253906 31.304688 37.5625 31.421875 37.875 31.421875 C 38.1875 31.421875 38.496094 31.304688 38.734375 31.066406 L 41.519531 28.289062 L 44.304688 31.066406 C 44.542969 31.304688 44.855469 31.421875 45.164062 31.421875 C 45.476562 31.421875 45.785156 31.304688 46.023438 31.066406 C 46.5 30.59375 46.5 29.828125 46.023438 29.355469 L 43.238281 26.574219 L 46.023438 23.796875 C 46.5 23.324219 46.5 22.558594 46.023438 22.085938 C 45.550781 21.613281 44.78125 21.613281 44.304688 22.085938 L 41.519531 24.863281 L 38.734375 22.085938 C 38.257812 21.609375 37.492188 21.609375 37.015625 22.085938 C 36.542969 22.558594 36.542969 23.324219 37.015625 23.796875 L 39.800781 26.574219 L 37.015625 29.355469 C 36.542969 29.828125 36.542969 30.59375 37.015625 31.066406 Z M 48.808594 24.152344 L 50.023438 24.152344 C 50.695312 24.152344 51.238281 23.609375 51.238281 22.941406 C 51.238281 22.273438 50.695312 21.730469 50.023438 21.730469 L 48.808594 21.730469 C 48.140625 21.730469 47.59375 22.273438 47.59375 22.941406 C 47.59375 23.609375 48.140625 24.152344 48.808594 24.152344 Z M 48.808594 27.789062 L 50.023438 27.789062 C 50.695312 27.789062 51.238281 27.246094 51.238281 26.574219 C 51.238281 25.90625 50.695312 25.363281 50.023438 25.363281 L 48.808594 25.363281 C 48.140625 25.363281 47.59375 25.90625 47.59375 26.574219 C 47.59375 27.246094 48.140625 27.789062 48.808594 27.789062 Z M 48.808594 31.421875 L 50.023438 31.421875 C 50.695312 31.421875 51.238281 30.878906 51.238281 30.210938 C 51.238281 29.542969 50.695312 29 50.023438 29 L 48.808594 29 C 48.140625 29 47.59375 29.542969 47.59375 30.210938 C 47.59375 30.878906 48.140625 31.421875 48.808594 31.421875 Z M 50.023438 33.84375 L 29.371094 33.84375 C 28.699219 33.84375 28.15625 34.386719 28.15625 35.058594 C 28.15625 35.726562 28.699219 36.269531 29.371094 36.269531 L 50.023438 36.269531 C 50.695312 36.269531 51.238281 35.726562 51.238281 35.058594 C 51.238281 34.386719 50.695312 33.84375 50.023438 33.84375 Z M 50.023438 38.691406 L 34.230469 38.691406 C 33.558594 38.691406 33.015625 39.234375 33.015625 39.902344 C 33.015625 40.574219 33.558594 41.113281 34.230469 41.113281 L 50.023438 41.113281 C 50.695312 41.113281 51.238281 40.574219 51.238281 39.902344 C 51.238281 39.234375 50.695312 38.691406 50.023438 38.691406 Z M 50.023438 43.539062 L 34.230469 43.539062 C 33.558594 43.539062 33.015625 44.082031 33.015625 44.75 C 33.015625 45.417969 33.558594 45.960938 34.230469 45.960938 L 50.023438 45.960938 C 50.695312 45.960938 51.238281 45.417969 51.238281 44.75 C 51.238281 44.082031 50.695312 43.539062 50.023438 43.539062 Z M 50.023438 48.382812 L 33.015625 48.382812 C 32.34375 48.382812 31.800781 48.925781 31.800781 49.597656 C 31.800781 50.265625 32.34375 50.808594 33.015625 50.808594 L 50.023438 50.808594 C 50.695312 50.808594 51.238281 50.265625 51.238281 49.597656 C 51.238281 48.925781 50.695312 48.382812 50.023438 48.382812 Z M 45.164062 53.230469 L 18.433594 53.230469 C 17.765625 53.230469 17.21875 53.773438 17.21875 54.441406 C 17.21875 55.113281 17.765625 55.65625 18.433594 55.65625 L 45.164062 55.65625 C 45.835938 55.65625 46.378906 55.113281 46.378906 54.441406 C 46.378906 53.773438 45.835938 53.230469 45.164062 53.230469 Z M 59.105469 73.679688 C 58.824219 73.777344 58.527344 73.828125 58.226562 73.828125 L 10.234375 73.828125 C 8.726562 73.828125 7.5 72.605469 7.5 71.101562 L 7.5 11.128906 C 7.5 9.625 8.726562 8.402344 10.234375 8.402344 L 19.886719 8.402344 C 20.417969 6.988281 21.789062 5.980469 23.390625 5.980469 L 25.726562 5.980469 L 25.726562 5.277344 C 25.726562 2.992188 27.589844 1.132812 29.882812 1.132812 L 38.578125 1.132812 C 40.871094 1.132812 42.734375 2.992188 42.734375 5.277344 L 42.734375 5.980469 L 45.070312 5.980469 C 46.671875 5.980469 48.039062 6.988281 48.574219 8.402344 L 58.226562 8.402344 C 59.734375 8.402344 60.960938 9.625 60.960938 11.128906 L 60.960938 52.644531 C 65.203125 54.144531 68.25 58.183594 68.25 62.925781 C 68.25 68.328125 64.285156 72.824219 59.105469 73.679688 Z M 58.226562 10.824219 L 48.808594 10.824219 L 48.808594 12.035156 L 54.886719 12.035156 C 55.554688 12.035156 56.101562 12.578125 56.101562 13.25 L 56.101562 52.089844 C 56.5 52.042969 56.902344 52.019531 57.316406 52.019531 C 57.726562 52.019531 58.132812 52.042969 58.53125 52.089844 L 58.53125 11.128906 C 58.53125 10.960938 58.394531 10.824219 58.226562 10.824219 Z M 19.648438 14.664062 L 19.648438 14.460938 L 14.789062 14.460938 L 14.789062 67.769531 L 47.523438 67.769531 C 46.792969 66.308594 46.378906 64.664062 46.378906 62.925781 C 46.378906 58.183594 49.425781 54.144531 53.671875 52.644531 L 53.671875 14.460938 L 48.808594 14.460938 L 48.808594 14.664062 C 48.808594 16.554688 47.265625 18.09375 45.371094 18.09375 L 23.089844 18.09375 C 21.191406 18.09375 19.648438 16.554688 19.648438 14.664062 Z M 22.078125 14.664062 C 22.078125 15.21875 22.53125 15.671875 23.089844 15.671875 L 45.371094 15.671875 C 45.925781 15.671875 46.378906 15.21875 46.378906 14.664062 L 46.378906 9.707031 C 46.378906 8.988281 45.792969 8.402344 45.070312 8.402344 L 41.519531 8.402344 C 40.847656 8.402344 40.304688 7.859375 40.304688 7.191406 L 40.304688 5.277344 C 40.304688 4.328125 39.53125 3.554688 38.578125 3.554688 L 29.882812 3.554688 C 28.929688 3.554688 28.15625 4.328125 28.15625 5.277344 L 28.15625 7.191406 C 28.15625 7.859375 27.609375 8.402344 26.941406 8.402344 L 23.390625 8.402344 C 22.667969 8.402344 22.078125 8.988281 22.078125 9.707031 Z M 50.453125 71.40625 C 49.996094 71.035156 49.566406 70.628906 49.171875 70.195312 L 13.574219 70.195312 C 12.902344 70.195312 12.359375 69.652344 12.359375 68.980469 L 12.359375 13.25 C 12.359375 12.578125 12.902344 12.035156 13.574219 12.035156 L 19.648438 12.035156 L 19.648438 10.824219 L 10.234375 10.824219 C 10.066406 10.824219 9.929688 10.960938 9.929688 11.128906 L 9.929688 71.101562 C 9.929688 71.269531 10.066406 71.40625 10.234375 71.40625 Z M 65.820312 62.925781 C 65.820312 58.246094 62.003906 54.441406 57.316406 54.441406 C 52.625 54.441406 48.808594 58.246094 48.808594 62.925781 C 48.808594 67.601562 52.625 71.40625 57.316406 71.40625 C 62.003906 71.40625 65.820312 67.601562 65.820312 62.925781 Z M 25.726562 62.925781 L 18.433594 62.925781 C 17.765625 62.925781 17.21875 63.464844 17.21875 64.136719 C 17.21875 64.804688 17.765625 65.347656 18.433594 65.347656 L 25.726562 65.347656 C 26.394531 65.347656 26.941406 64.804688 26.941406 64.136719 C 26.941406 63.464844 26.394531 62.925781 25.726562 62.925781 Z M 37.875 62.925781 L 30.585938 62.925781 C 29.914062 62.925781 29.371094 63.464844 29.371094 64.136719 C 29.371094 64.804688 29.914062 65.347656 30.585938 65.347656 L 37.875 65.347656 C 38.546875 65.347656 39.089844 64.804688 39.089844 64.136719 C 39.089844 63.464844 38.546875 62.925781 37.875 62.925781 Z M 60.707031 59.039062 L 54.886719 64.84375 L 53.3125 63.277344 C 52.839844 62.804688 52.070312 62.804688 51.597656 63.277344 C 51.121094 63.753906 51.121094 64.519531 51.597656 64.992188 L 54.027344 67.414062 C 54.261719 67.652344 54.574219 67.769531 54.886719 67.769531 C 55.195312 67.769531 55.507812 67.652344 55.746094 67.414062 L 62.425781 60.75 C 62.902344 60.277344 62.902344 59.511719 62.425781 59.039062 C 61.953125 58.566406 61.183594 58.566406 60.707031 59.039062 Z M 17.21875 43.539062 C 17.21875 39.53125 20.488281 36.269531 24.511719 36.269531 C 28.53125 36.269531 31.800781 39.53125 31.800781 43.539062 C 31.800781 47.546875 28.53125 50.808594 24.511719 50.808594 C 20.488281 50.808594 17.21875 47.546875 17.21875 43.539062 Z M 19.648438 43.539062 C 19.648438 46.210938 21.832031 48.382812 24.511719 48.382812 C 27.191406 48.382812 29.371094 46.210938 29.371094 43.539062 C 29.371094 40.867188 27.191406 38.691406 24.511719 38.691406 C 21.832031 38.691406 19.648438 40.867188 19.648438 43.539062 Z M 22.078125 47.171875 C 22.390625 47.171875 22.703125 47.054688 22.9375 46.816406 L 27.800781 41.972656 C 28.273438 41.5 28.273438 40.730469 27.800781 40.257812 C 27.324219 39.785156 26.554688 39.785156 26.082031 40.257812 L 21.222656 45.105469 C 20.746094 45.578125 20.746094 46.34375 21.222656 46.816406 C 21.457031 47.054688 21.769531 47.171875 22.078125 47.171875 Z M 22.082031 42.328125 C 22.753906 42.328125 23.296875 41.785156 23.296875 41.113281 C 23.296875 40.445312 22.753906 39.902344 22.082031 39.902344 C 21.410156 39.902344 20.867188 40.445312 20.867188 41.113281 C 20.867188 41.785156 21.410156 42.328125 22.082031 42.328125 Z M 26.941406 44.75 C 26.269531 44.75 25.726562 45.292969 25.726562 45.960938 C 25.726562 46.628906 26.273438 47.171875 26.941406 47.171875 C 27.613281 47.171875 28.15625 46.628906 28.15625 45.960938 C 28.15625 45.292969 27.613281 44.75 26.941406 44.75 Z M 42.734375 58.078125 L 18.433594 58.078125 C 17.765625 58.078125 17.21875 58.621094 17.21875 59.289062 C 17.21875 59.957031 17.765625 60.5 18.433594 60.5 L 42.734375 60.5 C 43.40625 60.5 43.949219 59.957031 43.949219 59.289062 C 43.949219 58.621094 43.40625 58.078125 42.734375 58.078125 Z M 42.734375 58.078125 " clip-rule="nonzero"/></clipPath></defs><g clip-path="url(#id1)"><g clip-path="url(#id2)"><path fill="#560216" d="M 7.5 1.132812 L 7.5 73.828125 L 68.25 73.828125 L 68.25 1.132812 Z M 7.5 1.132812 " fill-opacity="1" fill-rule="nonzero"/></g></g></svg>