<svg xmlns="http://www.w3.org/2000/svg" xmlns:xlink="http://www.w3.org/1999/xlink" width="50" zoomAndPan="magnify" viewBox="0 0 37.5 37.499999" height="50" preserveAspectRatio="xMidYMid meet" version="1.0"><defs><clipPath id="id1"><path d="M 0 0 L 37.007812 0 L 37.007812 37.007812 L 0 37.007812 Z M 0 0 " clip-rule="nonzero"/></clipPath><clipPath id="id2"><path d="M 0.5625 0.5625 L 27 0.5625 L 27 37.007812 L 0.5625 37.007812 Z M 0.5625 0.5625 " clip-rule="nonzero"/></clipPath><clipPath id="id3"><path d="M 22 12 L 37.007812 12 L 37.007812 37.007812 L 22 37.007812 Z M 22 12 " clip-rule="nonzero"/></clipPath></defs><g clip-path="url(#id1)"><path fill="#ffffff" d="M 0 0 L 37.5 0 L 37.5 37.5 L 0 37.5 Z M 0 0 " fill-opacity="1" fill-rule="nonzero"/><path fill="#ffffff" d="M 0 0 L 37.5 0 L 37.5 37.5 L 0 37.5 Z M 0 0 " fill-opacity="1" fill-rule="nonzero"/><path fill="#ffffff" d="M 0 0 L 37.5 0 L 37.5 37.5 L 0 37.5 Z M 0 0 " fill-opacity="1" fill-rule="nonzero"/></g><path fill="#560216" d="M 21.519531 9.175781 L 10.324219 9.175781 C 10.007812 9.175781 9.75 9.433594 9.75 9.75 C 9.75 10.066406 10.007812 10.324219 10.324219 10.324219 L 21.519531 10.324219 C 21.835938 10.324219 22.09375 10.066406 22.09375 9.75 C 22.09375 9.433594 21.835938 9.175781 21.519531 9.175781 Z M 21.519531 9.175781 " fill-opacity="1" fill-rule="nonzero"/><path fill="#560216" d="M 21.519531 11.472656 L 10.324219 11.472656 C 10.007812 11.472656 9.75 11.730469 9.75 12.046875 C 9.75 12.363281 10.007812 12.621094 10.324219 12.621094 L 21.519531 12.621094 C 21.835938 12.621094 22.09375 12.363281 22.09375 12.046875 C 22.09375 11.730469 21.835938 11.472656 21.519531 11.472656 Z M 21.519531 11.472656 " fill-opacity="1" fill-rule="nonzero"/><path fill="#560216" d="M 6.304688 8.3125 C 4.867188 8.3125 3.71875 9.460938 3.71875 10.898438 C 3.71875 12.332031 4.867188 13.480469 6.304688 13.480469 C 7.738281 13.480469 8.886719 12.332031 8.886719 10.898438 C 8.886719 9.460938 7.738281 8.3125 6.304688 8.3125 Z M 6.304688 12.332031 C 5.5 12.332031 4.867188 11.703125 4.867188 10.898438 C 4.867188 10.09375 5.5 9.460938 6.304688 9.460938 C 7.109375 9.460938 7.738281 10.09375 7.738281 10.898438 C 7.738281 11.703125 7.109375 12.332031 6.304688 12.332031 Z M 6.304688 12.332031 " fill-opacity="1" fill-rule="nonzero"/><path fill="#560216" d="M 21.519531 15.492188 L 10.324219 15.492188 C 10.007812 15.492188 9.75 15.75 9.75 16.066406 C 9.75 16.382812 10.007812 16.640625 10.324219 16.640625 L 21.519531 16.640625 C 21.835938 16.640625 22.09375 16.382812 22.09375 16.066406 C 22.09375 15.75 21.835938 15.492188 21.519531 15.492188 Z M 21.519531 15.492188 " fill-opacity="1" fill-rule="nonzero"/><path fill="#560216" d="M 21.519531 17.789062 L 10.324219 17.789062 C 10.007812 17.789062 9.75 18.046875 9.75 18.363281 C 9.75 18.679688 10.007812 18.9375 10.324219 18.9375 L 21.519531 18.9375 C 21.835938 18.9375 22.09375 18.679688 22.09375 18.363281 C 22.09375 18.046875 21.835938 17.789062 21.519531 17.789062 Z M 21.519531 17.789062 " fill-opacity="1" fill-rule="nonzero"/><path fill="#560216" d="M 6.304688 14.628906 C 4.867188 14.628906 3.71875 15.777344 3.71875 17.214844 C 3.71875 18.648438 4.867188 19.796875 6.304688 19.796875 C 7.738281 19.796875 8.886719 18.648438 8.886719 17.214844 C 8.886719 15.777344 7.738281 14.628906 6.304688 14.628906 Z M 6.304688 18.648438 C 5.5 18.648438 4.867188 18.019531 4.867188 17.214844 C 4.867188 16.410156 5.5 15.777344 6.304688 15.777344 C 7.109375 15.777344 7.738281 16.410156 7.738281 17.214844 C 7.738281 18.019531 7.109375 18.648438 6.304688 18.648438 Z M 6.304688 18.648438 " fill-opacity="1" fill-rule="nonzero"/><path fill="#560216" d="M 21.519531 21.808594 L 10.324219 21.808594 C 10.007812 21.808594 9.75 22.066406 9.75 22.382812 C 9.75 22.699219 10.007812 22.957031 10.324219 22.957031 L 21.519531 22.957031 C 21.835938 22.957031 22.09375 22.699219 22.09375 22.382812 C 22.09375 22.066406 21.835938 21.808594 21.519531 21.808594 Z M 21.519531 21.808594 " fill-opacity="1" fill-rule="nonzero"/><path fill="#560216" d="M 21.519531 24.105469 L 10.324219 24.105469 C 10.007812 24.105469 9.75 24.363281 9.75 24.679688 C 9.75 24.996094 10.007812 25.253906 10.324219 25.253906 L 21.519531 25.253906 C 21.835938 25.253906 22.09375 24.996094 22.09375 24.679688 C 22.09375 24.363281 21.835938 24.105469 21.519531 24.105469 Z M 21.519531 24.105469 " fill-opacity="1" fill-rule="nonzero"/><path fill="#560216" d="M 6.304688 20.945312 C 4.867188 20.945312 3.71875 22.09375 3.71875 23.53125 C 3.71875 24.964844 4.867188 26.113281 6.304688 26.113281 C 7.738281 26.113281 8.886719 24.964844 8.886719 23.53125 C 8.886719 22.09375 7.738281 20.945312 6.304688 20.945312 Z M 6.304688 24.964844 C 5.5 24.964844 4.867188 24.335938 4.867188 23.53125 C 4.867188 22.726562 5.5 22.09375 6.304688 22.09375 C 7.109375 22.09375 7.738281 22.726562 7.738281 23.53125 C 7.738281 24.335938 7.109375 24.964844 6.304688 24.964844 Z M 6.304688 24.964844 " fill-opacity="1" fill-rule="nonzero"/><path fill="#560216" d="M 21.519531 28.125 L 10.324219 28.125 C 10.007812 28.125 9.75 28.382812 9.75 28.699219 C 9.75 29.015625 10.007812 29.273438 10.324219 29.273438 L 21.519531 29.273438 C 21.835938 29.273438 22.09375 29.015625 22.09375 28.699219 C 22.09375 28.382812 21.835938 28.125 21.519531 28.125 Z M 21.519531 28.125 " fill-opacity="1" fill-rule="nonzero"/><path fill="#560216" d="M 21.519531 30.421875 L 10.324219 30.421875 C 10.007812 30.421875 9.75 30.679688 9.75 30.996094 C 9.75 31.3125 10.007812 31.570312 10.324219 31.570312 L 21.519531 31.570312 C 21.835938 31.570312 22.09375 31.3125 22.09375 30.996094 C 22.09375 30.679688 21.835938 30.421875 21.519531 30.421875 Z M 21.519531 30.421875 " fill-opacity="1" fill-rule="nonzero"/><path fill="#560216" d="M 6.304688 27.261719 C 4.867188 27.261719 3.71875 28.410156 3.71875 29.847656 C 3.71875 31.28125 4.867188 32.429688 6.304688 32.429688 C 7.738281 32.429688 8.886719 31.28125 8.886719 29.847656 C 8.886719 28.410156 7.738281 27.261719 6.304688 27.261719 Z M 6.304688 31.28125 C 5.5 31.28125 4.867188 30.652344 4.867188 29.847656 C 4.867188 29.042969 5.5 28.410156 6.304688 28.410156 C 7.109375 28.410156 7.738281 29.042969 7.738281 29.847656 C 7.738281 30.652344 7.109375 31.28125 6.304688 31.28125 Z M 6.304688 31.28125 " fill-opacity="1" fill-rule="nonzero"/><path fill="#560216" d="M 9.175781 4.292969 L 17.789062 4.292969 C 18.105469 4.292969 18.363281 4.035156 18.363281 3.71875 C 18.363281 3.40625 18.105469 3.144531 17.789062 3.144531 L 9.175781 3.144531 C 8.859375 3.144531 8.601562 3.40625 8.601562 3.71875 C 8.601562 4.035156 8.859375 4.292969 9.175781 4.292969 Z M 9.175781 4.292969 " fill-opacity="1" fill-rule="nonzero"/><g clip-path="url(#id2)"><path fill="#560216" d="M 25.941406 10.898438 C 26.085938 10.898438 26.257812 10.925781 26.402344 10.957031 L 26.402344 3.71875 C 26.402344 1.96875 24.996094 0.5625 23.242188 0.5625 L 3.71875 0.5625 C 1.96875 0.5625 0.5625 1.96875 0.5625 3.71875 L 0.5625 34.152344 C 0.5625 35.90625 1.96875 37.3125 3.71875 37.3125 L 23.242188 37.3125 C 24.996094 37.3125 26.402344 35.90625 26.402344 34.152344 L 26.402344 23.960938 L 25.253906 21.695312 L 25.253906 33.578125 L 1.710938 33.578125 L 1.710938 4.292969 L 6.277344 4.292969 L 6.277344 4.726562 C 6.277344 5.988281 7.308594 7.023438 8.574219 7.023438 L 18.421875 7.023438 C 19.683594 7.023438 20.71875 5.988281 20.71875 4.726562 L 20.71875 4.292969 L 25.253906 4.292969 L 25.253906 10.984375 C 25.484375 10.925781 25.714844 10.898438 25.941406 10.898438 Z M 25.167969 34.726562 C 24.910156 35.5625 24.164062 36.164062 23.242188 36.164062 L 3.71875 36.164062 C 2.800781 36.164062 2.054688 35.5625 1.796875 34.726562 Z M 6.277344 3.144531 L 1.796875 3.144531 C 2.054688 2.3125 2.800781 1.710938 3.71875 1.710938 L 6.277344 1.710938 Z M 19.539062 4.726562 C 19.539062 5.355469 19.023438 5.875 18.390625 5.875 L 8.574219 5.875 C 7.941406 5.875 7.425781 5.355469 7.425781 4.726562 L 7.425781 1.824219 L 19.570312 1.824219 L 19.570312 4.726562 Z M 20.6875 3.144531 L 20.6875 1.710938 L 23.242188 1.710938 C 24.164062 1.710938 24.910156 2.3125 25.167969 3.144531 Z M 20.6875 3.144531 " fill-opacity="1" fill-rule="nonzero"/></g><g clip-path="url(#id3)"><path fill="#560216" d="M 37.253906 32.632812 L 36.480469 31.082031 L 28.410156 15.148438 L 27.234375 12.820312 C 26.890625 12.105469 26 11.816406 25.3125 12.191406 L 23.761719 12.964844 C 23.417969 13.136719 23.15625 13.425781 23.042969 13.796875 C 22.929688 14.171875 22.957031 14.542969 23.128906 14.890625 L 32.34375 33.121094 L 33.121094 34.671875 C 33.148438 34.757812 33.207031 34.816406 33.292969 34.871094 L 36.394531 37.167969 C 36.507812 37.253906 36.625 37.285156 36.738281 37.285156 C 36.824219 37.285156 36.910156 37.253906 36.996094 37.226562 C 37.199219 37.140625 37.3125 36.9375 37.3125 36.710938 L 37.3125 32.863281 C 37.3125 32.777344 37.285156 32.691406 37.253906 32.632812 Z M 24.132812 14.402344 C 24.078125 14.316406 24.105469 14.230469 24.105469 14.171875 C 24.132812 14.085938 24.191406 14.027344 24.25 14 L 25.800781 13.222656 C 25.941406 13.136719 26.113281 13.195312 26.203125 13.339844 L 27.121094 15.148438 L 25.054688 16.179688 Z M 33.09375 32.117188 L 25.570312 17.214844 L 27.636719 16.179688 L 35.1875 31.082031 Z M 34.066406 34.039062 L 33.609375 33.121094 L 35.675781 32.085938 L 36.136719 33.003906 L 36.136719 35.589844 Z M 34.066406 34.039062 " fill-opacity="1" fill-rule="nonzero"/></g></svg>