<svg xmlns="http://www.w3.org/2000/svg" xmlns:xlink="http://www.w3.org/1999/xlink" width="100" zoomAndPan="magnify" viewBox="0 0 75 74.999997" height="100" preserveAspectRatio="xMidYMid meet" version="1.0"><defs><clipPath id="id1"><path d="M 66.0625 16.566406 L 73.300781 16.566406 L 73.300781 61.820312 L 66.0625 61.820312 Z M 66.0625 16.566406 " clip-rule="nonzero"/></clipPath><clipPath id="id2"><path d="M 1.480469 1.117188 L 63.574219 1.117188 L 63.574219 73.863281 L 1.480469 73.863281 Z M 1.480469 1.117188 " clip-rule="nonzero"/></clipPath></defs><g clip-path="url(#id1)"><path fill="#560216" d="M 71.628906 36.277344 L 67.753906 36.277344 L 67.855469 22.09375 L 71.730469 22.121094 Z M 69.109375 59.054688 L 69.957031 59.0625 L 69.527344 60.085938 Z M 67.898438 56.058594 L 71.210938 56.082031 L 70.613281 57.507812 L 68.476562 57.492188 Z M 71.503906 54.523438 L 67.628906 54.496094 L 67.746094 37.839844 L 71.617188 37.839844 Z M 71.664062 20.5625 L 67.945312 20.535156 L 67.867188 20.535156 L 67.875 19.472656 C 67.878906 18.75 68.335938 18.140625 68.871094 18.140625 L 68.875 18.140625 L 70.765625 18.152344 C 71.085938 18.15625 71.308594 18.371094 71.417969 18.5 C 71.628906 18.757812 71.75 19.121094 71.746094 19.5 L 71.742188 20.5625 Z M 72.617188 17.507812 C 72.144531 16.933594 71.472656 16.597656 70.777344 16.59375 L 68.886719 16.582031 L 68.871094 16.582031 C 67.472656 16.582031 66.328125 17.871094 66.320312 19.460938 L 66.304688 21.222656 C 66.304688 21.246094 66.304688 21.277344 66.304688 21.304688 L 66.300781 22.082031 L 66.066406 55.679688 L 66.355469 56.394531 L 67.425781 59.042969 L 68.125 60.773438 C 68.355469 61.34375 68.902344 61.714844 69.515625 61.71875 C 69.519531 61.71875 69.523438 61.71875 69.527344 61.71875 C 70.136719 61.71875 70.683594 61.355469 70.917969 60.792969 L 72.152344 57.867188 L 73.050781 55.730469 L 73.285156 22.132812 L 73.289062 21.3125 L 73.300781 19.511719 C 73.308594 18.761719 73.0625 18.050781 72.617188 17.507812 " fill-opacity="1" fill-rule="nonzero"/></g><g clip-path="url(#id2)"><path fill="#560216" d="M 61.933594 58.824219 C 61.933594 59.546875 61.347656 60.136719 60.625 60.136719 L 34.3125 60.136719 L 34.3125 33.675781 C 34.3125 33.363281 34.257812 33.0625 34.164062 32.78125 C 33.914062 32.035156 33.359375 31.429688 32.648438 31.113281 C 32.300781 30.957031 31.917969 30.871094 31.515625 30.871094 L 15.875 30.871094 L 15.960938 12.660156 L 25.863281 12.660156 L 25.863281 2.734375 L 60.625 2.679688 C 61.347656 2.679688 61.933594 3.265625 61.933594 3.992188 Z M 32.757812 71.058594 C 32.757812 71.746094 32.199219 72.304688 31.515625 72.304688 L 4.28125 72.304688 C 3.59375 72.304688 3.039062 71.746094 3.039062 71.058594 L 3.039062 46.65625 L 32.757812 46.65625 Z M 4.28125 32.429688 L 31.515625 32.429688 C 32.199219 32.429688 32.757812 32.988281 32.757812 33.675781 L 32.757812 45.097656 L 3.039062 45.097656 L 3.039062 33.675781 C 3.039062 32.988281 3.59375 32.429688 4.28125 32.429688 Z M 24.308594 4.023438 L 24.308594 11.101562 L 17.097656 11.101562 Z M 60.625 1.117188 L 24.761719 1.175781 L 14.410156 11.554688 L 14.316406 30.871094 L 4.277344 30.871094 C 3.890625 30.871094 3.519531 30.949219 3.183594 31.09375 C 2.398438 31.429688 1.800781 32.117188 1.578125 32.960938 C 1.515625 33.1875 1.480469 33.425781 1.480469 33.675781 L 1.480469 71.058594 C 1.480469 72.605469 2.734375 73.863281 4.28125 73.863281 L 31.515625 73.863281 C 33.058594 73.863281 34.3125 72.605469 34.3125 71.058594 L 34.3125 61.695312 L 60.625 61.695312 C 62.203125 61.695312 63.488281 60.40625 63.488281 58.824219 L 63.488281 3.992188 C 63.488281 2.40625 62.203125 1.117188 60.625 1.117188 " fill-opacity="1" fill-rule="nonzero"/></g><path fill="#560216" d="M 44.035156 34.667969 L 57.945312 34.667969 L 57.945312 33.109375 L 44.035156 33.109375 L 44.035156 34.667969 " fill-opacity="1" fill-rule="nonzero"/><path fill="#560216" d="M 36.828125 34.667969 L 41.632812 34.667969 L 41.632812 33.109375 L 36.828125 33.109375 L 36.828125 34.667969 " fill-opacity="1" fill-rule="nonzero"/><path fill="#560216" d="M 57.945312 39.171875 L 57.945312 37.609375 L 52.785156 37.609375 L 52.785156 39.171875 L 57.945312 39.171875 " fill-opacity="1" fill-rule="nonzero"/><path fill="#560216" d="M 58.097656 28.625 L 52.933594 28.625 L 52.933594 30.183594 L 58.097656 30.183594 L 58.097656 28.625 " fill-opacity="1" fill-rule="nonzero"/><path fill="#560216" d="M 44.296875 28.425781 L 44.296875 29.984375 L 49.457031 29.984375 L 49.457031 28.425781 L 44.296875 28.425781 " fill-opacity="1" fill-rule="nonzero"/><path fill="#560216" d="M 36.828125 28.425781 L 36.828125 29.984375 L 40.875 29.984375 L 40.875 28.425781 L 36.828125 28.425781 " fill-opacity="1" fill-rule="nonzero"/><path fill="#560216" d="M 49.011719 37.609375 L 36.828125 37.609375 L 36.828125 39.171875 L 49.011719 39.171875 L 49.011719 37.609375 " fill-opacity="1" fill-rule="nonzero"/><path fill="#560216" d="M 49.132812 44.15625 L 58.15625 44.15625 L 58.15625 42.59375 L 49.132812 42.59375 L 49.132812 44.15625 " fill-opacity="1" fill-rule="nonzero"/><path fill="#560216" d="M 36.828125 44.15625 L 46.34375 44.15625 L 46.34375 42.59375 L 36.828125 42.59375 L 36.828125 44.15625 " fill-opacity="1" fill-rule="nonzero"/><path fill="#560216" d="M 45.882812 48.65625 L 58 48.65625 L 58 47.097656 L 45.882812 47.097656 L 45.882812 48.65625 " fill-opacity="1" fill-rule="nonzero"/><path fill="#560216" d="M 44.105469 47.097656 L 36.828125 47.097656 L 36.828125 48.65625 L 44.105469 48.65625 L 44.105469 47.097656 " fill-opacity="1" fill-rule="nonzero"/><path fill="#560216" d="M 54.179688 53.160156 L 58 53.160156 L 58 51.597656 L 54.179688 51.597656 L 54.179688 53.160156 " fill-opacity="1" fill-rule="nonzero"/><path fill="#560216" d="M 37.15625 53.160156 L 51.390625 53.160156 L 51.390625 51.597656 L 37.15625 51.597656 L 37.15625 53.160156 " fill-opacity="1" fill-rule="nonzero"/><path fill="#560216" d="M 37.03125 17.199219 C 37.210938 17.394531 37.445312 17.492188 37.734375 17.492188 C 38.019531 17.492188 38.25 17.394531 38.429688 17.199219 C 38.609375 17.007812 38.695312 16.707031 38.695312 16.304688 L 38.695312 9.308594 L 40.820312 9.308594 C 41.152344 9.308594 41.402344 9.234375 41.566406 9.085938 C 41.734375 8.941406 41.816406 8.746094 41.816406 8.503906 C 41.816406 8.265625 41.734375 8.070312 41.570312 7.921875 C 41.40625 7.773438 41.15625 7.699219 40.820312 7.699219 L 34.636719 7.699219 C 34.316406 7.699219 34.074219 7.769531 33.90625 7.914062 C 33.738281 8.058594 33.652344 8.257812 33.652344 8.503906 C 33.652344 8.746094 33.734375 8.941406 33.894531 9.085938 C 34.054688 9.234375 34.304688 9.308594 34.636719 9.308594 L 36.757812 9.308594 L 36.757812 16.304688 C 36.757812 16.703125 36.847656 17 37.03125 17.199219 " fill-opacity="1" fill-rule="nonzero"/><path fill="#560216" d="M 45.839844 9.589844 L 47.285156 13.566406 L 44.417969 13.566406 Z M 41.5 16.207031 C 41.457031 16.347656 41.433594 16.480469 41.433594 16.613281 C 41.433594 16.839844 41.53125 17.042969 41.71875 17.222656 C 41.90625 17.402344 42.121094 17.492188 42.367188 17.492188 C 42.652344 17.492188 42.863281 17.410156 42.988281 17.242188 C 43.113281 17.070312 43.269531 16.746094 43.445312 16.265625 L 43.90625 15.03125 L 47.8125 15.03125 L 48.269531 16.238281 C 48.332031 16.386719 48.402344 16.558594 48.488281 16.753906 C 48.574219 16.949219 48.652344 17.09375 48.726562 17.1875 C 48.800781 17.28125 48.894531 17.355469 49.003906 17.410156 C 49.113281 17.464844 49.242188 17.492188 49.394531 17.492188 C 49.660156 17.492188 49.882812 17.402344 50.066406 17.214844 C 50.253906 17.027344 50.347656 16.824219 50.347656 16.601562 C 50.347656 16.386719 50.246094 16.042969 50.050781 15.570312 L 47.542969 9.351562 C 47.425781 9.042969 47.328125 8.792969 47.25 8.609375 C 47.175781 8.421875 47.082031 8.246094 46.96875 8.085938 C 46.855469 7.921875 46.710938 7.789062 46.53125 7.6875 C 46.347656 7.585938 46.121094 7.535156 45.851562 7.535156 C 45.585938 7.535156 45.359375 7.585938 45.179688 7.6875 C 45 7.789062 44.851562 7.925781 44.742188 8.089844 C 44.628906 8.257812 44.523438 8.46875 44.425781 8.71875 C 44.328125 8.972656 44.246094 9.1875 44.175781 9.367188 L 41.71875 15.621094 C 41.617188 15.871094 41.542969 16.066406 41.5 16.207031 " fill-opacity="1" fill-rule="nonzero"/><path fill="#560216" d="M 58.023438 15.457031 L 55.988281 12.308594 L 57.882812 9.472656 C 58.21875 8.96875 58.386719 8.570312 58.386719 8.277344 C 58.386719 8.074219 58.308594 7.898438 58.152344 7.753906 C 57.996094 7.605469 57.796875 7.535156 57.554688 7.535156 C 57.417969 7.535156 57.296875 7.554688 57.195312 7.601562 C 57.09375 7.648438 57 7.71875 56.917969 7.808594 C 56.835938 7.902344 56.75 8.015625 56.660156 8.15625 C 56.570312 8.296875 56.460938 8.464844 56.335938 8.664062 L 54.792969 11.003906 L 53.355469 8.664062 C 53.085938 8.230469 52.878906 7.933594 52.726562 7.773438 C 52.578125 7.613281 52.367188 7.535156 52.097656 7.535156 C 51.859375 7.535156 51.660156 7.605469 51.496094 7.753906 C 51.332031 7.898438 51.25 8.066406 51.25 8.25 C 51.25 8.429688 51.292969 8.617188 51.378906 8.8125 C 51.464844 9.007812 51.589844 9.238281 51.761719 9.511719 L 53.570312 12.308594 L 51.421875 15.457031 C 51.101562 15.925781 50.941406 16.320312 50.941406 16.644531 C 50.941406 16.921875 51.019531 17.132812 51.175781 17.277344 C 51.328125 17.421875 51.527344 17.492188 51.761719 17.492188 C 51.914062 17.492188 52.046875 17.46875 52.160156 17.421875 C 52.273438 17.371094 52.375 17.308594 52.457031 17.222656 C 52.539062 17.140625 52.609375 17.054688 52.667969 16.96875 C 52.726562 16.878906 52.828125 16.726562 52.96875 16.507812 L 54.761719 13.761719 L 56.453125 16.429688 C 56.667969 16.757812 56.8125 16.980469 56.890625 17.09375 C 56.96875 17.207031 57.074219 17.300781 57.199219 17.378906 C 57.324219 17.457031 57.480469 17.492188 57.664062 17.492188 C 57.835938 17.492188 57.988281 17.457031 58.125 17.382812 C 58.257812 17.308594 58.363281 17.207031 58.4375 17.078125 C 58.511719 16.953125 58.550781 16.8125 58.550781 16.660156 C 58.550781 16.496094 58.507812 16.324219 58.425781 16.144531 C 58.34375 15.960938 58.207031 15.734375 58.023438 15.457031 " fill-opacity="1" fill-rule="nonzero"/><path fill="#560216" d="M 27.6875 19.175781 L 21.730469 24.898438 L 22.804688 26.023438 L 28.761719 20.304688 L 27.6875 19.175781 " fill-opacity="1" fill-rule="nonzero"/><path fill="#560216" d="M 27.726562 23.28125 C 26.859375 23.28125 26.160156 23.984375 26.160156 24.851562 C 26.160156 25.71875 26.859375 26.421875 27.726562 26.421875 C 28.589844 26.421875 29.292969 25.71875 29.292969 24.851562 C 29.292969 23.984375 28.589844 23.28125 27.726562 23.28125 " fill-opacity="1" fill-rule="nonzero"/><path fill="#560216" d="M 24.371094 20.378906 C 24.371094 19.511719 23.667969 18.808594 22.800781 18.808594 C 21.9375 18.808594 21.234375 19.511719 21.234375 20.378906 C 21.234375 21.246094 21.9375 21.949219 22.800781 21.949219 C 23.667969 21.949219 24.371094 21.246094 24.371094 20.378906 " fill-opacity="1" fill-rule="nonzero"/><path fill="#560216" d="M 26.957031 42.382812 L 5.316406 42.382812 L 5.316406 38.75 L 26.957031 38.75 Z M 28.511719 37.191406 L 3.761719 37.191406 L 3.761719 43.945312 L 28.511719 43.945312 L 28.511719 37.191406 " fill-opacity="1" fill-rule="nonzero"/><path fill="#560216" d="M 31.0625 34.015625 L 29.183594 34.015625 L 29.183594 35.894531 L 31.0625 35.894531 L 31.0625 34.015625 " fill-opacity="1" fill-rule="nonzero"/><path fill="#560216" d="M 5.5 33.234375 L 4.539062 33.234375 L 4.539062 34.796875 L 5.5 34.796875 L 5.5 33.234375 " fill-opacity="1" fill-rule="nonzero"/><path fill="#560216" d="M 7.210938 33.234375 L 6.25 33.234375 L 6.25 34.796875 L 7.210938 34.796875 L 7.210938 33.234375 " fill-opacity="1" fill-rule="nonzero"/><path fill="#560216" d="M 8.808594 33.234375 L 7.84375 33.234375 L 7.84375 34.796875 L 8.808594 34.796875 L 8.808594 33.234375 " fill-opacity="1" fill-rule="nonzero"/><path fill="#560216" d="M 10.515625 33.234375 L 9.554688 33.234375 L 9.554688 34.796875 L 10.515625 34.796875 L 10.515625 33.234375 " fill-opacity="1" fill-rule="nonzero"/><path fill="#560216" d="M 12.082031 33.257812 L 11.117188 33.257812 L 11.117188 34.820312 L 12.082031 34.820312 L 12.082031 33.257812 " fill-opacity="1" fill-rule="nonzero"/><path fill="#560216" d="M 13.789062 33.257812 L 12.828125 33.257812 L 12.828125 34.820312 L 13.789062 34.820312 L 13.789062 33.257812 " fill-opacity="1" fill-rule="nonzero"/><path fill="#560216" d="M 6.144531 50.378906 C 6.144531 49.8125 6.609375 49.347656 7.175781 49.347656 L 7.980469 49.347656 C 8.546875 49.347656 9.007812 49.8125 9.007812 50.378906 L 9.007812 51.1875 C 9.007812 51.753906 8.546875 52.21875 7.980469 52.21875 L 7.175781 52.21875 C 6.609375 52.21875 6.144531 51.753906 6.144531 51.1875 Z M 7.175781 53.777344 L 7.980469 53.777344 C 9.40625 53.777344 10.566406 52.617188 10.566406 51.1875 L 10.566406 50.378906 C 10.566406 48.949219 9.40625 47.789062 7.980469 47.789062 L 7.175781 47.789062 C 5.75 47.789062 4.589844 48.949219 4.589844 50.378906 L 4.589844 51.1875 C 4.589844 52.617188 5.75 53.777344 7.175781 53.777344 " fill-opacity="1" fill-rule="nonzero"/><path fill="#560216" d="M 12.984375 50.378906 C 12.984375 49.8125 13.449219 49.347656 14.015625 49.347656 L 14.820312 49.347656 C 15.386719 49.347656 15.847656 49.8125 15.847656 50.378906 L 15.847656 51.1875 C 15.847656 51.753906 15.386719 52.21875 14.820312 52.21875 L 14.015625 52.21875 C 13.449219 52.21875 12.984375 51.753906 12.984375 51.1875 Z M 14.015625 53.777344 L 14.820312 53.777344 C 16.246094 53.777344 17.40625 52.617188 17.40625 51.1875 L 17.40625 50.378906 C 17.40625 48.949219 16.246094 47.789062 14.820312 47.789062 L 14.015625 47.789062 C 12.589844 47.789062 11.429688 48.949219 11.429688 50.378906 L 11.429688 51.1875 C 11.429688 52.617188 12.589844 53.777344 14.015625 53.777344 " fill-opacity="1" fill-rule="nonzero"/><path fill="#560216" d="M 19.480469 50.378906 C 19.480469 49.8125 19.941406 49.347656 20.507812 49.347656 L 21.3125 49.347656 C 21.878906 49.347656 22.34375 49.8125 22.34375 50.378906 L 22.34375 51.1875 C 22.34375 51.753906 21.878906 52.21875 21.3125 52.21875 L 20.507812 52.21875 C 19.941406 52.21875 19.480469 51.753906 19.480469 51.1875 Z M 20.507812 53.777344 L 21.3125 53.777344 C 22.738281 53.777344 23.898438 52.617188 23.898438 51.1875 L 23.898438 50.378906 C 23.898438 48.949219 22.738281 47.789062 21.3125 47.789062 L 20.507812 47.789062 C 19.082031 47.789062 17.921875 48.949219 17.921875 50.378906 L 17.921875 51.1875 C 17.921875 52.617188 19.082031 53.777344 20.507812 53.777344 " fill-opacity="1" fill-rule="nonzero"/><path fill="#560216" d="M 26.320312 50.378906 C 26.320312 49.8125 26.78125 49.347656 27.347656 49.347656 L 28.152344 49.347656 C 28.71875 49.347656 29.179688 49.8125 29.179688 50.378906 L 29.179688 51.1875 C 29.179688 51.753906 28.71875 52.21875 28.152344 52.21875 L 27.347656 52.21875 C 26.78125 52.21875 26.320312 51.753906 26.320312 51.1875 Z M 27.347656 53.777344 L 28.152344 53.777344 C 29.578125 53.777344 30.738281 52.617188 30.738281 51.1875 L 30.738281 50.378906 C 30.738281 48.949219 29.578125 47.789062 28.152344 47.789062 L 27.347656 47.789062 C 25.921875 47.789062 24.761719 48.949219 24.761719 50.378906 L 24.761719 51.1875 C 24.761719 52.617188 25.921875 53.777344 27.347656 53.777344 " fill-opacity="1" fill-rule="nonzero"/><path fill="#560216" d="M 9.242188 59.101562 C 9.242188 59.671875 8.78125 60.136719 8.210938 60.136719 L 7.410156 60.136719 C 6.839844 60.136719 6.378906 59.671875 6.378906 59.101562 L 6.378906 58.296875 C 6.378906 57.726562 6.839844 57.265625 7.410156 57.265625 L 8.210938 57.265625 C 8.78125 57.265625 9.242188 57.726562 9.242188 58.296875 Z M 8.210938 55.703125 L 7.410156 55.703125 C 5.984375 55.703125 4.824219 56.867188 4.824219 58.296875 L 4.824219 59.101562 C 4.824219 60.53125 5.984375 61.695312 7.410156 61.695312 L 8.210938 61.695312 C 9.636719 61.695312 10.796875 60.53125 10.796875 59.101562 L 10.796875 58.296875 C 10.796875 56.867188 9.636719 55.703125 8.210938 55.703125 " fill-opacity="1" fill-rule="nonzero"/><path fill="#560216" d="M 16.082031 59.101562 C 16.082031 59.671875 15.621094 60.136719 15.050781 60.136719 L 14.25 60.136719 C 13.679688 60.136719 13.21875 59.671875 13.21875 59.101562 L 13.21875 58.296875 C 13.21875 57.726562 13.679688 57.265625 14.25 57.265625 L 15.050781 57.265625 C 15.621094 57.265625 16.082031 57.726562 16.082031 58.296875 Z M 15.050781 55.703125 L 14.25 55.703125 C 12.824219 55.703125 11.664062 56.867188 11.664062 58.296875 L 11.664062 59.101562 C 11.664062 60.53125 12.824219 61.695312 14.25 61.695312 L 15.050781 61.695312 C 16.476562 61.695312 17.636719 60.53125 17.636719 59.101562 L 17.636719 58.296875 C 17.636719 56.867188 16.476562 55.703125 15.050781 55.703125 " fill-opacity="1" fill-rule="nonzero"/><path fill="#560216" d="M 22.574219 59.101562 C 22.574219 59.671875 22.113281 60.136719 21.546875 60.136719 L 20.742188 60.136719 C 20.175781 60.136719 19.710938 59.671875 19.710938 59.101562 L 19.710938 58.296875 C 19.710938 57.726562 20.175781 57.265625 20.742188 57.265625 L 21.546875 57.265625 C 22.113281 57.265625 22.574219 57.726562 22.574219 58.296875 Z M 21.546875 55.703125 L 20.742188 55.703125 C 19.316406 55.703125 18.15625 56.867188 18.15625 58.296875 L 18.15625 59.101562 C 18.15625 60.53125 19.316406 61.695312 20.742188 61.695312 L 21.546875 61.695312 C 22.972656 61.695312 24.128906 60.53125 24.128906 59.101562 L 24.128906 58.296875 C 24.128906 56.867188 22.972656 55.703125 21.546875 55.703125 " fill-opacity="1" fill-rule="nonzero"/><path fill="#560216" d="M 29.414062 59.101562 C 29.414062 59.671875 28.953125 60.136719 28.386719 60.136719 L 27.582031 60.136719 C 27.015625 60.136719 26.550781 59.671875 26.550781 59.101562 L 26.550781 58.296875 C 26.550781 57.726562 27.015625 57.265625 27.582031 57.265625 L 28.386719 57.265625 C 28.953125 57.265625 29.414062 57.726562 29.414062 58.296875 Z M 28.386719 55.703125 L 27.582031 55.703125 C 26.15625 55.703125 24.996094 56.867188 24.996094 58.296875 L 24.996094 59.101562 C 24.996094 60.53125 26.15625 61.695312 27.582031 61.695312 L 28.386719 61.695312 C 29.8125 61.695312 30.972656 60.53125 30.972656 59.101562 L 30.972656 58.296875 C 30.972656 56.867188 29.8125 55.703125 28.386719 55.703125 " fill-opacity="1" fill-rule="nonzero"/><path fill="#560216" d="M 9.242188 67.695312 C 9.242188 68.265625 8.78125 68.730469 8.210938 68.730469 L 7.410156 68.730469 C 6.839844 68.730469 6.378906 68.265625 6.378906 67.695312 L 6.378906 66.890625 C 6.378906 66.320312 6.839844 65.859375 7.410156 65.859375 L 8.210938 65.859375 C 8.78125 65.859375 9.242188 66.320312 9.242188 66.890625 Z M 8.210938 64.296875 L 7.410156 64.296875 C 5.984375 64.296875 4.824219 65.460938 4.824219 66.890625 L 4.824219 67.695312 C 4.824219 69.125 5.984375 70.289062 7.410156 70.289062 L 8.210938 70.289062 C 9.636719 70.289062 10.796875 69.125 10.796875 67.695312 L 10.796875 66.890625 C 10.796875 65.460938 9.636719 64.296875 8.210938 64.296875 " fill-opacity="1" fill-rule="nonzero"/><path fill="#560216" d="M 16.082031 67.695312 C 16.082031 68.265625 15.621094 68.730469 15.050781 68.730469 L 14.25 68.730469 C 13.679688 68.730469 13.21875 68.265625 13.21875 67.695312 L 13.21875 66.890625 C 13.21875 66.320312 13.679688 65.859375 14.25 65.859375 L 15.050781 65.859375 C 15.621094 65.859375 16.082031 66.320312 16.082031 66.890625 Z M 15.050781 64.296875 L 14.25 64.296875 C 12.824219 64.296875 11.664062 65.460938 11.664062 66.890625 L 11.664062 67.695312 C 11.664062 69.125 12.824219 70.289062 14.25 70.289062 L 15.050781 70.289062 C 16.476562 70.289062 17.636719 69.125 17.636719 67.695312 L 17.636719 66.890625 C 17.636719 65.460938 16.476562 64.296875 15.050781 64.296875 " fill-opacity="1" fill-rule="nonzero"/><path fill="#560216" d="M 22.574219 67.695312 C 22.574219 68.265625 22.113281 68.730469 21.546875 68.730469 L 20.742188 68.730469 C 20.175781 68.730469 19.710938 68.265625 19.710938 67.695312 L 19.710938 66.890625 C 19.710938 66.320312 20.175781 65.859375 20.742188 65.859375 L 21.546875 65.859375 C 22.113281 65.859375 22.574219 66.320312 22.574219 66.890625 Z M 21.546875 64.296875 L 20.742188 64.296875 C 19.316406 64.296875 18.15625 65.460938 18.15625 66.890625 L 18.15625 67.695312 C 18.15625 69.125 19.316406 70.289062 20.742188 70.289062 L 21.546875 70.289062 C 22.972656 70.289062 24.128906 69.125 24.128906 67.695312 L 24.128906 66.890625 C 24.128906 65.460938 22.972656 64.296875 21.546875 64.296875 " fill-opacity="1" fill-rule="nonzero"/><path fill="#560216" d="M 29.414062 67.695312 C 29.414062 68.265625 28.953125 68.730469 28.386719 68.730469 L 27.582031 68.730469 C 27.015625 68.730469 26.550781 68.265625 26.550781 67.695312 L 26.550781 66.890625 C 26.550781 66.320312 27.015625 65.859375 27.582031 65.859375 L 28.386719 65.859375 C 28.953125 65.859375 29.414062 66.320312 29.414062 66.890625 Z M 28.386719 64.296875 L 27.582031 64.296875 C 26.15625 64.296875 24.996094 65.460938 24.996094 66.890625 L 24.996094 67.695312 C 24.996094 69.125 26.15625 70.289062 27.582031 70.289062 L 28.386719 70.289062 C 29.8125 70.289062 30.972656 69.125 30.972656 67.695312 L 30.972656 66.890625 C 30.972656 65.460938 29.8125 64.296875 28.386719 64.296875 " fill-opacity="1" fill-rule="nonzero"/></svg>