<svg xmlns="http://www.w3.org/2000/svg" xmlns:xlink="http://www.w3.org/1999/xlink" width="100" zoomAndPan="magnify" viewBox="0 0 75 74.999997" height="100" preserveAspectRatio="xMidYMid meet" version="1.0"><defs><clipPath id="id1"><path d="M 29 44 L 46 44 L 46 73.828125 L 29 73.828125 Z M 29 44 " clip-rule="nonzero"/></clipPath><clipPath id="id2"><path d="M 56 22 L 72.898438 22 L 72.898438 72 L 56 72 Z M 56 22 " clip-rule="nonzero"/></clipPath><clipPath id="id3"><path d="M 2.398438 22 L 19 22 L 19 72 L 2.398438 72 Z M 2.398438 22 " clip-rule="nonzero"/></clipPath><clipPath id="id4"><path d="M 16 1.078125 L 60 1.078125 L 60 44 L 16 44 Z M 16 1.078125 " clip-rule="nonzero"/></clipPath></defs><g clip-path="url(#id1)"><path fill="#560216" d="M 45.871094 61.527344 C 45.871094 61.851562 45.777344 62.179688 45.613281 62.460938 L 39.421875 72.707031 C 39.058594 73.324219 38.375 73.710938 37.648438 73.710938 C 36.917969 73.710938 36.238281 73.324219 35.871094 72.707031 L 29.679688 62.460938 C 29.515625 62.179688 29.421875 61.851562 29.421875 61.527344 C 29.421875 60.507812 30.246094 59.691406 31.265625 59.691406 L 34.121094 59.691406 L 34.121094 44.734375 C 35.15625 45.332031 36.367188 45.671875 37.648438 45.671875 C 38.941406 45.671875 40.140625 45.332031 41.171875 44.722656 L 41.171875 59.691406 L 44.027344 59.691406 C 45.050781 59.691406 45.871094 60.507812 45.871094 61.527344 " fill-opacity="1" fill-rule="nonzero"/></g><g clip-path="url(#id2)"><path fill="#560216" d="M 72.898438 59.800781 C 72.898438 60.128906 72.804688 60.457031 72.640625 60.734375 L 66.445312 70.980469 C 66.082031 71.601562 65.402344 71.988281 64.671875 71.988281 C 63.945312 71.988281 63.261719 71.601562 62.898438 70.980469 L 56.707031 60.734375 C 56.542969 60.457031 56.449219 60.128906 56.449219 59.800781 C 56.449219 58.785156 57.269531 57.964844 58.292969 57.964844 L 61.148438 57.964844 L 61.148438 22.914062 L 68.195312 22.914062 L 68.195312 57.964844 L 71.054688 57.964844 C 72.074219 57.964844 72.898438 58.785156 72.898438 59.800781 " fill-opacity="1" fill-rule="nonzero"/></g><g clip-path="url(#id3)"><path fill="#560216" d="M 18.847656 59.800781 C 18.847656 60.128906 18.753906 60.457031 18.589844 60.734375 L 12.398438 70.980469 C 12.03125 71.601562 11.351562 71.988281 10.621094 71.988281 C 9.894531 71.988281 9.210938 71.601562 8.847656 70.980469 L 2.65625 60.734375 C 2.492188 60.457031 2.398438 60.128906 2.398438 59.800781 C 2.398438 58.785156 3.21875 57.964844 4.242188 57.964844 L 7.097656 57.964844 L 7.097656 22.914062 L 14.148438 22.914062 L 14.148438 57.964844 L 17.003906 57.964844 C 18.023438 57.964844 18.847656 58.785156 18.847656 59.800781 " fill-opacity="1" fill-rule="nonzero"/></g><g clip-path="url(#id4)"><path fill="#560216" d="M 31.769531 30.289062 L 30.109375 28.640625 L 44.207031 14.617188 L 45.867188 16.269531 Z M 42.691406 29.234375 C 41.398438 29.234375 40.34375 28.1875 40.34375 26.898438 C 40.34375 25.605469 41.398438 24.5625 42.691406 24.5625 C 43.992188 24.5625 45.042969 25.605469 45.042969 26.898438 C 45.042969 28.1875 43.992188 29.234375 42.691406 29.234375 Z M 33.292969 15.214844 C 34.59375 15.214844 35.644531 16.257812 35.644531 17.550781 C 35.644531 18.839844 34.59375 19.886719 33.292969 19.886719 C 31.996094 19.886719 30.945312 18.839844 30.945312 17.550781 C 30.945312 16.257812 31.996094 15.214844 33.292969 15.214844 Z M 59.144531 22.222656 C 59.144531 19.082031 57.050781 16.40625 54.1875 15.527344 C 55.574219 12.886719 55.171875 9.570312 52.953125 7.347656 C 50.71875 5.128906 47.371094 4.707031 44.714844 6.089844 C 43.808594 3.246094 41.144531 1.191406 37.996094 1.191406 C 34.832031 1.191406 32.144531 3.269531 31.261719 6.125 C 28.605469 4.742188 25.269531 5.140625 23.035156 7.347656 C 20.804688 9.570312 20.382812 12.898438 21.765625 15.539062 C 18.914062 16.4375 16.84375 19.09375 16.84375 22.222656 C 16.84375 25.367188 18.9375 28.042969 21.800781 28.917969 C 20.417969 31.558594 20.816406 34.878906 23.035156 37.097656 C 25.269531 39.316406 28.617188 39.738281 31.273438 38.359375 C 31.8125 40.042969 32.964844 41.445312 34.46875 42.320312 C 35.503906 42.914062 36.714844 43.253906 37.996094 43.253906 C 39.285156 43.253906 40.484375 42.914062 41.519531 42.308594 C 43.035156 41.445312 44.199219 40.019531 44.726562 38.324219 C 47.382812 39.703125 50.71875 39.304688 52.953125 37.097656 C 55.183594 34.878906 55.609375 31.546875 54.222656 28.90625 C 57.074219 28.007812 59.144531 25.355469 59.144531 22.222656 " fill-opacity="1" fill-rule="nonzero"/></g></svg>