<svg xmlns="http://www.w3.org/2000/svg" xmlns:xlink="http://www.w3.org/1999/xlink" width="100" zoomAndPan="magnify" viewBox="0 0 75 74.999997" height="100" preserveAspectRatio="xMidYMid meet" version="1.0"><defs><clipPath id="id1"><path d="M 3.074219 1.453125 L 72 1.453125 L 72 73.453125 L 3.074219 73.453125 Z M 3.074219 1.453125 " clip-rule="nonzero"/></clipPath></defs><g clip-path="url(#id1)"><path fill="#560216" d="M 69.304688 53.9375 C 69.304688 54.570312 69.050781 55.175781 68.605469 55.625 C 68.152344 56.070312 67.546875 56.320312 66.90625 56.320312 L 26.214844 56.320312 C 25.578125 56.320312 24.96875 56.070312 24.519531 55.625 C 24.070312 55.175781 23.8125 54.570312 23.8125 53.9375 L 23.8125 52.742188 L 45.359375 52.742188 C 46.328125 52.734375 47.253906 52.332031 47.921875 51.640625 C 48.59375 50.945312 48.945312 50.011719 48.921875 49.054688 C 48.886719 48.085938 48.472656 47.179688 47.765625 46.527344 C 47.054688 45.875 46.109375 45.539062 45.140625 45.582031 C 45.527344 44.488281 45.359375 43.28125 44.695312 42.328125 C 44.027344 41.382812 42.9375 40.8125 41.769531 40.8125 L 40.574219 40.8125 L 40.574219 26.496094 C 41.621094 26.648438 42.671875 26.335938 43.476562 25.644531 C 44.269531 24.953125 44.71875 23.953125 44.710938 22.898438 C 44.707031 21.847656 44.246094 20.851562 43.441406 20.167969 L 29.28125 8.40625 C 28.523438 7.78125 27.597656 7.402344 26.617188 7.320312 C 25.640625 7.234375 24.667969 7.453125 23.8125 7.9375 L 23.8125 6.21875 C 23.8125 5.59375 24.070312 4.984375 24.519531 4.539062 C 24.96875 4.089844 25.578125 3.835938 26.214844 3.835938 L 66.90625 3.835938 C 67.546875 3.835938 68.152344 4.089844 68.605469 4.539062 C 69.050781 4.984375 69.304688 5.59375 69.304688 6.21875 Z M 64.828125 63.320312 C 64.277344 63.773438 63.546875 63.953125 62.839844 63.804688 L 37.976562 58.710938 L 65.714844 58.710938 C 65.605469 60.265625 66.15625 62.316406 64.828125 63.320312 Z M 56.316406 66.644531 C 56.085938 67.257812 55.609375 67.75 55.007812 68.011719 C 54.398438 68.265625 53.71875 68.265625 53.117188 68.003906 L 37.003906 60.941406 L 56.90625 65.027344 Z M 47.375 69.035156 C 47.246094 69.871094 46.683594 70.585938 45.886719 70.90625 C 45.089844 71.21875 44.1875 71.097656 43.507812 70.574219 L 31.589844 61.179688 L 47.488281 68.152344 Z M 5.859375 49.160156 C 5.859375 48.503906 6.398438 47.964844 7.058594 47.964844 L 45.359375 47.964844 C 46.027344 47.964844 46.558594 48.503906 46.558594 49.160156 C 46.558594 49.820312 46.027344 50.355469 45.359375 50.355469 L 7.058594 50.355469 C 6.398438 50.355469 5.859375 49.820312 5.859375 49.160156 Z M 9.453125 44.394531 C 9.453125 43.734375 9.984375 43.199219 10.652344 43.199219 L 41.769531 43.199219 C 42.4375 43.199219 42.96875 43.734375 42.96875 44.394531 C 42.96875 45.050781 42.4375 45.582031 41.769531 45.582031 L 10.652344 45.582031 C 9.992188 45.582031 9.453125 45.050781 9.453125 44.394531 Z M 14.238281 26.496094 L 16.636719 26.496094 L 16.636719 40.8125 L 14.238281 40.8125 Z M 25.015625 26.496094 L 27.40625 26.496094 L 27.40625 40.8125 L 25.015625 40.8125 Z M 19.027344 40.8125 L 19.027344 26.496094 L 22.621094 26.496094 L 22.621094 40.8125 Z M 29.800781 40.8125 L 29.800781 26.496094 L 33.390625 26.496094 L 33.390625 40.8125 Z M 38.183594 40.8125 L 35.785156 40.8125 L 35.785156 26.496094 L 38.183594 26.496094 Z M 10.152344 23.324219 C 9.972656 22.851562 10.113281 22.320312 10.511719 22 L 24.679688 10.234375 C 25.109375 9.882812 25.648438 9.683594 26.214844 9.683594 C 26.769531 9.683594 27.316406 9.882812 27.746094 10.242188 L 41.910156 22 C 42.300781 22.320312 42.441406 22.851562 42.269531 23.324219 C 42.101562 23.796875 41.648438 24.109375 41.144531 24.109375 L 11.28125 24.109375 C 10.765625 24.125 10.316406 23.804688 10.152344 23.324219 Z M 66.90625 1.453125 L 26.214844 1.453125 C 24.941406 1.453125 23.722656 1.957031 22.828125 2.851562 C 21.929688 3.746094 21.421875 4.960938 21.421875 6.21875 L 21.421875 9.835938 L 8.976562 20.171875 C 8.175781 20.851562 7.714844 21.847656 7.707031 22.902344 C 7.699219 23.953125 8.15625 24.953125 8.953125 25.644531 C 9.746094 26.335938 10.800781 26.648438 11.84375 26.496094 L 11.84375 40.8125 L 10.652344 40.8125 C 9.484375 40.8125 8.394531 41.382812 7.726562 42.328125 C 7.058594 43.28125 6.894531 44.488281 7.277344 45.582031 C 6.316406 45.539062 5.367188 45.875 4.660156 46.523438 C 3.949219 47.179688 3.53125 48.085938 3.5 49.054688 C 3.472656 50.011719 3.832031 50.945312 4.5 51.640625 C 5.171875 52.332031 6.089844 52.734375 7.058594 52.742188 L 21.421875 52.742188 L 21.421875 53.9375 C 21.429688 54.804688 21.664062 55.664062 22.121094 56.402344 C 22.578125 57.140625 23.230469 57.746094 24 58.140625 C 24.070312 58.265625 24.167969 58.367188 24.269531 58.449219 L 42.023438 72.449219 C 42.9375 73.144531 44.066406 73.503906 45.214844 73.445312 C 46.359375 73.386719 47.457031 72.925781 48.292969 72.140625 C 49.125 71.347656 49.652344 70.292969 49.773438 69.148438 C 50.933594 69.609375 52.789062 70.675781 54.066406 70.585938 C 55.054688 70.585938 56.007812 70.289062 56.816406 69.730469 C 57.617188 69.167969 58.226562 68.375 58.566406 67.457031 L 59.28125 65.511719 C 61.582031 65.964844 64.320312 66.96875 66.34375 65.167969 C 67.464844 64.265625 68.105469 62.90625 68.105469 61.472656 L 68.105469 58.539062 C 69.132812 58.277344 70.042969 57.683594 70.691406 56.851562 C 71.339844 56.015625 71.699219 54.992188 71.699219 53.9375 L 71.699219 6.21875 C 71.699219 4.960938 71.191406 3.746094 70.292969 2.851562 C 69.394531 1.957031 68.183594 1.453125 66.90625 1.453125 " fill-opacity="1" fill-rule="nonzero"/></g><path fill="#560216" d="M 60.324219 12.183594 L 64.515625 12.183594 C 65.167969 12.171875 65.699219 11.640625 65.699219 10.988281 C 65.699219 10.335938 65.167969 9.804688 64.515625 9.800781 L 62.121094 9.800781 L 62.121094 8.605469 C 62.121094 7.945312 61.582031 7.414062 60.921875 7.414062 C 60.269531 7.414062 59.730469 7.945312 59.730469 8.605469 L 59.730469 9.800781 C 59.730469 9.820312 59.734375 9.835938 59.742188 9.855469 C 58.34375 10.066406 57.136719 10.96875 56.554688 12.253906 C 55.96875 13.539062 56.074219 15.027344 56.835938 16.222656 C 57.597656 17.414062 58.90625 18.132812 60.324219 18.148438 L 61.523438 18.148438 C 62.507812 18.160156 63.296875 18.960938 63.296875 19.9375 C 63.296875 20.914062 62.507812 21.714844 61.523438 21.726562 L 57.335938 21.726562 C 56.683594 21.734375 56.15625 22.265625 56.15625 22.914062 C 56.15625 23.574219 56.683594 24.105469 57.335938 24.109375 L 59.730469 24.109375 L 59.730469 25.304688 C 59.730469 25.964844 60.269531 26.496094 60.921875 26.496094 C 61.582031 26.496094 62.121094 25.964844 62.121094 25.304688 L 62.121094 24.054688 C 63.519531 23.835938 64.71875 22.933594 65.304688 21.648438 C 65.878906 20.367188 65.777344 18.875 65.015625 17.6875 C 64.25 16.5 62.941406 15.777344 61.523438 15.761719 L 60.324219 15.761719 C 59.34375 15.742188 58.5625 14.953125 58.5625 13.972656 C 58.5625 12.996094 59.34375 12.195312 60.324219 12.183594 " fill-opacity="1" fill-rule="nonzero"/><path fill="#560216" d="M 26.214844 15.761719 C 27.195312 15.777344 27.984375 16.574219 27.984375 17.554688 C 27.984375 18.53125 27.195312 19.324219 26.214844 19.34375 C 25.226562 19.324219 24.441406 18.53125 24.441406 17.554688 C 24.441406 16.574219 25.226562 15.777344 26.214844 15.761719 Z M 26.214844 21.726562 C 27.695312 21.714844 29.066406 20.914062 29.804688 19.625 C 30.542969 18.339844 30.542969 16.761719 29.804688 15.476562 C 29.066406 14.191406 27.695312 13.390625 26.214844 13.371094 C 24.726562 13.390625 23.351562 14.191406 22.613281 15.476562 C 21.878906 16.761719 21.878906 18.339844 22.613281 19.625 C 23.351562 20.914062 24.726562 21.714844 26.214844 21.726562 " fill-opacity="1" fill-rule="nonzero"/></svg>