<svg xmlns="http://www.w3.org/2000/svg" xmlns:xlink="http://www.w3.org/1999/xlink" width="100" zoomAndPan="magnify" viewBox="0 0 75 74.999997" height="100" preserveAspectRatio="xMidYMid meet" version="1.0"><defs><clipPath id="id1"><path d="M 8.941406 1.175781 L 65.941406 1.175781 L 65.941406 73.925781 L 8.941406 73.925781 Z M 8.941406 1.175781 " clip-rule="nonzero"/></clipPath></defs><g clip-path="url(#id1)"><path fill="#560216" d="M 59.449219 1.175781 L 25.789062 1.175781 C 25.035156 1.179688 24.300781 1.308594 23.589844 1.566406 C 22.882812 1.824219 22.238281 2.199219 21.65625 2.683594 C 21.074219 3.167969 20.59375 3.738281 20.214844 4.394531 C 19.832031 5.046875 19.574219 5.746094 19.4375 6.492188 C 18.792969 6.613281 18.183594 6.824219 17.605469 7.132812 C 17.027344 7.4375 16.507812 7.820312 16.042969 8.285156 C 15.582031 8.75 15.199219 9.269531 14.894531 9.851562 C 14.589844 10.429688 14.378906 11.042969 14.257812 11.6875 C 13.515625 11.828125 12.816406 12.085938 12.164062 12.46875 C 11.511719 12.851562 10.945312 13.335938 10.460938 13.917969 C 9.976562 14.5 9.605469 15.148438 9.347656 15.859375 C 9.089844 16.570312 8.960938 17.308594 8.960938 18.066406 L 8.960938 67.429688 C 8.960938 67.855469 9.003906 68.28125 9.085938 68.699219 C 9.167969 69.117188 9.292969 69.523438 9.457031 69.914062 C 9.617188 70.308594 9.816406 70.683594 10.054688 71.039062 C 10.289062 71.390625 10.558594 71.71875 10.859375 72.023438 C 11.160156 72.324219 11.484375 72.59375 11.839844 72.828125 C 12.191406 73.066406 12.566406 73.265625 12.957031 73.429688 C 13.351562 73.59375 13.753906 73.71875 14.171875 73.800781 C 14.585938 73.882812 15.007812 73.925781 15.433594 73.925781 L 49.089844 73.925781 C 49.847656 73.925781 50.578125 73.796875 51.289062 73.535156 C 52 73.277344 52.644531 72.90625 53.226562 72.421875 C 53.804688 71.933594 54.285156 71.363281 54.667969 70.710938 C 55.050781 70.054688 55.308594 69.355469 55.445312 68.609375 C 56.089844 68.492188 56.699219 68.277344 57.277344 67.972656 C 57.855469 67.667969 58.375 67.28125 58.835938 66.816406 C 59.300781 66.355469 59.683594 65.832031 59.988281 65.25 C 60.292969 64.671875 60.503906 64.058594 60.625 63.414062 C 61.367188 63.277344 62.0625 63.015625 62.714844 62.632812 C 63.367188 62.25 63.9375 61.769531 64.417969 61.1875 C 64.902344 60.605469 65.273438 59.957031 65.53125 59.242188 C 65.789062 58.53125 65.917969 57.796875 65.921875 57.039062 L 65.921875 7.671875 C 65.921875 7.246094 65.878906 6.824219 65.796875 6.40625 C 65.710938 5.988281 65.589844 5.582031 65.425781 5.1875 C 65.261719 4.792969 65.0625 4.417969 64.828125 4.066406 C 64.589844 3.710938 64.324219 3.382812 64.023438 3.082031 C 63.722656 2.78125 63.394531 2.511719 63.042969 2.273438 C 62.6875 2.035156 62.316406 1.835938 61.925781 1.671875 C 61.53125 1.507812 61.128906 1.386719 60.710938 1.300781 C 60.292969 1.21875 59.875 1.175781 59.449219 1.175781 Z M 52.976562 67.429688 C 52.976562 67.949219 52.875 68.445312 52.679688 68.921875 C 52.484375 69.398438 52.203125 69.820312 51.839844 70.1875 C 51.472656 70.550781 51.054688 70.832031 50.578125 71.03125 C 50.101562 71.230469 49.605469 71.328125 49.089844 71.328125 L 15.433594 71.328125 C 14.917969 71.328125 14.421875 71.230469 13.945312 71.03125 C 13.472656 70.832031 13.050781 70.550781 12.6875 70.1875 C 12.324219 69.820312 12.042969 69.398438 11.84375 68.921875 C 11.648438 68.445312 11.550781 67.949219 11.550781 67.429688 L 11.550781 18.066406 C 11.550781 17.546875 11.648438 17.050781 11.84375 16.574219 C 12.042969 16.097656 12.324219 15.675781 12.6875 15.308594 C 13.050781 14.945312 13.472656 14.660156 13.945312 14.464844 C 14.421875 14.265625 14.917969 14.167969 15.433594 14.167969 L 49.089844 14.167969 C 49.605469 14.167969 50.101562 14.265625 50.578125 14.464844 C 51.054688 14.660156 51.472656 14.945312 51.839844 15.308594 C 52.203125 15.675781 52.484375 16.097656 52.679688 16.574219 C 52.875 17.050781 52.976562 17.546875 52.976562 18.066406 Z M 58.152344 62.234375 C 58.152344 62.636719 58.089844 63.027344 57.96875 63.410156 C 57.84375 63.792969 57.667969 64.148438 57.4375 64.476562 C 57.203125 64.800781 56.929688 65.085938 56.609375 65.328125 C 56.289062 65.570312 55.941406 65.757812 55.566406 65.894531 L 55.566406 18.066406 C 55.5625 17.636719 55.523438 17.214844 55.4375 16.796875 C 55.355469 16.378906 55.234375 15.972656 55.070312 15.582031 C 54.90625 15.1875 54.707031 14.8125 54.472656 14.457031 C 54.234375 14.105469 53.96875 13.777344 53.667969 13.472656 C 53.367188 13.171875 53.039062 12.902344 52.6875 12.667969 C 52.332031 12.429688 51.960938 12.230469 51.566406 12.066406 C 51.175781 11.902344 50.769531 11.777344 50.355469 11.695312 C 49.9375 11.613281 49.515625 11.570312 49.089844 11.570312 L 16.964844 11.570312 C 17.097656 11.191406 17.285156 10.839844 17.527344 10.519531 C 17.769531 10.199219 18.050781 9.921875 18.378906 9.691406 C 18.703125 9.457031 19.058594 9.28125 19.441406 9.15625 C 19.820312 9.035156 20.210938 8.972656 20.613281 8.972656 L 54.269531 8.972656 C 54.785156 8.972656 55.28125 9.070312 55.757812 9.269531 C 56.230469 9.464844 56.652344 9.746094 57.015625 10.113281 C 57.378906 10.476562 57.660156 10.898438 57.859375 11.378906 C 58.054688 11.855469 58.152344 12.351562 58.152344 12.867188 Z M 63.332031 57.039062 C 63.332031 57.441406 63.269531 57.832031 63.144531 58.214844 C 63.023438 58.597656 62.847656 58.953125 62.613281 59.277344 C 62.382812 59.605469 62.105469 59.890625 61.789062 60.132812 C 61.46875 60.375 61.121094 60.5625 60.742188 60.695312 L 60.742188 12.867188 C 60.742188 12.441406 60.699219 12.019531 60.617188 11.601562 C 60.535156 11.183594 60.410156 10.777344 60.246094 10.382812 C 60.085938 9.988281 59.886719 9.617188 59.648438 9.261719 C 59.414062 8.90625 59.144531 8.578125 58.84375 8.277344 C 58.542969 7.976562 58.21875 7.707031 57.863281 7.46875 C 57.511719 7.234375 57.136719 7.03125 56.746094 6.871094 C 56.351562 6.707031 55.949219 6.582031 55.53125 6.5 C 55.117188 6.414062 54.695312 6.375 54.269531 6.371094 L 22.144531 6.371094 C 22.277344 5.996094 22.464844 5.644531 22.707031 5.324219 C 22.945312 5.003906 23.230469 4.726562 23.558594 4.496094 C 23.882812 4.261719 24.238281 4.085938 24.617188 3.960938 C 25 3.839844 25.390625 3.777344 25.789062 3.773438 L 59.449219 3.773438 C 59.964844 3.773438 60.457031 3.875 60.933594 4.070312 C 61.410156 4.269531 61.832031 4.550781 62.195312 4.917969 C 62.558594 5.28125 62.839844 5.703125 63.035156 6.179688 C 63.234375 6.65625 63.332031 7.15625 63.332031 7.671875 Z M 63.332031 57.039062 " fill-opacity="1" fill-rule="nonzero"/></g><path fill="#560216" d="M 46.503906 18.066406 C 45.988281 18.066406 45.492188 18.164062 45.015625 18.363281 C 44.539062 18.558594 44.121094 18.839844 43.757812 19.207031 C 43.390625 19.570312 43.113281 19.992188 42.914062 20.472656 C 42.71875 20.949219 42.617188 21.445312 42.617188 21.960938 C 42.621094 22.546875 42.75 23.105469 43.007812 23.632812 L 38.597656 28.058594 C 38.238281 27.753906 37.835938 27.527344 37.390625 27.371094 C 36.949219 27.214844 36.492188 27.144531 36.023438 27.160156 C 35.554688 27.175781 35.101562 27.273438 34.667969 27.453125 C 34.234375 27.636719 33.847656 27.886719 33.507812 28.210938 L 29.457031 25.773438 C 29.597656 25.382812 29.667969 24.976562 29.671875 24.558594 C 29.671875 24.042969 29.574219 23.546875 29.378906 23.070312 C 29.179688 22.589844 28.898438 22.171875 28.535156 21.804688 C 28.171875 21.4375 27.75 21.15625 27.277344 20.960938 C 26.800781 20.761719 26.304688 20.664062 25.789062 20.664062 C 25.273438 20.664062 24.777344 20.761719 24.304688 20.960938 C 23.828125 21.15625 23.40625 21.4375 23.042969 21.804688 C 22.679688 22.171875 22.398438 22.589844 22.203125 23.070312 C 22.003906 23.546875 21.90625 24.042969 21.90625 24.558594 C 21.910156 25.21875 22.074219 25.839844 22.394531 26.414062 L 18.640625 31.121094 C 18.4375 31.082031 18.230469 31.058594 18.023438 31.054688 C 17.507812 31.054688 17.011719 31.15625 16.535156 31.351562 C 16.058594 31.550781 15.640625 31.832031 15.277344 32.199219 C 14.910156 32.5625 14.632812 32.984375 14.433594 33.460938 C 14.238281 33.9375 14.136719 34.4375 14.136719 34.953125 C 14.136719 35.46875 14.238281 35.96875 14.433594 36.445312 C 14.632812 36.921875 14.910156 37.34375 15.277344 37.710938 C 15.640625 38.074219 16.058594 38.355469 16.535156 38.554688 C 17.011719 38.75 17.507812 38.851562 18.023438 38.851562 C 18.539062 38.851562 19.03125 38.75 19.507812 38.554688 C 19.984375 38.355469 20.402344 38.074219 20.769531 37.710938 C 21.132812 37.34375 21.414062 36.921875 21.609375 36.445312 C 21.808594 35.96875 21.90625 35.46875 21.90625 34.953125 C 21.902344 33.980469 21.578125 33.132812 20.9375 32.40625 L 24.316406 28.164062 C 24.898438 28.40625 25.503906 28.5 26.128906 28.441406 C 26.757812 28.386719 27.335938 28.1875 27.863281 27.84375 L 32.316406 30.523438 C 32.285156 30.699219 32.269531 30.878906 32.261719 31.054688 C 32.257812 31.328125 32.285156 31.597656 32.335938 31.863281 C 32.390625 32.132812 32.472656 32.390625 32.578125 32.640625 C 32.6875 32.890625 32.816406 33.128906 32.976562 33.351562 C 33.132812 33.574219 33.308594 33.777344 33.507812 33.960938 C 33.707031 34.144531 33.925781 34.308594 34.15625 34.449219 C 34.390625 34.585938 34.636719 34.699219 34.894531 34.789062 C 35.148438 34.875 35.414062 34.9375 35.683594 34.96875 C 35.953125 35 36.222656 35.003906 36.492188 34.980469 C 36.761719 34.957031 37.027344 34.90625 37.285156 34.824219 C 37.546875 34.746094 37.792969 34.640625 38.03125 34.507812 C 38.269531 34.375 38.488281 34.21875 38.695312 34.039062 C 38.898438 33.863281 39.082031 33.664062 39.246094 33.445312 C 39.410156 33.226562 39.550781 32.996094 39.664062 32.75 C 39.78125 32.503906 39.867188 32.246094 39.929688 31.980469 C 39.992188 31.714844 40.023438 31.445312 40.027344 31.175781 C 40.035156 30.902344 40.011719 30.632812 39.960938 30.363281 L 44.835938 25.46875 C 45.363281 25.726562 45.917969 25.855469 46.503906 25.859375 C 47.019531 25.859375 47.511719 25.761719 47.988281 25.5625 C 48.464844 25.363281 48.882812 25.082031 49.25 24.71875 C 49.613281 24.351562 49.894531 23.929688 50.089844 23.453125 C 50.289062 22.976562 50.386719 22.480469 50.386719 21.960938 C 50.386719 21.445312 50.289062 20.949219 50.089844 20.472656 C 49.894531 19.992188 49.613281 19.570312 49.25 19.207031 C 48.882812 18.839844 48.464844 18.558594 47.988281 18.363281 C 47.511719 18.164062 47.019531 18.066406 46.503906 18.066406 Z M 18.023438 36.253906 C 17.851562 36.253906 17.683594 36.21875 17.527344 36.152344 C 17.367188 36.085938 17.226562 35.992188 17.105469 35.871094 C 16.984375 35.75 16.890625 35.609375 16.828125 35.449219 C 16.761719 35.292969 16.726562 35.125 16.726562 34.953125 C 16.726562 34.78125 16.761719 34.617188 16.828125 34.457031 C 16.890625 34.296875 16.984375 34.15625 17.105469 34.035156 C 17.226562 33.914062 17.367188 33.820312 17.527344 33.753906 C 17.683594 33.6875 17.851562 33.652344 18.023438 33.652344 C 18.195312 33.652344 18.359375 33.6875 18.519531 33.753906 C 18.675781 33.820312 18.816406 33.914062 18.9375 34.035156 C 19.058594 34.15625 19.152344 34.296875 19.21875 34.457031 C 19.285156 34.617188 19.316406 34.78125 19.316406 34.953125 C 19.316406 35.125 19.285156 35.292969 19.21875 35.449219 C 19.152344 35.609375 19.058594 35.75 18.9375 35.871094 C 18.816406 35.992188 18.675781 36.085938 18.519531 36.152344 C 18.359375 36.21875 18.195312 36.253906 18.023438 36.253906 Z M 24.496094 24.558594 C 24.496094 24.386719 24.527344 24.222656 24.59375 24.0625 C 24.660156 23.902344 24.753906 23.765625 24.875 23.640625 C 24.996094 23.519531 25.136719 23.425781 25.292969 23.359375 C 25.453125 23.292969 25.617188 23.261719 25.789062 23.261719 C 25.960938 23.261719 26.125 23.292969 26.285156 23.359375 C 26.445312 23.425781 26.582031 23.519531 26.703125 23.640625 C 26.828125 23.765625 26.921875 23.902344 26.984375 24.0625 C 27.050781 24.222656 27.085938 24.386719 27.085938 24.558594 C 27.085938 24.734375 27.050781 24.898438 26.984375 25.058594 C 26.921875 25.214844 26.828125 25.355469 26.703125 25.480469 C 26.582031 25.601562 26.445312 25.695312 26.285156 25.761719 C 26.125 25.828125 25.960938 25.859375 25.789062 25.859375 C 25.617188 25.859375 25.453125 25.828125 25.292969 25.761719 C 25.136719 25.695312 24.996094 25.601562 24.875 25.480469 C 24.753906 25.355469 24.660156 25.214844 24.59375 25.058594 C 24.527344 24.898438 24.496094 24.734375 24.496094 24.558594 Z M 36.144531 32.355469 C 35.972656 32.355469 35.808594 32.320312 35.652344 32.257812 C 35.492188 32.191406 35.351562 32.097656 35.230469 31.976562 C 35.109375 31.851562 35.015625 31.710938 34.949219 31.554688 C 34.882812 31.394531 34.851562 31.226562 34.851562 31.054688 C 34.851562 30.882812 34.882812 30.71875 34.949219 30.558594 C 35.015625 30.398438 35.109375 30.257812 35.230469 30.136719 C 35.351562 30.015625 35.492188 29.921875 35.652344 29.855469 C 35.808594 29.789062 35.972656 29.757812 36.144531 29.757812 C 36.316406 29.757812 36.484375 29.789062 36.640625 29.855469 C 36.800781 29.921875 36.941406 30.015625 37.0625 30.136719 C 37.183594 30.257812 37.277344 30.398438 37.34375 30.558594 C 37.40625 30.71875 37.441406 30.882812 37.441406 31.054688 C 37.441406 31.226562 37.40625 31.394531 37.34375 31.554688 C 37.277344 31.710938 37.183594 31.851562 37.0625 31.976562 C 36.941406 32.097656 36.800781 32.191406 36.640625 32.257812 C 36.484375 32.320312 36.316406 32.355469 36.144531 32.355469 Z M 46.503906 23.261719 C 46.332031 23.261719 46.164062 23.226562 46.007812 23.164062 C 45.847656 23.097656 45.707031 23.003906 45.585938 22.882812 C 45.464844 22.757812 45.371094 22.617188 45.304688 22.460938 C 45.242188 22.300781 45.207031 22.132812 45.207031 21.960938 C 45.207031 21.789062 45.242188 21.625 45.304688 21.464844 C 45.371094 21.304688 45.464844 21.164062 45.585938 21.042969 C 45.707031 20.921875 45.847656 20.828125 46.007812 20.761719 C 46.164062 20.695312 46.332031 20.664062 46.503906 20.664062 C 46.675781 20.664062 46.839844 20.695312 46.996094 20.761719 C 47.15625 20.828125 47.296875 20.921875 47.417969 21.042969 C 47.539062 21.164062 47.632812 21.304688 47.699219 21.464844 C 47.765625 21.625 47.796875 21.789062 47.796875 21.960938 C 47.796875 22.132812 47.765625 22.300781 47.699219 22.460938 C 47.632812 22.617188 47.539062 22.757812 47.417969 22.882812 C 47.296875 23.003906 47.15625 23.097656 46.996094 23.164062 C 46.839844 23.226562 46.675781 23.261719 46.503906 23.261719 Z M 46.503906 23.261719 " fill-opacity="1" fill-rule="nonzero"/><path fill="#560216" d="M 16.726562 41.449219 L 47.796875 41.449219 L 47.796875 44.046875 L 16.726562 44.046875 Z M 16.726562 41.449219 " fill-opacity="1" fill-rule="nonzero"/><path fill="#560216" d="M 16.726562 46.644531 L 47.796875 46.644531 L 47.796875 49.242188 L 16.726562 49.242188 Z M 16.726562 46.644531 " fill-opacity="1" fill-rule="nonzero"/><path fill="#560216" d="M 23.199219 51.839844 C 22.691406 51.839844 22.183594 51.890625 21.683594 51.992188 C 21.183594 52.089844 20.699219 52.238281 20.226562 52.433594 C 19.757812 52.632812 19.308594 52.871094 18.886719 53.15625 C 18.460938 53.441406 18.070312 53.761719 17.707031 54.125 C 17.347656 54.488281 17.027344 54.878906 16.742188 55.304688 C 16.457031 55.730469 16.21875 56.179688 16.023438 56.652344 C 15.828125 57.125 15.683594 57.613281 15.582031 58.117188 C 15.484375 58.617188 15.433594 59.125 15.433594 59.636719 C 15.433594 60.148438 15.484375 60.65625 15.582031 61.15625 C 15.683594 61.660156 15.828125 62.144531 16.023438 62.621094 C 16.21875 63.09375 16.457031 63.542969 16.742188 63.96875 C 17.027344 64.390625 17.347656 64.785156 17.707031 65.148438 C 18.070312 65.511719 18.460938 65.832031 18.886719 66.117188 C 19.308594 66.402344 19.757812 66.640625 20.226562 66.835938 C 20.699219 67.035156 21.183594 67.179688 21.683594 67.28125 C 22.183594 67.382812 22.691406 67.429688 23.199219 67.429688 C 23.710938 67.429688 24.214844 67.382812 24.714844 67.28125 C 25.214844 67.179688 25.703125 67.035156 26.171875 66.835938 C 26.644531 66.640625 27.089844 66.402344 27.515625 66.117188 C 27.941406 65.832031 28.332031 65.511719 28.691406 65.148438 C 29.054688 64.785156 29.375 64.390625 29.660156 63.96875 C 29.941406 63.542969 30.179688 63.09375 30.375 62.621094 C 30.570312 62.144531 30.71875 61.660156 30.820312 61.15625 C 30.917969 60.65625 30.96875 60.148438 30.96875 59.636719 C 30.96875 59.125 30.917969 58.617188 30.816406 58.117188 C 30.71875 57.613281 30.570312 57.128906 30.375 56.65625 C 30.179688 56.183594 29.941406 55.734375 29.65625 55.308594 C 29.375 54.882812 29.050781 54.488281 28.691406 54.128906 C 28.328125 53.765625 27.9375 53.441406 27.515625 53.15625 C 27.089844 52.875 26.644531 52.632812 26.171875 52.4375 C 25.699219 52.242188 25.214844 52.09375 24.714844 51.992188 C 24.214844 51.894531 23.710938 51.84375 23.199219 51.839844 Z M 28.378906 59.636719 C 28.378906 60.320312 28.25 60.980469 27.992188 61.613281 L 24.496094 58.988281 L 24.496094 54.625 C 25.050781 54.769531 25.566406 54.996094 26.042969 55.3125 C 26.523438 55.628906 26.9375 56.011719 27.289062 56.464844 C 27.640625 56.917969 27.910156 57.417969 28.09375 57.960938 C 28.28125 58.503906 28.375 59.0625 28.378906 59.636719 Z M 21.90625 54.625 L 21.90625 58.335938 L 18.207031 58.335938 C 18.441406 57.429688 18.890625 56.640625 19.554688 55.976562 C 20.214844 55.3125 21 54.863281 21.90625 54.625 Z M 18.207031 60.933594 L 22.769531 60.933594 L 26.414062 63.679688 C 26.25 63.816406 26.074219 63.941406 25.890625 64.054688 C 25.710938 64.167969 25.519531 64.269531 25.324219 64.359375 C 25.128906 64.449219 24.929688 64.527344 24.726562 64.59375 C 24.519531 64.660156 24.3125 64.710938 24.101562 64.75 C 23.890625 64.789062 23.675781 64.8125 23.460938 64.824219 C 23.246094 64.835938 23.035156 64.835938 22.820312 64.820312 C 22.605469 64.804688 22.390625 64.777344 22.179688 64.734375 C 21.972656 64.691406 21.761719 64.636719 21.558594 64.570312 C 21.355469 64.5 21.15625 64.421875 20.964844 64.328125 C 20.769531 64.234375 20.582031 64.128906 20.402344 64.011719 C 20.222656 63.894531 20.046875 63.769531 19.882812 63.628906 C 19.71875 63.492188 19.5625 63.34375 19.417969 63.183594 C 19.273438 63.027344 19.136719 62.859375 19.011719 62.683594 C 18.886719 62.507812 18.773438 62.328125 18.671875 62.136719 C 18.570312 61.945312 18.480469 61.75 18.402344 61.550781 C 18.324219 61.351562 18.257812 61.144531 18.207031 60.933594 Z M 18.207031 60.933594 " fill-opacity="1" fill-rule="nonzero"/><path fill="#560216" d="M 33.558594 53.140625 L 47.796875 53.140625 L 47.796875 55.738281 L 33.558594 55.738281 Z M 33.558594 53.140625 " fill-opacity="1" fill-rule="nonzero"/><path fill="#560216" d="M 33.558594 58.335938 L 47.796875 58.335938 L 47.796875 60.933594 L 33.558594 60.933594 Z M 33.558594 58.335938 " fill-opacity="1" fill-rule="nonzero"/><path fill="#560216" d="M 33.558594 63.535156 L 47.796875 63.535156 L 47.796875 66.132812 L 33.558594 66.132812 Z M 33.558594 63.535156 " fill-opacity="1" fill-rule="nonzero"/></svg>