<svg xmlns="http://www.w3.org/2000/svg" xmlns:xlink="http://www.w3.org/1999/xlink" width="100" zoomAndPan="magnify" viewBox="0 0 75 74.999997" height="100" preserveAspectRatio="xMidYMid meet" version="1.0"><defs><clipPath id="id1"><path d="M 1.484375 1.484375 L 73.484375 1.484375 L 73.484375 73.484375 L 1.484375 73.484375 Z M 1.484375 1.484375 " clip-rule="nonzero"/></clipPath></defs><g clip-path="url(#id1)"><path fill="#560216" d="M 71.902344 39.148438 L 66.175781 26.316406 L 66.175781 2.742188 C 66.175781 2.582031 66.144531 2.429688 66.082031 2.28125 C 66.023438 2.136719 65.9375 2.003906 65.824219 1.894531 C 65.710938 1.78125 65.582031 1.695312 65.433594 1.632812 C 65.289062 1.574219 65.136719 1.542969 64.976562 1.542969 L 23.046875 1.542969 C 22.738281 1.539062 22.46875 1.644531 22.242188 1.855469 L 12.660156 10.574219 C 12.335938 10 11.925781 9.492188 11.433594 9.050781 C 10.941406 8.613281 10.390625 8.261719 9.78125 8.003906 C 9.171875 7.75 8.539062 7.597656 7.878906 7.550781 C 7.222656 7.503906 6.570312 7.5625 5.933594 7.730469 C 5.292969 7.898438 4.699219 8.167969 4.148438 8.53125 C 3.597656 8.898438 3.121094 9.34375 2.71875 9.867188 C 2.316406 10.390625 2.007812 10.964844 1.796875 11.59375 C 1.585938 12.21875 1.480469 12.863281 1.484375 13.523438 L 1.484375 59.046875 C 1.480469 59.1875 1.507812 59.324219 1.554688 59.453125 L 6.347656 72.632812 C 6.433594 72.867188 6.578125 73.058594 6.785156 73.203125 C 6.992188 73.347656 7.21875 73.421875 7.472656 73.421875 C 7.722656 73.421875 7.953125 73.347656 8.160156 73.203125 C 8.367188 73.058594 8.511719 72.867188 8.597656 72.632812 L 10.921875 66.234375 L 53.632812 66.234375 C 53.980469 68.15625 54.722656 69.910156 55.859375 71.492188 L 56.867188 72.917969 C 57.109375 73.253906 57.4375 73.421875 57.847656 73.421875 L 72.226562 73.421875 C 72.382812 73.421875 72.535156 73.390625 72.683594 73.332031 C 72.828125 73.269531 72.960938 73.183594 73.070312 73.070312 C 73.183594 72.960938 73.269531 72.828125 73.332031 72.683594 C 73.390625 72.535156 73.421875 72.382812 73.421875 72.226562 L 73.421875 45.269531 C 73.425781 43.101562 72.917969 41.0625 71.902344 39.148438 Z M 3.878906 17.117188 L 6.273438 17.117188 L 6.273438 57.847656 L 3.878906 57.847656 Z M 7.472656 68.714844 L 4.394531 60.246094 L 10.550781 60.246094 Z M 11.066406 57.847656 L 8.671875 57.847656 L 8.671875 17.117188 L 11.066406 17.117188 Z M 11.066406 14.71875 L 3.878906 14.71875 L 3.878906 13.523438 C 3.878906 13.046875 3.96875 12.585938 4.152344 12.148438 C 4.335938 11.707031 4.59375 11.316406 4.929688 10.980469 C 5.269531 10.644531 5.65625 10.382812 6.097656 10.203125 C 6.539062 10.019531 6.996094 9.929688 7.472656 9.929688 C 7.949219 9.929688 8.40625 10.019531 8.847656 10.203125 C 9.289062 10.382812 9.675781 10.644531 10.015625 10.980469 C 10.351562 11.316406 10.609375 11.707031 10.792969 12.148438 C 10.976562 12.585938 11.066406 13.046875 11.066406 13.523438 Z M 21.847656 5.449219 L 21.847656 13.523438 L 13.460938 13.523438 C 13.460938 13.378906 13.425781 13.246094 13.425781 13.113281 Z M 53.402344 63.839844 L 11.796875 63.839844 L 13.390625 59.453125 C 13.4375 59.324219 13.464844 59.1875 13.460938 59.046875 L 13.460938 15.917969 L 23.046875 15.917969 C 23.207031 15.917969 23.359375 15.886719 23.503906 15.828125 C 23.652344 15.765625 23.78125 15.679688 23.894531 15.566406 C 24.007812 15.457031 24.09375 15.324219 24.152344 15.179688 C 24.214844 15.03125 24.246094 14.878906 24.246094 14.71875 L 24.246094 3.9375 L 63.777344 3.9375 L 63.777344 44.695312 L 61.382812 42.980469 L 61.382812 19.511719 C 61.382812 19.355469 61.351562 19.199219 61.292969 19.054688 C 61.230469 18.90625 61.144531 18.777344 61.03125 18.664062 C 60.917969 18.554688 60.789062 18.464844 60.644531 18.40625 C 60.496094 18.34375 60.34375 18.316406 60.183594 18.316406 L 17.054688 18.316406 C 16.898438 18.316406 16.746094 18.34375 16.597656 18.40625 C 16.453125 18.464844 16.320312 18.554688 16.210938 18.664062 C 16.097656 18.777344 16.011719 18.90625 15.949219 19.054688 C 15.890625 19.199219 15.859375 19.355469 15.859375 19.511719 L 15.859375 45.867188 C 15.859375 46.027344 15.890625 46.179688 15.949219 46.328125 C 16.011719 46.472656 16.097656 46.601562 16.210938 46.714844 C 16.320312 46.828125 16.453125 46.914062 16.597656 46.976562 C 16.746094 47.035156 16.898438 47.066406 17.054688 47.066406 L 51.8125 47.066406 C 51.769531 48.339844 52.121094 49.492188 52.863281 50.527344 L 56.375 55.453125 L 55.859375 56.183594 C 55.058594 57.300781 54.449219 58.511719 54.03125 59.816406 C 53.609375 61.125 53.402344 62.464844 53.402344 63.839844 Z M 43.414062 39.878906 L 43.414062 37.484375 L 58.988281 37.484375 L 58.988281 39.878906 Z M 54.675781 42.273438 C 54.039062 42.632812 53.496094 43.09375 53.042969 43.664062 C 52.796875 43.976562 52.589844 44.3125 52.421875 44.671875 L 43.414062 44.671875 L 43.414062 42.273438 Z M 43.414062 35.085938 L 43.414062 32.691406 L 58.988281 32.691406 L 58.988281 35.085938 Z M 43.414062 30.292969 L 43.414062 27.898438 L 58.988281 27.898438 L 58.988281 30.292969 Z M 25.441406 25.503906 L 25.441406 20.710938 L 58.988281 20.710938 L 58.988281 25.503906 Z M 25.441406 39.878906 L 25.441406 37.484375 L 41.015625 37.484375 L 41.015625 39.878906 Z M 41.015625 42.273438 L 41.015625 44.671875 L 25.441406 44.671875 L 25.441406 42.273438 Z M 25.441406 35.085938 L 25.441406 32.691406 L 41.015625 32.691406 L 41.015625 35.085938 Z M 25.441406 30.292969 L 25.441406 27.898438 L 41.015625 27.898438 L 41.015625 30.292969 Z M 18.253906 39.878906 L 18.253906 37.484375 L 23.046875 37.484375 L 23.046875 39.878906 Z M 23.046875 42.273438 L 23.046875 44.671875 L 18.253906 44.671875 L 18.253906 42.273438 Z M 18.253906 35.085938 L 18.253906 32.691406 L 23.046875 32.691406 L 23.046875 35.085938 Z M 18.253906 30.292969 L 18.253906 27.898438 L 23.046875 27.898438 L 23.046875 30.292969 Z M 18.253906 25.503906 L 18.253906 20.710938 L 23.046875 20.710938 L 23.046875 25.503906 Z M 71.027344 71.027344 L 58.460938 71.027344 L 57.800781 70.105469 C 57.148438 69.191406 56.652344 68.199219 56.308594 67.128906 C 55.96875 66.058594 55.796875 64.960938 55.796875 63.839844 C 55.796875 62.714844 55.96875 61.621094 56.308594 60.550781 C 56.652344 59.480469 57.148438 58.488281 57.800781 57.574219 L 58.820312 56.148438 C 58.96875 55.941406 59.042969 55.707031 59.042969 55.453125 C 59.042969 55.195312 58.96875 54.964844 58.820312 54.757812 L 54.804688 49.140625 C 54.582031 48.820312 54.417969 48.472656 54.3125 48.097656 C 54.210938 47.71875 54.175781 47.335938 54.210938 46.949219 C 54.242188 46.558594 54.339844 46.1875 54.507812 45.832031 C 54.671875 45.480469 54.890625 45.164062 55.167969 44.886719 C 55.441406 44.613281 55.757812 44.390625 56.113281 44.226562 C 56.464844 44.0625 56.835938 43.964844 57.226562 43.929688 C 57.617188 43.898438 58 43.933594 58.375 44.035156 C 58.75 44.136719 59.097656 44.300781 59.417969 44.527344 L 64.339844 48.035156 C 64.738281 48.320312 65.152344 48.347656 65.582031 48.128906 C 66.015625 47.90625 66.230469 47.550781 66.234375 47.066406 L 66.234375 32.320312 L 69.757812 40.191406 C 70.597656 41.777344 71.023438 43.472656 71.027344 45.269531 Z M 71.027344 71.027344 " fill-opacity="1" fill-rule="nonzero"/></g><path fill="#560216" d="M 15.859375 50.660156 L 37.421875 50.660156 L 37.421875 53.054688 L 15.859375 53.054688 Z M 15.859375 50.660156 " fill-opacity="1" fill-rule="nonzero"/><path fill="#560216" d="M 39.820312 50.660156 L 50.601562 50.660156 L 50.601562 53.054688 L 39.820312 53.054688 Z M 39.820312 50.660156 " fill-opacity="1" fill-rule="nonzero"/><path fill="#560216" d="M 15.859375 55.453125 L 18.253906 55.453125 L 18.253906 57.847656 L 15.859375 57.847656 Z M 15.859375 55.453125 " fill-opacity="1" fill-rule="nonzero"/><path fill="#560216" d="M 20.652344 55.453125 L 23.046875 55.453125 L 23.046875 57.847656 L 20.652344 57.847656 Z M 20.652344 55.453125 " fill-opacity="1" fill-rule="nonzero"/><path fill="#560216" d="M 25.441406 55.453125 L 50.601562 55.453125 L 50.601562 57.847656 L 25.441406 57.847656 Z M 25.441406 55.453125 " fill-opacity="1" fill-rule="nonzero"/></svg>