<svg xmlns="http://www.w3.org/2000/svg" xmlns:xlink="http://www.w3.org/1999/xlink" width="100" zoomAndPan="magnify" viewBox="0 0 75 74.999997" height="100" preserveAspectRatio="xMidYMid meet" version="1.0"><defs><clipPath id="id1"><path d="M 13 5 L 66.109375 5 L 66.109375 73.910156 L 13 73.910156 Z M 13 5 " clip-rule="nonzero"/></clipPath><clipPath id="id2"><path d="M 9.109375 1.160156 L 62 1.160156 L 62 68 L 9.109375 68 Z M 9.109375 1.160156 " clip-rule="nonzero"/></clipPath></defs><path fill="#560216" d="M 22.242188 27.835938 L 47.238281 27.835938 C 47.824219 27.835938 48.300781 27.363281 48.300781 26.777344 C 48.300781 26.191406 47.824219 25.71875 47.238281 25.71875 L 22.242188 25.71875 C 21.65625 25.71875 21.183594 26.191406 21.183594 26.777344 C 21.183594 27.363281 21.65625 27.835938 22.242188 27.835938 Z M 22.242188 27.835938 " fill-opacity="1" fill-rule="nonzero"/><path fill="#560216" d="M 22.242188 32.808594 L 47.238281 32.808594 C 47.824219 32.808594 48.300781 32.335938 48.300781 31.75 C 48.300781 31.164062 47.824219 30.691406 47.238281 30.691406 L 22.242188 30.691406 C 21.65625 30.691406 21.183594 31.164062 21.183594 31.75 C 21.183594 32.335938 21.65625 32.808594 22.242188 32.808594 Z M 22.242188 32.808594 " fill-opacity="1" fill-rule="nonzero"/><path fill="#560216" d="M 28.851562 22.863281 L 42.0625 22.863281 C 42.648438 22.863281 43.121094 22.390625 43.121094 21.804688 C 43.121094 21.21875 42.648438 20.746094 42.0625 20.746094 L 28.851562 20.746094 C 28.261719 20.746094 27.789062 21.21875 27.789062 21.804688 C 27.789062 22.390625 28.261719 22.863281 28.851562 22.863281 Z M 28.851562 22.863281 " fill-opacity="1" fill-rule="nonzero"/><path fill="#560216" d="M 42.0625 45.613281 L 28.851562 45.613281 C 28.261719 45.613281 27.789062 46.085938 27.789062 46.671875 C 27.789062 47.253906 28.261719 47.730469 28.851562 47.730469 L 42.0625 47.730469 C 42.648438 47.730469 43.121094 47.253906 43.121094 46.671875 C 43.121094 46.085938 42.648438 45.613281 42.0625 45.613281 Z M 42.0625 45.613281 " fill-opacity="1" fill-rule="nonzero"/><path fill="#560216" d="M 22.242188 37.78125 L 47.238281 37.78125 C 47.824219 37.78125 48.300781 37.308594 48.300781 36.722656 C 48.300781 36.140625 47.824219 35.664062 47.238281 35.664062 L 22.242188 35.664062 C 21.65625 35.664062 21.183594 36.140625 21.183594 36.722656 C 21.183594 37.308594 21.65625 37.78125 22.242188 37.78125 Z M 22.242188 37.78125 " fill-opacity="1" fill-rule="nonzero"/><path fill="#560216" d="M 48.300781 41.695312 C 48.300781 41.113281 47.824219 40.636719 47.238281 40.636719 L 22.242188 40.636719 C 21.65625 40.636719 21.183594 41.113281 21.183594 41.695312 C 21.183594 42.28125 21.65625 42.757812 22.242188 42.757812 L 47.238281 42.757812 C 47.824219 42.757812 48.300781 42.28125 48.300781 41.695312 Z M 48.300781 41.695312 " fill-opacity="1" fill-rule="nonzero"/><g clip-path="url(#id1)"><path fill="#560216" d="M 55.667969 12.101562 C 53.226562 12.101562 51.242188 10.125 51.242188 7.691406 C 51.242188 7.574219 51.246094 7.453125 51.257812 7.335938 C 51.328125 6.464844 50.632812 5.71875 49.753906 5.71875 L 21.15625 5.71875 C 20.277344 5.71875 19.582031 6.46875 19.652344 7.335938 C 19.863281 9.894531 17.824219 12.101562 15.238281 12.101562 C 14.398438 12.101562 13.722656 12.773438 13.722656 13.605469 L 13.722656 54.867188 C 13.722656 55.699219 14.398438 56.371094 15.242188 56.371094 C 17.683594 56.371094 19.667969 58.351562 19.667969 60.785156 C 19.667969 60.898438 19.664062 61.019531 19.652344 61.136719 C 19.582031 62.007812 20.277344 62.753906 21.15625 62.753906 L 48.613281 62.753906 L 48.613281 65.195312 L 37.933594 65.195312 C 37.347656 65.195312 36.871094 65.671875 36.871094 66.253906 C 36.871094 66.839844 37.347656 67.3125 37.933594 67.3125 L 48.613281 67.3125 L 48.613281 71.644531 C 48.613281 73.074219 50.210938 73.914062 51.390625 73.128906 C 54.132812 71.3125 53.453125 71.761719 56.191406 69.949219 C 57.765625 70.992188 59.386719 72.0625 60.996094 73.128906 C 62.183594 73.917969 63.773438 73.066406 63.773438 71.644531 L 63.773438 56.773438 C 65.203125 55.066406 66.0625 52.871094 66.0625 50.480469 C 66.0625 47.113281 64.355469 44.132812 61.757812 42.359375 L 61.757812 34.066406 C 61.757812 33.480469 61.285156 33.007812 60.699219 33.007812 C 60.113281 33.007812 59.636719 33.480469 59.636719 34.066406 L 59.636719 41.257812 C 58.859375 40.96875 58.039062 40.773438 57.1875 40.6875 L 57.1875 13.605469 C 57.1875 12.773438 56.507812 12.101562 55.675781 12.101562 L 55.671875 12.101562 M 50.734375 71.023438 L 50.734375 58.675781 C 51.207031 58.988281 51.773438 59.296875 52.308594 59.527344 L 52.308594 69.980469 Z M 55.203125 68.0625 L 54.429688 68.574219 L 54.429688 60.164062 C 55.5625 60.367188 56.789062 60.375 57.957031 60.164062 L 57.957031 68.574219 L 57.183594 68.0625 C 56.582031 67.664062 55.804688 67.664062 55.203125 68.0625 Z M 61.652344 71.023438 L 60.078125 69.980469 L 60.078125 59.527344 C 60.597656 59.304688 61.164062 59 61.652344 58.675781 Z M 63.9375 50.480469 C 63.9375 54.917969 60.164062 58.503906 55.632812 58.179688 C 51.570312 57.886719 48.449219 54.507812 48.449219 50.480469 C 48.449219 46.253906 51.894531 42.789062 56.132812 42.757812 C 56.132812 42.757812 56.136719 42.757812 56.136719 42.757812 C 56.15625 42.757812 56.175781 42.757812 56.191406 42.757812 C 60.464844 42.757812 63.9375 46.222656 63.9375 50.480469 Z M 21.789062 60.636719 C 21.714844 57.308594 19.128906 54.585938 15.847656 54.28125 L 15.847656 14.191406 C 19.128906 13.890625 21.714844 11.167969 21.789062 7.835938 L 49.121094 7.835938 C 49.195312 11.167969 51.78125 13.890625 55.0625 14.191406 L 55.0625 40.703125 C 55.042969 40.707031 55.027344 40.710938 55.007812 40.710938 C 50.078125 41.304688 46.324219 45.507812 46.324219 50.480469 C 46.324219 52.738281 47.101562 54.976562 48.613281 56.78125 L 48.613281 60.636719 Z M 21.789062 60.636719 " fill-opacity="1" fill-rule="nonzero"/></g><path fill="#560216" d="M 56.191406 44.578125 C 52.929688 44.578125 50.277344 47.226562 50.277344 50.480469 C 50.277344 53.734375 52.929688 56.378906 56.191406 56.378906 C 59.457031 56.378906 62.109375 53.734375 62.109375 50.480469 C 62.109375 47.226562 59.457031 44.578125 56.191406 44.578125 Z M 56.191406 54.261719 C 54.101562 54.261719 52.398438 52.566406 52.398438 50.480469 C 52.398438 48.394531 54.101562 46.699219 56.191406 46.699219 C 58.285156 46.699219 59.988281 48.394531 59.988281 50.480469 C 59.988281 52.566406 58.285156 54.261719 56.191406 54.261719 Z M 56.191406 54.261719 " fill-opacity="1" fill-rule="nonzero"/><g clip-path="url(#id2)"><path fill="#560216" d="M 9.152344 6.210938 L 9.152344 62.265625 C 9.152344 65.046875 11.421875 67.3125 14.214844 67.3125 L 32.976562 67.3125 C 33.566406 67.3125 34.039062 66.839844 34.039062 66.253906 C 34.039062 65.671875 33.566406 65.195312 32.976562 65.195312 L 14.214844 65.195312 C 12.59375 65.195312 11.273438 63.882812 11.273438 62.265625 L 11.273438 6.210938 C 11.273438 4.59375 12.59375 3.277344 14.214844 3.277344 L 56.695312 3.277344 C 58.316406 3.277344 59.636719 4.59375 59.636719 6.210938 L 59.636719 29.125 C 59.636719 29.710938 60.109375 30.183594 60.699219 30.183594 C 61.285156 30.183594 61.757812 29.710938 61.757812 29.125 L 61.757812 6.210938 C 61.757812 3.425781 59.488281 1.160156 56.695312 1.160156 L 14.214844 1.160156 C 11.421875 1.160156 9.152344 3.425781 9.152344 6.210938 Z M 9.152344 6.210938 " fill-opacity="1" fill-rule="nonzero"/></g></svg>