<svg xmlns="http://www.w3.org/2000/svg" xmlns:xlink="http://www.w3.org/1999/xlink" width="100" zoomAndPan="magnify" viewBox="0 0 75 74.999997" height="100" preserveAspectRatio="xMidYMid meet" version="1.0"><defs><clipPath id="id1"><path d="M 1.058594 1.058594 L 73.808594 1.058594 L 73.808594 73.808594 L 1.058594 73.808594 Z M 1.058594 1.058594 " clip-rule="nonzero"/></clipPath></defs><path fill="#560216" d="M 46.621094 45.449219 L 50.8125 45.449219 C 51.585938 45.449219 52.210938 44.824219 52.210938 44.050781 C 52.210938 43.28125 51.585938 42.65625 50.8125 42.65625 L 46.621094 42.65625 C 45.84375 42.65625 45.21875 43.28125 45.21875 44.050781 C 45.21875 44.824219 45.84375 45.449219 46.621094 45.449219 " fill-opacity="1" fill-rule="nonzero"/><path fill="#560216" d="M 39.628906 48.246094 C 38.851562 48.246094 38.230469 48.867188 38.230469 49.644531 C 38.230469 50.417969 38.851562 51.042969 39.628906 51.042969 C 40.398438 51.042969 41.027344 50.417969 41.027344 49.644531 C 41.027344 48.867188 40.398438 48.246094 39.628906 48.246094 " fill-opacity="1" fill-rule="nonzero"/><path fill="#560216" d="M 25.121094 44.976562 C 25.945312 45.351562 26.871094 45.535156 27.792969 45.535156 C 28.71875 45.535156 29.648438 45.351562 30.46875 44.976562 C 31.171875 44.65625 31.484375 43.828125 31.167969 43.125 C 30.847656 42.421875 30.019531 42.109375 29.316406 42.429688 C 28.40625 42.839844 27.183594 42.839844 26.277344 42.429688 C 25.78125 42.203125 25.226562 42.296875 24.828125 42.613281 C 24.664062 42.746094 24.519531 42.917969 24.425781 43.125 C 24.15625 43.71875 24.34375 44.402344 24.828125 44.789062 C 24.917969 44.863281 25.015625 44.925781 25.121094 44.976562 " fill-opacity="1" fill-rule="nonzero"/><path fill="#560216" d="M 33.582031 35.585938 C 34.359375 35.585938 34.984375 34.957031 34.984375 34.1875 L 34.984375 33.96875 C 34.984375 33.199219 34.359375 32.570312 33.582031 32.570312 C 32.8125 32.570312 32.183594 33.199219 32.183594 33.96875 L 32.183594 34.1875 C 32.183594 34.957031 32.8125 35.585938 33.582031 35.585938 " fill-opacity="1" fill-rule="nonzero"/><path fill="#560216" d="M 27.792969 40.023438 C 28.570312 40.023438 29.191406 39.402344 29.191406 38.625 L 29.191406 35.417969 C 29.191406 34.644531 28.570312 34.019531 27.792969 34.019531 C 27.023438 34.019531 26.398438 34.644531 26.398438 35.417969 L 26.398438 38.625 C 26.398438 39.402344 27.023438 40.023438 27.792969 40.023438 " fill-opacity="1" fill-rule="nonzero"/><path fill="#560216" d="M 22.03125 32.574219 C 22.023438 32.574219 22.015625 32.570312 22.007812 32.570312 C 21.234375 32.570312 20.609375 33.199219 20.609375 33.96875 L 20.609375 34.1875 C 20.609375 34.957031 21.234375 35.585938 22.007812 35.585938 C 22.015625 35.585938 22.023438 35.582031 22.03125 35.582031 C 22.792969 35.570312 23.402344 34.953125 23.402344 34.1875 L 23.402344 33.96875 C 23.402344 33.207031 22.792969 32.585938 22.03125 32.574219 " fill-opacity="1" fill-rule="nonzero"/><path fill="#560216" d="M 49.996094 13.640625 C 49.996094 14.410156 50.625 15.039062 51.394531 15.039062 L 63.980469 15.039062 C 64.75 15.039062 65.378906 14.410156 65.378906 13.640625 C 65.378906 12.867188 64.75 12.242188 63.980469 12.242188 L 51.394531 12.242188 C 50.625 12.242188 49.996094 12.867188 49.996094 13.640625 " fill-opacity="1" fill-rule="nonzero"/><path fill="#560216" d="M 65.378906 28.03125 L 59.378906 28.03125 C 58.605469 28.03125 57.980469 28.65625 57.980469 29.429688 C 57.980469 30.199219 58.605469 30.828125 59.378906 30.828125 L 66.773438 30.828125 C 67.550781 30.828125 68.171875 30.199219 68.171875 29.429688 L 68.171875 22.027344 C 68.171875 21.257812 67.550781 20.628906 66.773438 20.628906 C 66.003906 20.628906 65.378906 21.257812 65.378906 22.027344 L 65.378906 28.03125 " fill-opacity="1" fill-rule="nonzero"/><path fill="#560216" d="M 37.410156 9.445312 L 58.386719 9.445312 C 59.160156 9.445312 59.785156 8.820312 59.785156 8.046875 C 59.785156 7.273438 59.160156 6.648438 58.386719 6.648438 L 37.410156 6.648438 C 36.640625 6.648438 36.011719 7.273438 36.011719 8.046875 C 36.011719 8.820312 36.640625 9.445312 37.410156 9.445312 " fill-opacity="1" fill-rule="nonzero"/><g clip-path="url(#id1)"><path fill="#560216" d="M 70.96875 70.96875 L 54.019531 70.96875 C 54.476562 68.003906 54.691406 65.90625 54.402344 64.710938 C 54.308594 64.34375 54.1875 63.992188 54.054688 63.664062 C 54.726562 63.5625 55.238281 62.984375 55.238281 62.289062 C 55.238281 61.515625 54.613281 60.890625 53.839844 60.890625 L 52.105469 60.890625 C 50.816406 59.703125 49.214844 58.925781 47.753906 58.332031 L 47.105469 58.09375 L 56.113281 58.09375 C 56.886719 58.09375 57.511719 57.46875 57.511719 56.695312 C 57.511719 55.921875 56.886719 55.292969 56.113281 55.292969 L 39.664062 55.292969 C 39.632812 55.292969 39.601562 55.304688 39.566406 55.304688 L 35.179688 53.683594 L 33.898438 49.835938 C 35.316406 48.828125 36.488281 47.375 37.507812 45.449219 L 41.023438 45.449219 C 41.796875 45.449219 42.421875 44.824219 42.421875 44.050781 C 42.421875 43.28125 41.796875 42.65625 41.023438 42.65625 L 38.765625 42.65625 C 39.101562 41.789062 39.425781 40.855469 39.734375 39.859375 L 50.8125 39.859375 C 51.585938 39.859375 52.210938 39.230469 52.210938 38.457031 C 52.210938 37.6875 51.585938 37.058594 50.8125 37.058594 L 40.546875 37.058594 C 40.855469 35.894531 41.167969 34.652344 41.476562 33.332031 L 52.910156 33.332031 C 53.679688 33.332031 54.308594 32.707031 54.308594 31.933594 C 54.308594 31.160156 53.679688 30.539062 52.910156 30.539062 L 43.089844 30.539062 C 43.179688 30.070312 43.183594 29.648438 43.183594 29.394531 L 43.183594 28.714844 C 43.183594 28.382812 43.167969 28.0625 43.140625 27.738281 L 52.910156 27.738281 C 53.679688 27.738281 54.308594 27.113281 54.308594 26.339844 C 54.308594 25.570312 53.679688 24.941406 52.910156 24.941406 L 42.574219 24.941406 C 42.238281 23.945312 41.769531 23.011719 41.179688 22.144531 L 51.511719 22.144531 C 52.28125 22.144531 52.910156 21.519531 52.910156 20.746094 C 52.910156 19.976562 52.28125 19.351562 51.511719 19.351562 L 38.539062 19.351562 C 35.828125 17.230469 32.101562 15.984375 27.800781 15.984375 C 27.796875 15.984375 27.796875 15.984375 27.796875 15.984375 C 26.777344 15.984375 25.789062 16.066406 24.828125 16.222656 L 24.828125 3.851562 L 70.96875 3.851562 Z M 51.191406 70.96875 L 41.964844 70.96875 L 42.472656 66.847656 C 42.566406 66.078125 42.023438 65.382812 41.257812 65.285156 C 40.496094 65.203125 39.792969 65.738281 39.695312 66.503906 L 39.148438 70.96875 L 29.191406 70.96875 L 29.191406 58.550781 L 34.125 56.273438 L 46.742188 60.9375 C 49.78125 62.171875 51.214844 63.457031 51.683594 65.375 C 51.914062 66.3125 51.398438 69.644531 51.191406 70.96875 Z M 27.792969 56.117188 L 27.511719 55.988281 L 24.828125 54.746094 L 23.429688 54.101562 L 23.246094 54.019531 L 23.429688 53.46875 L 24.226562 51.082031 C 24.425781 51.140625 24.625 51.195312 24.828125 51.246094 C 25.734375 51.464844 26.71875 51.574219 27.796875 51.574219 C 29.121094 51.574219 30.300781 51.410156 31.367188 51.082031 L 32.34375 54.015625 L 27.886719 56.074219 Z M 22.03125 46.320312 C 20.105469 44.082031 18.621094 40.089844 17.023438 33.449219 C 18.144531 33.144531 18.824219 32.386719 19.347656 31.789062 C 19.847656 31.21875 20.15625 30.890625 20.683594 30.773438 C 21.136719 30.667969 21.585938 30.59375 22.03125 30.523438 C 22.503906 30.453125 22.96875 30.394531 23.429688 30.347656 C 23.847656 30.300781 24.261719 30.265625 24.667969 30.226562 C 24.71875 30.222656 24.773438 30.21875 24.828125 30.214844 C 27.257812 30 29.75 29.746094 31.914062 28.058594 C 34.53125 30.980469 36.730469 32.585938 38.683594 32.988281 C 36.871094 40.625 35.226562 44.859375 32.9375 46.972656 C 32.558594 47.320312 32.171875 47.605469 31.761719 47.84375 C 30.621094 48.503906 29.328125 48.777344 27.796875 48.777344 C 26.695312 48.777344 25.71875 48.636719 24.828125 48.3125 C 24.480469 48.183594 24.152344 48.027344 23.832031 47.839844 C 23.695312 47.761719 23.5625 47.675781 23.429688 47.589844 C 23.164062 47.402344 22.910156 47.199219 22.660156 46.96875 C 22.445312 46.769531 22.238281 46.554688 22.03125 46.320312 Z M 16.394531 30.722656 C 16.269531 30.777344 16.144531 30.796875 15.984375 30.796875 C 15.679688 30.796875 15.589844 30.703125 15.546875 30.660156 C 15.292969 30.402344 15.191406 29.769531 15.207031 29.371094 C 15.207031 25.191406 17.945312 21.648438 22.03125 19.917969 C 22.484375 19.726562 22.949219 19.554688 23.429688 19.410156 C 23.886719 19.273438 24.351562 19.160156 24.828125 19.0625 C 25.777344 18.878906 26.769531 18.777344 27.796875 18.777344 C 27.796875 18.777344 27.796875 18.777344 27.800781 18.777344 C 35.089844 18.777344 40.386719 22.957031 40.386719 28.714844 L 40.386719 29.394531 C 40.386719 30.019531 40.3125 30.175781 40.316406 30.175781 C 40.316406 30.179688 40.199219 30.257812 39.789062 30.292969 C 39.652344 30.300781 39.480469 30.292969 39.28125 30.253906 C 38.261719 30.054688 36.34375 29.023438 33.09375 25.152344 C 33.089844 25.148438 33.085938 25.144531 33.082031 25.140625 C 33.078125 25.136719 33.074219 25.128906 33.070312 25.125 L 31.6875 23.554688 C 31.179688 22.972656 30.296875 22.914062 29.714844 23.425781 C 29.136719 23.9375 29.078125 24.820312 29.589844 25.398438 L 30.066406 25.941406 C 28.617188 27.007812 26.894531 27.222656 24.828125 27.40625 C 24.695312 27.417969 24.558594 27.429688 24.421875 27.441406 C 24.101562 27.46875 23.769531 27.5 23.429688 27.53125 C 22.976562 27.574219 22.511719 27.632812 22.03125 27.699219 C 21.390625 27.785156 20.734375 27.890625 20.058594 28.046875 C 18.628906 28.375 17.828125 29.28125 17.246094 29.945312 C 16.855469 30.390625 16.632812 30.617188 16.394531 30.722656 Z M 72.371094 1.054688 L 23.429688 1.054688 C 22.65625 1.054688 22.03125 1.683594 22.03125 2.453125 L 22.03125 16.921875 C 16.339844 18.871094 12.410156 23.632812 12.410156 29.308594 C 12.402344 29.515625 12.355469 31.367188 13.523438 32.585938 C 13.683594 32.757812 13.863281 32.910156 14.054688 33.035156 C 16.09375 41.816406 18.09375 47.269531 21.695312 49.832031 L 20.410156 53.683594 L 13.363281 56.289062 C 12.640625 56.558594 12.273438 57.359375 12.539062 58.085938 C 12.808594 58.808594 13.613281 59.175781 14.335938 58.910156 L 21.464844 56.273438 L 22.03125 56.535156 L 22.265625 56.640625 L 23.429688 57.179688 L 24.828125 57.824219 L 26.398438 58.550781 L 26.398438 70.96875 L 15.480469 70.96875 L 14.929688 66.503906 C 14.835938 65.738281 14.132812 65.203125 13.371094 65.285156 C 12.601562 65.382812 12.058594 66.078125 12.152344 66.847656 L 12.65625 70.96875 L 4.402344 70.96875 C 4.195312 69.675781 3.855469 67.46875 3.855469 66.085938 C 3.855469 65.636719 3.890625 65.441406 3.90625 65.378906 C 4.433594 63.238281 5.859375 62.269531 8.851562 60.9375 L 9.089844 60.847656 C 9.8125 60.582031 10.183594 59.777344 9.914062 59.054688 C 9.644531 58.328125 8.839844 57.960938 8.117188 58.230469 L 7.835938 58.332031 C 7.808594 58.339844 7.78125 58.351562 7.75 58.363281 C 4.679688 59.734375 2.066406 61.15625 1.1875 64.714844 C 1.101562 65.078125 1.058594 65.527344 1.058594 66.085938 C 1.058594 67.75 1.441406 70.144531 1.667969 71.578125 C 1.730469 71.980469 1.78125 72.285156 1.796875 72.425781 C 1.824219 73.167969 2.441406 73.765625 3.195312 73.765625 L 72.371094 73.765625 C 73.140625 73.765625 73.769531 73.136719 73.769531 72.367188 L 73.769531 2.453125 C 73.769531 1.683594 73.140625 1.054688 72.371094 1.054688 " fill-opacity="1" fill-rule="nonzero"/></g><path fill="#560216" d="M 31.820312 15.039062 L 45.804688 15.039062 C 46.574219 15.039062 47.199219 14.410156 47.199219 13.640625 C 47.199219 12.867188 46.574219 12.242188 45.804688 12.242188 L 31.820312 12.242188 C 31.050781 12.242188 30.421875 12.867188 30.421875 13.640625 C 30.421875 14.410156 31.050781 15.039062 31.820312 15.039062 " fill-opacity="1" fill-rule="nonzero"/><path fill="#560216" d="M 66.773438 38.109375 C 66.003906 38.109375 65.378906 38.734375 65.378906 39.507812 L 65.378906 45.507812 L 59.378906 45.507812 C 58.605469 45.507812 57.980469 46.136719 57.980469 46.90625 C 57.980469 47.679688 58.605469 48.304688 59.378906 48.304688 L 66.773438 48.304688 C 67.550781 48.304688 68.171875 47.679688 68.171875 46.90625 L 68.171875 39.507812 C 68.171875 38.734375 67.550781 38.109375 66.773438 38.109375 " fill-opacity="1" fill-rule="nonzero"/><path fill="#560216" d="M 58.269531 25.292969 C 58.542969 25.292969 58.8125 25.214844 59.054688 25.050781 L 63.363281 22.136719 C 64.003906 21.707031 64.171875 20.839844 63.738281 20.195312 C 63.308594 19.558594 62.4375 19.386719 61.796875 19.820312 L 58.597656 21.984375 L 57.238281 20.148438 C 56.777344 19.527344 55.902344 19.394531 55.28125 19.855469 C 54.664062 20.316406 54.53125 21.191406 54.992188 21.8125 L 57.148438 24.722656 C 57.421875 25.097656 57.84375 25.292969 58.269531 25.292969 " fill-opacity="1" fill-rule="nonzero"/><path fill="#560216" d="M 66.773438 55.292969 C 66.003906 55.292969 65.378906 55.921875 65.378906 56.695312 L 65.378906 62.695312 L 59.378906 62.695312 C 58.605469 62.695312 57.980469 63.320312 57.980469 64.09375 C 57.980469 64.867188 58.605469 65.492188 59.378906 65.492188 L 66.773438 65.492188 C 67.550781 65.492188 68.171875 64.867188 68.171875 64.09375 L 68.171875 56.695312 C 68.171875 55.921875 67.550781 55.292969 66.773438 55.292969 " fill-opacity="1" fill-rule="nonzero"/><path fill="#560216" d="M 59.054688 42.527344 L 63.363281 39.617188 C 64.003906 39.183594 64.171875 38.316406 63.738281 37.675781 C 63.308594 37.035156 62.4375 36.867188 61.796875 37.300781 L 58.597656 39.460938 L 57.238281 37.625 C 56.777344 37.003906 55.902344 36.875 55.28125 37.335938 C 54.664062 37.792969 54.53125 38.671875 54.992188 39.292969 L 57.148438 42.203125 C 57.421875 42.574219 57.84375 42.769531 58.269531 42.769531 C 58.542969 42.769531 58.8125 42.691406 59.054688 42.527344 " fill-opacity="1" fill-rule="nonzero"/><path fill="#560216" d="M 50.816406 48.246094 C 50.039062 48.246094 49.417969 48.867188 49.417969 49.644531 C 49.417969 50.417969 50.039062 51.042969 50.816406 51.042969 C 51.582031 51.042969 52.214844 50.417969 52.214844 49.644531 C 52.214844 48.867188 51.582031 48.246094 50.816406 48.246094 " fill-opacity="1" fill-rule="nonzero"/><path fill="#560216" d="M 45.21875 48.246094 C 44.445312 48.246094 43.824219 48.867188 43.824219 49.644531 C 43.824219 50.417969 44.445312 51.042969 45.21875 51.042969 C 45.992188 51.042969 46.621094 50.417969 46.621094 49.644531 C 46.621094 48.867188 45.992188 48.246094 45.21875 48.246094 " fill-opacity="1" fill-rule="nonzero"/></svg>