<svg xmlns="http://www.w3.org/2000/svg" xmlns:xlink="http://www.w3.org/1999/xlink" width="100" zoomAndPan="magnify" viewBox="0 0 75 74.999997" height="100" preserveAspectRatio="xMidYMid meet" version="1.0"><defs><clipPath id="id1"><path d="M 6.867188 0.757812 L 68.367188 0.757812 L 68.367188 74.257812 L 6.867188 74.257812 Z M 6.867188 0.757812 " clip-rule="nonzero"/></clipPath></defs><path fill="#560216" d="M 16.71875 22.808594 C 16.71875 23.484375 17.269531 24.035156 17.949219 24.035156 L 20.40625 24.035156 L 20.40625 30.160156 C 20.40625 30.835938 20.957031 31.382812 21.636719 31.382812 C 22.316406 31.382812 22.867188 30.835938 22.867188 30.160156 L 22.867188 24.035156 L 25.324219 24.035156 C 26.003906 24.035156 26.554688 23.484375 26.554688 22.808594 C 26.554688 22.132812 26.003906 21.585938 25.324219 21.585938 L 17.949219 21.585938 C 17.269531 21.585938 16.71875 22.132812 16.71875 22.808594 Z M 16.71875 22.808594 " fill-opacity="1" fill-rule="nonzero"/><path fill="#560216" d="M 26.003906 31.253906 C 26.609375 31.558594 27.347656 31.3125 27.652344 30.707031 L 28.542969 28.933594 L 31.941406 28.933594 L 32.828125 30.707031 C 33.046875 31.136719 33.480469 31.382812 33.929688 31.382812 C 34.113281 31.382812 34.300781 31.34375 34.480469 31.253906 C 35.085938 30.953125 35.332031 30.214844 35.027344 29.609375 L 31.339844 22.261719 C 31.132812 21.847656 30.707031 21.585938 30.242188 21.585938 C 29.777344 21.585938 29.351562 21.847656 29.140625 22.261719 L 25.453125 29.609375 C 25.152344 30.214844 25.398438 30.953125 26.003906 31.253906 Z M 30.710938 26.484375 L 29.773438 26.484375 L 30.242188 25.546875 Z M 30.710938 26.484375 " fill-opacity="1" fill-rule="nonzero"/><path fill="#560216" d="M 36.746094 31.023438 C 36.988281 31.265625 37.300781 31.382812 37.617188 31.382812 C 37.933594 31.382812 38.246094 31.265625 38.488281 31.023438 L 41.304688 28.214844 L 44.125 31.023438 C 44.363281 31.265625 44.679688 31.382812 44.992188 31.382812 C 45.308594 31.382812 45.621094 31.265625 45.863281 31.023438 C 46.34375 30.546875 46.34375 29.769531 45.863281 29.292969 L 43.042969 26.484375 L 45.863281 23.675781 C 46.34375 23.195312 46.34375 22.421875 45.863281 21.941406 C 45.382812 21.464844 44.605469 21.464844 44.125 21.941406 L 41.304688 24.75 L 38.488281 21.941406 C 38.007812 21.464844 37.226562 21.464844 36.746094 21.941406 C 36.269531 22.421875 36.269531 23.195312 36.746094 23.675781 L 39.566406 26.484375 L 36.746094 29.292969 C 36.269531 29.769531 36.269531 30.546875 36.746094 31.023438 Z M 36.746094 31.023438 " fill-opacity="1" fill-rule="nonzero"/><path fill="#560216" d="M 48.679688 24.035156 L 49.910156 24.035156 C 50.589844 24.035156 51.140625 23.484375 51.140625 22.808594 C 51.140625 22.132812 50.589844 21.585938 49.910156 21.585938 L 48.679688 21.585938 C 48.003906 21.585938 47.453125 22.132812 47.453125 22.808594 C 47.453125 23.484375 48.003906 24.035156 48.679688 24.035156 Z M 48.679688 24.035156 " fill-opacity="1" fill-rule="nonzero"/><path fill="#560216" d="M 48.679688 27.710938 L 49.910156 27.710938 C 50.589844 27.710938 51.140625 27.160156 51.140625 26.484375 C 51.140625 25.808594 50.589844 25.257812 49.910156 25.257812 L 48.679688 25.257812 C 48.003906 25.257812 47.453125 25.808594 47.453125 26.484375 C 47.453125 27.160156 48.003906 27.710938 48.679688 27.710938 Z M 48.679688 27.710938 " fill-opacity="1" fill-rule="nonzero"/><path fill="#560216" d="M 48.679688 31.382812 L 49.910156 31.382812 C 50.589844 31.382812 51.140625 30.835938 51.140625 30.160156 C 51.140625 29.484375 50.589844 28.933594 49.910156 28.933594 L 48.679688 28.933594 C 48.003906 28.933594 47.453125 29.484375 47.453125 30.160156 C 47.453125 30.835938 48.003906 31.382812 48.679688 31.382812 Z M 48.679688 31.382812 " fill-opacity="1" fill-rule="nonzero"/><path fill="#560216" d="M 49.910156 33.835938 L 29.011719 33.835938 C 28.332031 33.835938 27.78125 34.382812 27.78125 35.058594 C 27.78125 35.734375 28.332031 36.285156 29.011719 36.285156 L 49.910156 36.285156 C 50.589844 36.285156 51.140625 35.734375 51.140625 35.058594 C 51.140625 34.382812 50.589844 33.835938 49.910156 33.835938 Z M 49.910156 33.835938 " fill-opacity="1" fill-rule="nonzero"/><path fill="#560216" d="M 49.910156 38.734375 L 33.929688 38.734375 C 33.25 38.734375 32.699219 39.28125 32.699219 39.960938 C 32.699219 40.636719 33.25 41.183594 33.929688 41.183594 L 49.910156 41.183594 C 50.589844 41.183594 51.140625 40.636719 51.140625 39.960938 C 51.140625 39.28125 50.589844 38.734375 49.910156 38.734375 Z M 49.910156 38.734375 " fill-opacity="1" fill-rule="nonzero"/><path fill="#560216" d="M 49.910156 43.632812 L 33.929688 43.632812 C 33.25 43.632812 32.699219 44.183594 32.699219 44.859375 C 32.699219 45.535156 33.25 46.085938 33.929688 46.085938 L 49.910156 46.085938 C 50.589844 46.085938 51.140625 45.535156 51.140625 44.859375 C 51.140625 44.183594 50.589844 43.632812 49.910156 43.632812 Z M 49.910156 43.632812 " fill-opacity="1" fill-rule="nonzero"/><path fill="#560216" d="M 49.910156 48.535156 L 32.699219 48.535156 C 32.019531 48.535156 31.472656 49.082031 31.472656 49.757812 C 31.472656 50.433594 32.019531 50.984375 32.699219 50.984375 L 49.910156 50.984375 C 50.589844 50.984375 51.140625 50.433594 51.140625 49.757812 C 51.140625 49.082031 50.589844 48.535156 49.910156 48.535156 Z M 49.910156 48.535156 " fill-opacity="1" fill-rule="nonzero"/><path fill="#560216" d="M 44.992188 53.433594 L 17.949219 53.433594 C 17.269531 53.433594 16.71875 53.984375 16.71875 54.660156 C 16.71875 55.335938 17.269531 55.882812 17.949219 55.882812 L 44.992188 55.882812 C 45.671875 55.882812 46.222656 55.335938 46.222656 54.660156 C 46.222656 53.984375 45.671875 53.433594 44.992188 53.433594 Z M 44.992188 53.433594 " fill-opacity="1" fill-rule="nonzero"/><g clip-path="url(#id1)"><path fill="#560216" d="M 68.347656 63.234375 C 68.347656 58.441406 65.265625 54.359375 60.972656 52.839844 L 60.972656 10.867188 C 60.972656 9.34375 59.734375 8.109375 58.207031 8.109375 L 48.441406 8.109375 C 47.902344 6.679688 46.515625 5.660156 44.898438 5.660156 L 42.535156 5.660156 L 42.535156 4.953125 C 42.535156 2.640625 40.648438 0.757812 38.328125 0.757812 L 29.53125 0.757812 C 27.210938 0.757812 25.324219 2.640625 25.324219 4.953125 L 25.324219 5.660156 L 22.960938 5.660156 C 21.339844 5.660156 19.957031 6.679688 19.417969 8.109375 L 9.652344 8.109375 C 8.125 8.109375 6.886719 9.34375 6.886719 10.867188 L 6.886719 71.503906 C 6.886719 73.023438 8.125 74.257812 9.652344 74.257812 L 58.207031 74.257812 C 58.515625 74.257812 58.8125 74.207031 59.097656 74.109375 C 64.339844 73.246094 68.347656 68.699219 68.347656 63.234375 Z M 58.515625 10.867188 L 58.515625 52.277344 C 58.113281 52.234375 57.703125 52.210938 57.285156 52.210938 C 56.871094 52.210938 56.460938 52.234375 56.054688 52.277344 L 56.054688 13.007812 C 56.054688 12.332031 55.507812 11.785156 54.828125 11.785156 L 48.679688 11.785156 L 48.679688 10.558594 L 58.207031 10.558594 C 58.378906 10.558594 58.515625 10.695312 58.515625 10.867188 Z M 22.65625 17.910156 L 45.199219 17.910156 C 47.121094 17.910156 48.679688 16.351562 48.679688 14.441406 L 48.679688 14.234375 L 53.597656 14.234375 L 53.597656 52.839844 C 49.304688 54.359375 46.222656 58.441406 46.222656 63.234375 C 46.222656 64.992188 46.640625 66.65625 47.378906 68.132812 L 14.261719 68.132812 L 14.261719 14.234375 L 19.179688 14.234375 L 19.179688 14.441406 C 19.179688 16.351562 20.738281 17.910156 22.65625 17.910156 Z M 21.636719 9.429688 C 21.636719 8.703125 22.230469 8.109375 22.960938 8.109375 L 26.554688 8.109375 C 27.230469 8.109375 27.78125 7.558594 27.78125 6.882812 L 27.78125 4.953125 C 27.78125 3.992188 28.566406 3.210938 29.53125 3.210938 L 38.328125 3.210938 C 39.292969 3.210938 40.074219 3.992188 40.074219 4.953125 L 40.074219 6.882812 C 40.074219 7.558594 40.625 8.109375 41.304688 8.109375 L 44.894531 8.109375 C 45.628906 8.109375 46.222656 8.703125 46.222656 9.429688 L 46.222656 14.441406 C 46.222656 15.003906 45.765625 15.460938 45.199219 15.460938 L 22.65625 15.460938 C 22.09375 15.460938 21.636719 15.003906 21.636719 14.441406 Z M 9.652344 71.808594 C 9.480469 71.808594 9.34375 71.671875 9.34375 71.503906 L 9.34375 10.867188 C 9.34375 10.695312 9.480469 10.558594 9.652344 10.558594 L 19.179688 10.558594 L 19.179688 11.785156 L 13.03125 11.785156 C 12.351562 11.785156 11.800781 12.332031 11.800781 13.007812 L 11.800781 69.359375 C 11.800781 70.035156 12.351562 70.585938 13.03125 70.585938 L 49.046875 70.585938 C 49.445312 71.027344 49.878906 71.433594 50.34375 71.808594 Z M 57.285156 71.808594 C 52.539062 71.808594 48.679688 67.960938 48.679688 63.234375 C 48.679688 58.503906 52.539062 54.660156 57.285156 54.660156 C 62.03125 54.660156 65.890625 58.503906 65.890625 63.234375 C 65.890625 67.960938 62.03125 71.808594 57.285156 71.808594 Z M 57.285156 71.808594 " fill-opacity="1" fill-rule="nonzero"/></g><path fill="#560216" d="M 25.324219 63.234375 L 17.949219 63.234375 C 17.269531 63.234375 16.71875 63.78125 16.71875 64.460938 C 16.71875 65.136719 17.269531 65.683594 17.949219 65.683594 L 25.324219 65.683594 C 26.003906 65.683594 26.554688 65.136719 26.554688 64.460938 C 26.554688 63.78125 26.003906 63.234375 25.324219 63.234375 Z M 25.324219 63.234375 " fill-opacity="1" fill-rule="nonzero"/><path fill="#560216" d="M 37.617188 63.234375 L 30.242188 63.234375 C 29.5625 63.234375 29.011719 63.78125 29.011719 64.460938 C 29.011719 65.136719 29.5625 65.683594 30.242188 65.683594 L 37.617188 65.683594 C 38.296875 65.683594 38.847656 65.136719 38.847656 64.460938 C 38.847656 63.78125 38.296875 63.234375 37.617188 63.234375 Z M 37.617188 63.234375 " fill-opacity="1" fill-rule="nonzero"/><path fill="#560216" d="M 60.71875 59.304688 L 54.828125 65.175781 L 53.238281 63.59375 C 52.757812 63.113281 51.980469 63.113281 51.5 63.59375 C 51.019531 64.070312 51.019531 64.847656 51.5 65.324219 L 53.957031 67.773438 C 54.199219 68.015625 54.511719 68.132812 54.828125 68.132812 C 55.140625 68.132812 55.457031 68.015625 55.695312 67.773438 L 62.457031 61.039062 C 62.9375 60.558594 62.9375 59.785156 62.457031 59.304688 C 61.976562 58.828125 61.199219 58.828125 60.71875 59.304688 Z M 60.71875 59.304688 " fill-opacity="1" fill-rule="nonzero"/><path fill="#560216" d="M 24.09375 50.984375 C 28.160156 50.984375 31.472656 47.6875 31.472656 43.632812 C 31.472656 39.582031 28.160156 36.285156 24.09375 36.285156 C 20.027344 36.285156 16.71875 39.582031 16.71875 43.632812 C 16.71875 47.6875 20.027344 50.984375 24.09375 50.984375 Z M 24.09375 38.734375 C 26.804688 38.734375 29.011719 40.933594 29.011719 43.632812 C 29.011719 46.335938 26.804688 48.535156 24.09375 48.535156 C 21.382812 48.535156 19.179688 46.335938 19.179688 43.632812 C 19.179688 40.933594 21.382812 38.734375 24.09375 38.734375 Z M 24.09375 38.734375 " fill-opacity="1" fill-rule="nonzero"/><path fill="#560216" d="M 21.636719 47.308594 C 21.949219 47.308594 22.265625 47.1875 22.503906 46.949219 L 27.421875 42.050781 C 27.902344 41.570312 27.902344 40.796875 27.421875 40.316406 C 26.941406 39.839844 26.164062 39.839844 25.683594 40.316406 L 20.765625 45.21875 C 20.285156 45.695312 20.285156 46.472656 20.765625 46.949219 C 21.007812 47.1875 21.320312 47.308594 21.636719 47.308594 Z M 21.636719 47.308594 " fill-opacity="1" fill-rule="nonzero"/><path fill="#560216" d="M 21.640625 42.410156 C 22.320312 42.410156 22.867188 41.859375 22.867188 41.183594 C 22.867188 40.507812 22.320312 39.960938 21.640625 39.960938 L 21.636719 39.960938 C 20.960938 39.960938 20.410156 40.507812 20.410156 41.183594 C 20.410156 41.859375 20.960938 42.410156 21.640625 42.410156 Z M 21.640625 42.410156 " fill-opacity="1" fill-rule="nonzero"/><path fill="#560216" d="M 26.554688 44.859375 C 25.875 44.859375 25.328125 45.40625 25.328125 46.085938 C 25.328125 46.761719 25.878906 47.308594 26.554688 47.308594 C 27.234375 47.308594 27.785156 46.761719 27.785156 46.085938 C 27.785156 45.40625 27.234375 44.859375 26.554688 44.859375 Z M 26.554688 44.859375 " fill-opacity="1" fill-rule="nonzero"/><path fill="#560216" d="M 42.535156 58.335938 L 17.949219 58.335938 C 17.269531 58.335938 16.71875 58.882812 16.71875 59.558594 C 16.71875 60.234375 17.269531 60.785156 17.949219 60.785156 L 42.535156 60.785156 C 43.214844 60.785156 43.761719 60.234375 43.761719 59.558594 C 43.761719 58.882812 43.214844 58.335938 42.535156 58.335938 Z M 42.535156 58.335938 " fill-opacity="1" fill-rule="nonzero"/></svg>