<svg xmlns="http://www.w3.org/2000/svg" xmlns:xlink="http://www.w3.org/1999/xlink" width="100" zoomAndPan="magnify" viewBox="0 0 75 74.999997" height="100" preserveAspectRatio="xMidYMid meet" version="1.0"><defs><clipPath id="id1"><path d="M 32 8.230469 L 43 8.230469 L 43 20 L 32 20 Z M 32 8.230469 " clip-rule="nonzero"/></clipPath><clipPath id="id2"><path d="M 1.695312 21 L 72.945312 21 L 72.945312 66.527344 L 1.695312 66.527344 Z M 1.695312 21 " clip-rule="nonzero"/></clipPath></defs><g clip-path="url(#id1)"><path fill="#560216" d="M 37.320312 8.457031 C 40.203125 8.457031 42.542969 11.042969 42.542969 14.222656 C 42.542969 17.414062 40.203125 19.992188 37.320312 19.992188 C 34.429688 19.992188 32.089844 17.414062 32.089844 14.222656 C 32.089844 11.042969 34.429688 8.457031 37.320312 8.457031 " fill-opacity="1" fill-rule="nonzero"/></g><path fill="#560216" d="M 13.042969 12.839844 C 15.933594 12.839844 18.273438 15.425781 18.273438 18.613281 C 18.273438 21.796875 15.933594 24.382812 13.042969 24.382812 C 10.160156 24.382812 7.8125 21.796875 7.8125 18.613281 C 7.8125 15.425781 10.160156 12.839844 13.042969 12.839844 " fill-opacity="1" fill-rule="nonzero"/><path fill="#560216" d="M 7.964844 33.65625 C 10.855469 33.65625 13.195312 36.242188 13.195312 39.425781 C 13.195312 42.609375 10.855469 45.195312 7.964844 45.195312 C 5.078125 45.195312 2.730469 42.609375 2.730469 39.425781 C 2.730469 36.242188 5.078125 33.65625 7.964844 33.65625 " fill-opacity="1" fill-rule="nonzero"/><path fill="#560216" d="M 61.589844 12.839844 C 64.480469 12.839844 66.820312 15.425781 66.820312 18.613281 C 66.820312 21.796875 64.480469 24.382812 61.589844 24.382812 C 58.707031 24.382812 56.367188 21.796875 56.367188 18.613281 C 56.367188 15.425781 58.707031 12.839844 61.589844 12.839844 " fill-opacity="1" fill-rule="nonzero"/><path fill="#560216" d="M 66.675781 33.652344 C 69.5625 33.652344 71.902344 36.238281 71.902344 39.425781 C 71.902344 42.609375 69.5625 45.195312 66.675781 45.195312 C 63.785156 45.195312 61.445312 42.609375 61.445312 39.425781 C 61.445312 36.238281 63.785156 33.652344 66.675781 33.652344 " fill-opacity="1" fill-rule="nonzero"/><g clip-path="url(#id2)"><path fill="#560216" d="M 13.566406 63.625 L 21.113281 33.875 L 53.519531 33.875 L 61.066406 63.625 Z M 67.195312 47.214844 L 63.816406 51.792969 L 64.355469 47.214844 C 63.714844 47.578125 61.917969 48.066406 61.703125 50.492188 C 61.660156 51.011719 61.519531 51.972656 61.371094 53.058594 L 58.828125 43.027344 C 59.445312 43.027344 60.160156 43.027344 60.921875 43.027344 C 60.351562 41.960938 60.003906 40.742188 60.003906 39.425781 C 60.003906 35.441406 62.996094 32.203125 66.675781 32.203125 C 67.085938 32.203125 67.472656 32.253906 67.867188 32.328125 C 67.867188 31.726562 67.867188 31.109375 67.867188 30.5 C 67.867188 25.390625 62.117188 26.402344 62.117188 26.402344 L 58.738281 30.984375 L 59.277344 26.402344 C 58.636719 26.765625 56.835938 27.253906 56.617188 29.679688 C 56.574219 30.285156 56.398438 31.460938 56.207031 32.753906 L 56.035156 32.070312 C 55.878906 31.425781 55.304688 30.984375 54.644531 30.984375 L 47.542969 30.984375 C 47.542969 28.988281 47.542969 25.457031 47.542969 23.949219 C 47.542969 21.789062 41.8125 21.097656 41.8125 21.097656 L 38.832031 26.554688 L 38.085938 23.488281 L 39.1875 22.8125 C 39.421875 22.671875 39.421875 22.449219 39.1875 22.304688 L 37.738281 21.429688 C 37.507812 21.289062 37.136719 21.289062 36.902344 21.429688 L 35.453125 22.304688 C 35.226562 22.449219 35.226562 22.671875 35.453125 22.820312 L 36.5625 23.488281 L 35.816406 26.554688 L 32.835938 21.097656 C 32.835938 21.097656 27.105469 21.789062 27.105469 23.949219 C 27.105469 25.457031 27.105469 28.988281 27.105469 30.984375 L 20 30.984375 C 19.34375 30.984375 18.761719 31.425781 18.601562 32.070312 L 18.425781 32.75 C 18.242188 31.460938 18.070312 30.285156 18.019531 29.679688 C 17.800781 27.253906 16.003906 26.765625 15.371094 26.402344 L 15.902344 30.984375 L 12.523438 26.402344 C 12.523438 26.402344 6.773438 25.390625 6.773438 30.5 C 6.773438 31.109375 6.773438 31.726562 6.773438 32.328125 C 7.160156 32.261719 7.558594 32.203125 7.964844 32.203125 C 11.644531 32.203125 14.644531 35.441406 14.644531 39.425781 C 14.644531 40.742188 14.289062 41.96875 13.71875 43.027344 C 14.480469 43.027344 15.1875 43.027344 15.820312 43.027344 L 13.269531 53.054688 C 13.117188 51.964844 12.980469 51.011719 12.933594 50.492188 C 12.71875 48.066406 10.925781 47.578125 10.285156 47.214844 L 10.824219 51.792969 L 7.445312 47.214844 C 7.445312 47.214844 1.695312 46.203125 1.695312 51.3125 C 1.695312 55.042969 1.695312 58.988281 1.695312 60.199219 C 1.695312 61.414062 2.964844 63.847656 6.335938 63.847656 C 7.835938 63.847656 9.324219 63.847656 10.539062 63.847656 L 10.316406 64.714844 C 10.210938 65.148438 10.304688 65.613281 10.574219 65.960938 C 10.847656 66.316406 11.273438 66.527344 11.714844 66.527344 L 62.933594 66.527344 C 62.945312 66.527344 62.964844 66.527344 62.976562 66.527344 C 63.773438 66.527344 64.410156 65.878906 64.410156 65.078125 C 64.410156 64.832031 64.355469 64.597656 64.242188 64.394531 L 64.101562 63.847656 C 65.316406 63.847656 66.808594 63.847656 68.308594 63.847656 C 71.671875 63.847656 72.945312 61.414062 72.945312 60.199219 C 72.945312 58.988281 72.945312 55.042969 72.945312 51.320312 C 72.9375 46.203125 67.195312 47.214844 67.195312 47.214844 " fill-opacity="1" fill-rule="nonzero"/></g></svg>