<svg xmlns="http://www.w3.org/2000/svg" xmlns:xlink="http://www.w3.org/1999/xlink" width="100" zoomAndPan="magnify" viewBox="0 0 75 74.999997" height="100" preserveAspectRatio="xMidYMid meet" version="1.0"><defs><clipPath id="id1"><path d="M 1.625 1.625 L 73.625 1.625 L 73.625 73.625 L 1.625 73.625 Z M 1.625 1.625 " clip-rule="nonzero"/></clipPath></defs><path fill="#560216" d="M 29.496094 52.71875 C 34.617188 52.71875 38.785156 48.554688 38.785156 43.429688 C 38.785156 41.886719 38.402344 40.4375 37.734375 39.15625 L 40.765625 36.121094 L 39.125 34.480469 L 36.386719 37.222656 C 34.683594 35.335938 32.230469 34.140625 29.496094 34.140625 C 24.371094 34.140625 20.203125 38.308594 20.203125 43.429688 C 20.203125 48.554688 24.371094 52.71875 29.496094 52.71875 Z M 29.496094 36.460938 C 31.589844 36.460938 33.464844 37.394531 34.742188 38.863281 L 29.496094 44.109375 L 26.832031 41.449219 L 25.191406 43.089844 L 29.496094 47.394531 L 35.984375 40.90625 C 36.289062 41.691406 36.460938 42.539062 36.460938 43.429688 C 36.460938 47.273438 33.335938 50.398438 29.496094 50.398438 C 25.652344 50.398438 22.527344 47.273438 22.527344 43.429688 C 22.527344 39.585938 25.652344 36.460938 29.496094 36.460938 Z M 29.496094 36.460938 " fill-opacity="1" fill-rule="nonzero"/><path fill="#560216" d="M 45.753906 8.589844 L 27.171875 8.589844 L 27.171875 15.558594 L 45.753906 15.558594 Z M 43.429688 13.238281 L 29.496094 13.238281 L 29.496094 10.914062 L 43.429688 10.914062 Z M 43.429688 13.238281 " fill-opacity="1" fill-rule="nonzero"/><path fill="#560216" d="M 29.496094 17.882812 L 45.753906 17.882812 L 45.753906 20.203125 L 29.496094 20.203125 Z M 29.496094 17.882812 " fill-opacity="1" fill-rule="nonzero"/><path fill="#560216" d="M 29.496094 22.527344 L 45.753906 22.527344 L 45.753906 24.851562 L 29.496094 24.851562 Z M 29.496094 22.527344 " fill-opacity="1" fill-rule="nonzero"/><path fill="#560216" d="M 43.429688 27.171875 L 45.753906 27.171875 L 45.753906 29.496094 L 43.429688 29.496094 Z M 43.429688 27.171875 " fill-opacity="1" fill-rule="nonzero"/><path fill="#560216" d="M 29.496094 27.171875 L 41.109375 27.171875 L 41.109375 29.496094 L 29.496094 29.496094 Z M 29.496094 27.171875 " fill-opacity="1" fill-rule="nonzero"/><g clip-path="url(#id1)"><path fill="#560216" d="M 73.625 28.960938 C 73.625 27.554688 73.074219 26.230469 72.078125 25.238281 C 71.085938 24.25 69.769531 23.707031 68.359375 23.707031 C 68.351562 23.707031 68.34375 23.707031 68.335938 23.707031 C 66.941406 23.710938 65.628906 24.257812 64.640625 25.242188 L 55.050781 34.828125 L 50.398438 30.175781 L 50.398438 3.945312 L 19.578125 3.945312 C 18.300781 2.523438 16.453125 1.625 14.398438 1.625 C 10.554688 1.625 7.429688 4.75 7.429688 8.589844 C 7.429688 10.785156 8.449219 12.742188 10.039062 14.019531 C 5.140625 15.808594 1.625 20.5 1.625 26.011719 L 1.625 27.171875 L 8.589844 27.171875 L 8.589844 30.175781 L 1.625 37.144531 L 1.625 73.625 L 57.367188 73.625 L 57.367188 47.394531 L 66.757812 38.003906 C 67 37.761719 67.335938 37.625 67.675781 37.625 C 68.394531 37.625 68.980469 38.207031 68.980469 38.925781 C 68.980469 39.273438 68.84375 39.601562 68.597656 39.847656 L 60.75 47.695312 C 60.066406 48.378906 59.6875 49.289062 59.6875 50.257812 C 59.6875 52.257812 61.3125 53.882812 63.3125 53.882812 L 64.332031 53.882812 L 64.332031 51.558594 L 63.3125 51.558594 C 62.59375 51.558594 62.011719 50.976562 62.011719 50.257812 C 62.011719 49.910156 62.144531 49.582031 62.390625 49.335938 L 70.238281 41.488281 C 70.925781 40.804688 71.300781 39.894531 71.300781 38.925781 C 71.300781 37.449219 70.410156 36.183594 69.144531 35.617188 L 72.085938 32.675781 C 73.0625 31.699219 73.625 30.34375 73.625 28.960938 Z M 21.6875 56.195312 L 3.945312 70.078125 L 3.945312 40.230469 Z M 23.488281 57.734375 C 25.230469 59 27.324219 59.6875 29.496094 59.6875 C 29.742188 59.6875 29.984375 59.652344 30.226562 59.636719 L 29.570312 60.292969 L 28.082031 69.230469 L 37.019531 67.738281 L 41.964844 62.792969 L 52.835938 71.300781 L 6.152344 71.300781 Z M 31.429688 63.265625 L 34.046875 65.882812 L 30.90625 66.40625 Z M 36.460938 65.015625 L 32.296875 60.851562 L 58.535156 34.628906 L 62.691406 38.785156 Z M 53.410156 36.46875 L 50.398438 39.480469 L 50.398438 33.460938 Z M 9.753906 8.589844 C 9.753906 6.03125 11.835938 3.945312 14.398438 3.945312 C 16.960938 3.945312 19.042969 6.03125 19.042969 8.589844 C 19.042969 11.152344 16.960938 13.238281 14.398438 13.238281 C 11.835938 13.238281 9.753906 11.152344 9.753906 8.589844 Z M 14.398438 15.558594 C 15.140625 15.558594 15.863281 15.644531 16.5625 15.792969 L 14.398438 18.390625 L 12.234375 15.792969 C 12.933594 15.644531 13.65625 15.558594 14.398438 15.558594 Z M 12.828125 20.132812 L 11.367188 21.589844 L 9.554688 16.757812 C 9.664062 16.699219 9.769531 16.644531 9.878906 16.59375 Z M 14.398438 21.847656 L 17.402344 24.851562 L 11.394531 24.851562 Z M 24.785156 24.851562 L 18.6875 24.851562 L 21.214844 18.105469 C 23.160156 19.785156 24.484375 22.164062 24.785156 24.851562 Z M 17.429688 21.59375 L 15.96875 20.132812 L 18.917969 16.59375 C 19.027344 16.648438 19.132812 16.703125 19.238281 16.757812 Z M 7.582031 18.105469 L 10.109375 24.851562 L 4.011719 24.851562 C 4.308594 22.164062 5.636719 19.785156 7.582031 18.105469 Z M 27.171875 27.171875 L 27.171875 26.011719 C 27.171875 20.5 23.65625 15.808594 18.757812 14.019531 C 20.34375 12.742188 21.367188 10.785156 21.367188 8.589844 C 21.367188 7.777344 21.21875 6.996094 20.960938 6.269531 L 48.074219 6.269531 L 48.074219 41.800781 L 33.742188 56.121094 C 32.472656 56.933594 31.003906 57.367188 29.496094 57.367188 C 27.535156 57.367188 25.65625 56.644531 24.199219 55.332031 L 10.914062 43.378906 L 10.914062 27.171875 Z M 8.589844 41.289062 L 4.472656 37.578125 L 8.589844 33.460938 Z M 55.042969 70.078125 L 43.621094 61.140625 L 55.042969 49.71875 Z M 70.441406 31.035156 L 64.332031 37.144531 L 60.179688 32.988281 L 66.285156 26.886719 C 66.835938 26.335938 67.566406 26.03125 68.355469 26.03125 L 68.371094 26.03125 C 69.152344 26.03125 69.886719 26.332031 70.4375 26.882812 C 70.996094 27.4375 71.300781 28.175781 71.300781 28.960938 C 71.300781 29.734375 70.988281 30.488281 70.441406 31.035156 Z M 70.441406 31.035156 " fill-opacity="1" fill-rule="nonzero"/></g><path fill="#560216" d="M 6.269531 45.753906 L 8.589844 45.753906 L 8.589844 48.074219 L 6.269531 48.074219 Z M 6.269531 45.753906 " fill-opacity="1" fill-rule="nonzero"/><path fill="#560216" d="M 6.269531 50.398438 L 8.589844 50.398438 L 8.589844 52.71875 L 6.269531 52.71875 Z M 6.269531 50.398438 " fill-opacity="1" fill-rule="nonzero"/><path fill="#560216" d="M 6.269531 55.042969 L 8.589844 55.042969 L 8.589844 57.367188 L 6.269531 57.367188 Z M 6.269531 55.042969 " fill-opacity="1" fill-rule="nonzero"/><path fill="#560216" d="M 14.398438 66.65625 L 16.71875 66.65625 L 16.71875 68.980469 L 14.398438 68.980469 Z M 14.398438 66.65625 " fill-opacity="1" fill-rule="nonzero"/><path fill="#560216" d="M 19.042969 66.65625 L 21.367188 66.65625 L 21.367188 68.980469 L 19.042969 68.980469 Z M 19.042969 66.65625 " fill-opacity="1" fill-rule="nonzero"/><path fill="#560216" d="M 23.6875 66.65625 L 26.011719 66.65625 L 26.011719 68.980469 L 23.6875 68.980469 Z M 23.6875 66.65625 " fill-opacity="1" fill-rule="nonzero"/><path fill="#560216" d="M 13.238281 29.496094 L 15.558594 29.496094 L 15.558594 31.816406 L 13.238281 31.816406 Z M 13.238281 29.496094 " fill-opacity="1" fill-rule="nonzero"/><path fill="#560216" d="M 13.238281 34.140625 L 15.558594 34.140625 L 15.558594 36.460938 L 13.238281 36.460938 Z M 13.238281 34.140625 " fill-opacity="1" fill-rule="nonzero"/><path fill="#560216" d="M 13.238281 38.785156 L 15.558594 38.785156 L 15.558594 41.109375 L 13.238281 41.109375 Z M 13.238281 38.785156 " fill-opacity="1" fill-rule="nonzero"/></svg>