<svg xmlns="http://www.w3.org/2000/svg" xmlns:xlink="http://www.w3.org/1999/xlink" width="100" zoomAndPan="magnify" viewBox="0 0 75 74.999997" height="100" preserveAspectRatio="xMidYMid meet" version="1.0"><defs><clipPath id="id1"><path d="M 1.03125 2.808594 L 73.78125 2.808594 L 73.78125 72.558594 L 1.03125 72.558594 Z M 1.03125 2.808594 " clip-rule="nonzero"/></clipPath></defs><g clip-path="url(#id1)"><path fill="#560216" d="M 72.429688 63.410156 L 69.8125 63.410156 C 70.421875 62.480469 70.730469 61.457031 70.730469 60.34375 L 70.730469 20.703125 C 70.730469 20.339844 70.695312 19.980469 70.625 19.625 C 70.550781 19.269531 70.449219 18.925781 70.308594 18.589844 C 70.171875 18.253906 70.003906 17.9375 69.804688 17.636719 C 69.601562 17.335938 69.375 17.054688 69.121094 16.800781 C 68.867188 16.542969 68.589844 16.3125 68.292969 16.113281 C 67.992188 15.910156 67.675781 15.742188 67.34375 15.601562 C 67.011719 15.460938 66.671875 15.355469 66.316406 15.285156 C 65.964844 15.214844 65.609375 15.179688 65.25 15.179688 L 59.425781 15.179688 L 59.425781 3.996094 C 59.425781 3.839844 59.394531 3.6875 59.335938 3.542969 C 59.277344 3.394531 59.191406 3.269531 59.082031 3.15625 C 58.96875 3.042969 58.84375 2.957031 58.699219 2.898438 C 58.554688 2.839844 58.402344 2.808594 58.246094 2.808594 L 16.539062 2.808594 C 16.382812 2.808594 16.234375 2.839844 16.089844 2.898438 C 15.945312 2.957031 15.816406 3.042969 15.707031 3.15625 C 15.597656 3.269531 15.511719 3.394531 15.449219 3.542969 C 15.390625 3.6875 15.363281 3.839844 15.363281 3.996094 L 15.363281 15.128906 L 9.503906 15.128906 C 9.144531 15.128906 8.785156 15.164062 8.433594 15.238281 C 8.082031 15.308594 7.738281 15.410156 7.40625 15.550781 C 7.074219 15.691406 6.757812 15.859375 6.457031 16.0625 C 6.15625 16.261719 5.882812 16.492188 5.625 16.75 C 5.371094 17.003906 5.144531 17.285156 4.945312 17.585938 C 4.746094 17.886719 4.574219 18.207031 4.4375 18.542969 C 4.300781 18.875 4.195312 19.222656 4.125 19.578125 C 4.054688 19.933594 4.019531 20.292969 4.019531 20.65625 L 4.019531 60.308594 C 4.007812 61.4375 4.316406 62.472656 4.941406 63.410156 L 2.277344 63.410156 C 2.121094 63.410156 1.96875 63.4375 1.824219 63.5 C 1.679688 63.558594 1.554688 63.644531 1.441406 63.757812 C 1.332031 63.867188 1.246094 63.996094 1.1875 64.140625 C 1.128906 64.289062 1.097656 64.4375 1.097656 64.597656 C 1.097656 65.117188 1.148438 65.632812 1.25 66.144531 C 1.351562 66.65625 1.503906 67.152344 1.699219 67.632812 C 1.898438 68.113281 2.140625 68.570312 2.429688 69.003906 C 2.714844 69.4375 3.042969 69.835938 3.40625 70.207031 C 3.773438 70.574219 4.171875 70.902344 4.601562 71.191406 C 5.03125 71.484375 5.484375 71.726562 5.960938 71.925781 C 6.4375 72.125 6.929688 72.277344 7.4375 72.378906 C 7.945312 72.480469 8.457031 72.535156 8.972656 72.535156 L 65.78125 72.535156 C 66.296875 72.535156 66.808594 72.480469 67.316406 72.378906 C 67.820312 72.277344 68.3125 72.125 68.792969 71.925781 C 69.269531 71.726562 69.722656 71.484375 70.152344 71.191406 C 70.582031 70.902344 70.980469 70.574219 71.34375 70.207031 C 71.710938 69.835938 72.035156 69.4375 72.324219 69.003906 C 72.609375 68.570312 72.851562 68.113281 73.050781 67.632812 C 73.25 67.152344 73.398438 66.65625 73.5 66.144531 C 73.601562 65.632812 73.652344 65.117188 73.652344 64.597656 C 73.652344 64.433594 73.621094 64.28125 73.558594 64.132812 C 73.496094 63.980469 73.40625 63.851562 73.292969 63.738281 C 73.175781 63.628906 73.042969 63.542969 72.894531 63.484375 C 72.742188 63.425781 72.589844 63.402344 72.429688 63.410156 Z M 17.765625 5.28125 L 56.984375 5.28125 L 56.984375 57.3125 L 17.765625 57.3125 Z M 6.460938 20.726562 C 6.460938 20.320312 6.542969 19.929688 6.695312 19.558594 C 6.851562 19.183594 7.070312 18.851562 7.355469 18.566406 C 7.640625 18.28125 7.96875 18.058594 8.339844 17.90625 C 8.714844 17.75 9.101562 17.671875 9.503906 17.671875 L 15.3125 17.671875 L 15.3125 58.546875 C 15.3125 58.707031 15.34375 58.859375 15.402344 59.003906 C 15.464844 59.148438 15.550781 59.277344 15.660156 59.390625 C 15.769531 59.5 15.898438 59.585938 16.042969 59.648438 C 16.1875 59.707031 16.335938 59.738281 16.492188 59.738281 L 58.210938 59.738281 C 58.367188 59.738281 58.519531 59.707031 58.664062 59.648438 C 58.808594 59.585938 58.933594 59.5 59.046875 59.390625 C 59.15625 59.277344 59.242188 59.148438 59.300781 59.003906 C 59.359375 58.859375 59.390625 58.707031 59.390625 58.546875 L 59.390625 17.648438 L 65.214844 17.648438 C 65.621094 17.644531 66.011719 17.714844 66.386719 17.867188 C 66.765625 18.019531 67.097656 18.238281 67.386719 18.527344 C 67.675781 18.8125 67.898438 19.144531 68.054688 19.523438 C 68.210938 19.902344 68.289062 20.292969 68.289062 20.703125 L 68.289062 60.308594 C 68.296875 60.71875 68.222656 61.113281 68.070312 61.492188 C 67.917969 61.871094 67.699219 62.207031 67.414062 62.5 C 67.125 62.789062 66.796875 63.015625 66.421875 63.171875 C 66.046875 63.328125 65.65625 63.410156 65.25 63.410156 L 49.804688 63.410156 C 49.648438 63.410156 49.5 63.4375 49.355469 63.5 C 49.210938 63.558594 49.082031 63.644531 48.972656 63.757812 C 48.863281 63.867188 48.777344 63.996094 48.71875 64.140625 C 48.65625 64.289062 48.628906 64.4375 48.628906 64.597656 L 48.628906 65.5 L 26.230469 65.5 L 26.230469 64.597656 C 26.230469 64.4375 26.199219 64.289062 26.140625 64.140625 C 26.082031 63.996094 25.996094 63.867188 25.886719 63.757812 C 25.773438 63.644531 25.648438 63.558594 25.503906 63.5 C 25.359375 63.4375 25.207031 63.410156 25.050781 63.410156 L 9.503906 63.410156 C 9.101562 63.40625 8.710938 63.328125 8.339844 63.171875 C 7.96875 63.015625 7.640625 62.792969 7.355469 62.507812 C 7.070312 62.21875 6.851562 61.890625 6.695312 61.515625 C 6.542969 61.140625 6.460938 60.75 6.460938 60.34375 Z M 23.707031 65.785156 L 23.707031 66.675781 C 23.707031 66.832031 23.738281 66.984375 23.796875 67.132812 C 23.855469 67.277344 23.941406 67.40625 24.050781 67.515625 C 24.164062 67.628906 24.289062 67.714844 24.433594 67.773438 C 24.578125 67.835938 24.730469 67.863281 24.886719 67.863281 L 49.757812 67.863281 C 49.914062 67.863281 50.066406 67.835938 50.210938 67.773438 C 50.355469 67.714844 50.480469 67.628906 50.59375 67.515625 C 50.703125 67.40625 50.789062 67.277344 50.847656 67.132812 C 50.910156 66.984375 50.9375 66.832031 50.9375 66.675781 L 50.9375 65.785156 L 70.976562 65.785156 C 70.839844 66.386719 70.605469 66.949219 70.28125 67.472656 C 69.953125 67.996094 69.550781 68.449219 69.070312 68.832031 C 68.589844 69.21875 68.0625 69.511719 67.484375 69.71875 C 66.90625 69.921875 66.308594 70.027344 65.695312 70.027344 L 8.972656 70.027344 C 8.359375 70.023438 7.761719 69.921875 7.183594 69.714844 C 6.605469 69.511719 6.074219 69.214844 5.59375 68.832031 C 5.117188 68.445312 4.710938 67.992188 4.382812 67.472656 C 4.054688 66.949219 3.820312 66.386719 3.679688 65.785156 Z M 23.707031 65.785156 " fill-opacity="1" fill-rule="nonzero"/></g><path fill="#560216" d="M 21.421875 48.1875 C 21.484375 48.460938 21.628906 48.683594 21.847656 48.855469 C 22.070312 49.027344 22.320312 49.109375 22.597656 49.101562 C 22.707031 49.113281 22.8125 49.113281 22.917969 49.101562 C 23.613281 48.910156 24.332031 48.699219 25.039062 48.460938 C 25.757812 48.824219 26.507812 49.105469 27.292969 49.304688 C 28.308594 49.601562 29.34375 49.765625 30.402344 49.792969 C 31 49.847656 31.570312 49.753906 32.117188 49.503906 C 32.664062 49.257812 33.113281 48.890625 33.46875 48.402344 C 33.609375 48.496094 33.785156 48.613281 34.011719 48.792969 C 34.226562 48.957031 34.46875 49.039062 34.742188 49.042969 C 34.890625 49.09375 35.042969 49.109375 35.199219 49.097656 C 35.355469 49.085938 35.503906 49.046875 35.644531 48.972656 C 35.785156 48.902344 35.90625 48.808594 36.007812 48.6875 C 36.109375 48.566406 36.1875 48.433594 36.234375 48.28125 C 36.285156 48.132812 36.304688 47.976562 36.292969 47.820312 C 36.28125 47.660156 36.238281 47.511719 36.167969 47.371094 C 36.097656 47.230469 36.003906 47.105469 35.886719 47.003906 C 35.765625 46.898438 35.632812 46.824219 35.484375 46.773438 C 34.839844 46.15625 34.078125 45.789062 33.195312 45.667969 C 33.082031 45.65625 32.96875 45.65625 32.855469 45.667969 C 32.269531 45.820312 31.847656 46.171875 31.59375 46.726562 C 31.464844 46.941406 31.289062 47.261719 30.414062 47.261719 C 29.765625 47.234375 29.125 47.140625 28.492188 46.976562 C 29.980469 46.179688 31.027344 45.242188 31.097656 44.160156 C 31.097656 43.433594 30.828125 42.414062 29.046875 41.675781 C 28.195312 41.316406 27.308594 41.132812 26.382812 41.117188 C 25.25 41.089844 24.242188 41.433594 23.355469 42.140625 C 22.894531 42.515625 22.5625 42.984375 22.367188 43.546875 C 22.167969 44.109375 22.132812 44.679688 22.257812 45.265625 C 22.371094 45.691406 22.550781 46.089844 22.800781 46.453125 L 22.316406 46.582031 C 22.140625 46.613281 21.984375 46.679688 21.839844 46.785156 C 21.695312 46.886719 21.578125 47.015625 21.492188 47.171875 C 21.402344 47.328125 21.355469 47.492188 21.34375 47.671875 C 21.328125 47.847656 21.355469 48.019531 21.421875 48.1875 Z M 28.082031 44.003906 L 28.421875 44.171875 C 27.449219 44.816406 26.414062 45.328125 25.3125 45.703125 C 24.976562 45.472656 24.746094 45.164062 24.613281 44.777344 C 24.554688 44.480469 24.648438 44.246094 24.898438 44.074219 C 25.332031 43.75 25.820312 43.597656 26.359375 43.625 C 26.957031 43.636719 27.53125 43.765625 28.082031 44.003906 Z M 28.082031 44.003906 " fill-opacity="1" fill-rule="nonzero"/><path fill="#560216" d="M 51.941406 26.859375 L 22.8125 26.859375 C 22.648438 26.859375 22.492188 26.890625 22.34375 26.953125 C 22.191406 27.015625 22.058594 27.105469 21.945312 27.21875 C 21.828125 27.335938 21.742188 27.46875 21.679688 27.621094 C 21.617188 27.773438 21.585938 27.929688 21.585938 28.09375 C 21.585938 28.257812 21.617188 28.414062 21.679688 28.566406 C 21.742188 28.71875 21.828125 28.851562 21.945312 28.96875 C 22.058594 29.082031 22.191406 29.171875 22.34375 29.234375 C 22.492188 29.296875 22.648438 29.328125 22.8125 29.328125 L 51.941406 29.328125 C 52.101562 29.328125 52.257812 29.296875 52.410156 29.234375 C 52.558594 29.171875 52.691406 29.082031 52.808594 28.96875 C 52.921875 28.851562 53.011719 28.71875 53.074219 28.566406 C 53.136719 28.414062 53.167969 28.257812 53.167969 28.09375 C 53.167969 27.929688 53.136719 27.773438 53.074219 27.621094 C 53.011719 27.46875 52.921875 27.335938 52.808594 27.21875 C 52.691406 27.105469 52.558594 27.015625 52.410156 26.953125 C 52.257812 26.890625 52.101562 26.859375 51.941406 26.859375 Z M 51.941406 26.859375 " fill-opacity="1" fill-rule="nonzero"/><path fill="#560216" d="M 43.0625 51.527344 L 22.597656 51.527344 C 22.4375 51.527344 22.28125 51.558594 22.132812 51.621094 C 21.984375 51.683594 21.851562 51.769531 21.738281 51.886719 C 21.621094 52 21.535156 52.132812 21.472656 52.285156 C 21.410156 52.4375 21.378906 52.59375 21.378906 52.757812 C 21.378906 52.917969 21.410156 53.074219 21.472656 53.226562 C 21.535156 53.378906 21.621094 53.511719 21.738281 53.625 C 21.851562 53.742188 21.984375 53.828125 22.132812 53.890625 C 22.28125 53.953125 22.4375 53.984375 22.597656 53.984375 L 43.0625 53.984375 C 43.226562 53.984375 43.382812 53.953125 43.53125 53.890625 C 43.679688 53.828125 43.8125 53.742188 43.925781 53.625 C 44.039062 53.511719 44.128906 53.378906 44.191406 53.226562 C 44.253906 53.074219 44.285156 52.917969 44.285156 52.757812 C 44.285156 52.59375 44.253906 52.4375 44.191406 52.285156 C 44.128906 52.132812 44.039062 52 43.925781 51.886719 C 43.8125 51.769531 43.679688 51.683594 43.53125 51.621094 C 43.382812 51.558594 43.226562 51.527344 43.0625 51.527344 Z M 43.0625 51.527344 " fill-opacity="1" fill-rule="nonzero"/><path fill="#560216" d="M 51.941406 17.542969 L 22.8125 17.542969 C 22.648438 17.542969 22.492188 17.574219 22.34375 17.636719 C 22.191406 17.699219 22.058594 17.789062 21.945312 17.90625 C 21.828125 18.019531 21.742188 18.152344 21.679688 18.304688 C 21.617188 18.457031 21.585938 18.613281 21.585938 18.777344 C 21.585938 18.941406 21.617188 19.101562 21.679688 19.25 C 21.742188 19.402344 21.828125 19.535156 21.945312 19.652344 C 22.058594 19.769531 22.191406 19.855469 22.34375 19.917969 C 22.492188 19.984375 22.648438 20.015625 22.8125 20.015625 L 51.941406 20.015625 C 52.101562 20.015625 52.257812 19.984375 52.410156 19.917969 C 52.558594 19.855469 52.691406 19.769531 52.808594 19.652344 C 52.921875 19.535156 53.011719 19.402344 53.074219 19.25 C 53.136719 19.101562 53.167969 18.941406 53.167969 18.777344 C 53.167969 18.613281 53.136719 18.457031 53.074219 18.304688 C 53.011719 18.152344 52.921875 18.019531 52.808594 17.90625 C 52.691406 17.789062 52.558594 17.699219 52.410156 17.636719 C 52.257812 17.574219 52.101562 17.542969 51.941406 17.542969 Z M 51.941406 17.542969 " fill-opacity="1" fill-rule="nonzero"/><path fill="#560216" d="M 30.425781 10.6875 L 44.3125 10.6875 C 44.476562 10.6875 44.628906 10.65625 44.78125 10.59375 C 44.929688 10.53125 45.0625 10.441406 45.175781 10.324219 C 45.289062 10.210938 45.378906 10.078125 45.441406 9.925781 C 45.503906 9.777344 45.535156 9.621094 45.535156 9.457031 C 45.535156 9.292969 45.503906 9.136719 45.441406 8.984375 C 45.378906 8.835938 45.289062 8.703125 45.175781 8.585938 C 45.0625 8.472656 44.929688 8.382812 44.78125 8.320312 C 44.628906 8.257812 44.476562 8.226562 44.3125 8.226562 L 30.425781 8.226562 C 30.265625 8.226562 30.109375 8.257812 29.960938 8.320312 C 29.808594 8.382812 29.679688 8.472656 29.5625 8.585938 C 29.449219 8.703125 29.363281 8.835938 29.300781 8.984375 C 29.238281 9.136719 29.207031 9.292969 29.207031 9.457031 C 29.207031 9.621094 29.238281 9.777344 29.300781 9.925781 C 29.363281 10.078125 29.449219 10.210938 29.5625 10.324219 C 29.679688 10.441406 29.808594 10.53125 29.960938 10.59375 C 30.109375 10.65625 30.265625 10.6875 30.425781 10.6875 Z M 30.425781 10.6875 " fill-opacity="1" fill-rule="nonzero"/><path fill="#560216" d="M 51.941406 31.515625 L 22.8125 31.515625 C 22.648438 31.515625 22.492188 31.546875 22.34375 31.609375 C 22.191406 31.671875 22.058594 31.761719 21.945312 31.878906 C 21.828125 31.992188 21.742188 32.128906 21.679688 32.277344 C 21.617188 32.429688 21.585938 32.589844 21.585938 32.753906 C 21.585938 32.914062 21.617188 33.074219 21.679688 33.226562 C 21.742188 33.375 21.828125 33.511719 21.945312 33.625 C 22.058594 33.742188 22.191406 33.832031 22.34375 33.894531 C 22.492188 33.957031 22.648438 33.988281 22.8125 33.988281 L 51.941406 33.988281 C 52.101562 33.988281 52.257812 33.957031 52.410156 33.894531 C 52.558594 33.832031 52.691406 33.742188 52.808594 33.625 C 52.921875 33.511719 53.011719 33.375 53.074219 33.226562 C 53.136719 33.074219 53.167969 32.914062 53.167969 32.753906 C 53.167969 32.589844 53.136719 32.429688 53.074219 32.277344 C 53.011719 32.128906 52.921875 31.992188 52.808594 31.878906 C 52.691406 31.761719 52.558594 31.671875 52.410156 31.609375 C 52.257812 31.546875 52.101562 31.515625 51.941406 31.515625 Z M 51.941406 31.515625 " fill-opacity="1" fill-rule="nonzero"/><path fill="#560216" d="M 51.941406 22.199219 L 22.8125 22.199219 C 22.648438 22.199219 22.492188 22.230469 22.34375 22.292969 C 22.191406 22.355469 22.058594 22.445312 21.945312 22.5625 C 21.828125 22.679688 21.742188 22.8125 21.679688 22.964844 C 21.617188 23.113281 21.585938 23.273438 21.585938 23.4375 C 21.585938 23.601562 21.617188 23.757812 21.679688 23.910156 C 21.742188 24.058594 21.828125 24.195312 21.945312 24.308594 C 22.058594 24.425781 22.191406 24.515625 22.34375 24.578125 C 22.492188 24.640625 22.648438 24.671875 22.8125 24.671875 L 51.941406 24.671875 C 52.101562 24.671875 52.257812 24.640625 52.410156 24.578125 C 52.558594 24.515625 52.691406 24.425781 52.808594 24.308594 C 52.921875 24.195312 53.011719 24.058594 53.074219 23.910156 C 53.136719 23.757812 53.167969 23.601562 53.167969 23.4375 C 53.167969 23.273438 53.136719 23.113281 53.074219 22.964844 C 53.011719 22.8125 52.921875 22.679688 52.808594 22.5625 C 52.691406 22.445312 52.558594 22.355469 52.410156 22.292969 C 52.257812 22.230469 52.101562 22.199219 51.941406 22.199219 Z M 51.941406 22.199219 " fill-opacity="1" fill-rule="nonzero"/><path fill="#560216" d="M 51.941406 12.882812 L 22.8125 12.882812 C 22.648438 12.882812 22.492188 12.914062 22.34375 12.976562 C 22.195312 13.039062 22.0625 13.128906 21.949219 13.246094 C 21.835938 13.359375 21.746094 13.492188 21.683594 13.644531 C 21.621094 13.792969 21.589844 13.953125 21.589844 14.113281 C 21.589844 14.277344 21.621094 14.433594 21.683594 14.585938 C 21.746094 14.734375 21.835938 14.867188 21.949219 14.984375 C 22.0625 15.097656 22.195312 15.1875 22.34375 15.25 C 22.492188 15.3125 22.648438 15.34375 22.8125 15.34375 L 51.941406 15.34375 C 52.101562 15.34375 52.257812 15.3125 52.40625 15.25 C 52.554688 15.1875 52.6875 15.097656 52.804688 14.984375 C 52.917969 14.867188 53.003906 14.734375 53.066406 14.585938 C 53.128906 14.433594 53.160156 14.277344 53.160156 14.113281 C 53.160156 13.953125 53.128906 13.792969 53.066406 13.644531 C 53.003906 13.492188 52.917969 13.359375 52.804688 13.246094 C 52.6875 13.128906 52.554688 13.039062 52.40625 12.976562 C 52.257812 12.914062 52.101562 12.882812 51.941406 12.882812 Z M 51.941406 12.882812 " fill-opacity="1" fill-rule="nonzero"/><path fill="#560216" d="M 51.941406 36.175781 L 22.8125 36.175781 C 22.648438 36.175781 22.492188 36.207031 22.34375 36.269531 C 22.191406 36.332031 22.058594 36.421875 21.945312 36.535156 C 21.828125 36.652344 21.742188 36.785156 21.679688 36.9375 C 21.617188 37.089844 21.585938 37.246094 21.585938 37.410156 C 21.585938 37.574219 21.617188 37.730469 21.679688 37.882812 C 21.742188 38.035156 21.828125 38.167969 21.945312 38.285156 C 22.058594 38.398438 22.191406 38.488281 22.34375 38.550781 C 22.492188 38.613281 22.648438 38.644531 22.8125 38.644531 L 51.941406 38.644531 C 52.101562 38.644531 52.257812 38.613281 52.410156 38.550781 C 52.558594 38.488281 52.691406 38.398438 52.808594 38.285156 C 52.921875 38.167969 53.011719 38.035156 53.074219 37.882812 C 53.136719 37.730469 53.167969 37.574219 53.167969 37.410156 C 53.167969 37.246094 53.136719 37.089844 53.074219 36.9375 C 53.011719 36.785156 52.921875 36.652344 52.808594 36.535156 C 52.691406 36.421875 52.558594 36.332031 52.410156 36.269531 C 52.257812 36.207031 52.101562 36.175781 51.941406 36.175781 Z M 51.941406 36.175781 " fill-opacity="1" fill-rule="nonzero"/></svg>