<svg xmlns="http://www.w3.org/2000/svg" xmlns:xlink="http://www.w3.org/1999/xlink" width="100" zoomAndPan="magnify" viewBox="0 0 75 74.999997" height="100" preserveAspectRatio="xMidYMid meet" version="1.0"><defs><clipPath id="id1"><path d="M 1.015625 1.015625 L 61 1.015625 L 61 73.765625 L 1.015625 73.765625 Z M 1.015625 1.015625 " clip-rule="nonzero"/></clipPath><clipPath id="id2"><path d="M 37 6 L 73.765625 6 L 73.765625 54 L 37 54 Z M 37 6 " clip-rule="nonzero"/></clipPath></defs><g clip-path="url(#id1)"><path fill="#560216" d="M 9.539062 73.765625 L 52.167969 73.765625 C 56.886719 73.765625 60.691406 69.445312 60.691406 64.101562 C 60.691406 61.945312 60.066406 59.898438 58.875 58.191406 C 58.875 58.191406 58.816406 58.136719 58.816406 58.136719 C 58.761719 58.078125 58.761719 58.078125 58.703125 58.023438 C 58.703125 58.023438 58.648438 57.964844 58.589844 57.964844 C 58.589844 57.964844 58.535156 57.90625 58.476562 57.90625 C 58.417969 57.90625 58.417969 57.851562 58.363281 57.851562 C 58.304688 57.851562 58.304688 57.792969 58.25 57.792969 C 58.191406 57.792969 58.191406 57.792969 58.136719 57.738281 C 58.078125 57.738281 58.078125 57.738281 58.023438 57.679688 C 57.964844 57.679688 57.90625 57.679688 57.851562 57.679688 C 57.851562 57.679688 57.792969 57.679688 57.792969 57.679688 L 15.167969 57.679688 C 15.109375 57.679688 15.054688 57.679688 14.996094 57.679688 C 14.996094 57.679688 14.996094 57.679688 14.941406 57.679688 C 14.882812 57.679688 14.882812 57.679688 14.828125 57.738281 C 14.769531 57.738281 14.769531 57.738281 14.710938 57.792969 C 14.65625 57.792969 14.597656 57.851562 14.542969 57.90625 C 14.542969 57.90625 14.484375 57.964844 14.484375 57.964844 C 14.429688 58.023438 14.429688 58.023438 14.371094 58.078125 C 14.371094 58.078125 14.316406 58.136719 14.316406 58.191406 C 14.316406 58.25 14.257812 58.25 14.257812 58.304688 C 14.257812 58.363281 14.203125 58.363281 14.203125 58.417969 C 14.203125 58.476562 14.144531 58.476562 14.144531 58.535156 C 14.144531 58.589844 14.144531 58.589844 14.085938 58.648438 C 14.085938 58.703125 14.085938 58.703125 14.03125 58.761719 C 14.03125 58.816406 14.03125 58.875 14.03125 58.929688 C 14.03125 58.929688 14.03125 58.988281 14.03125 58.988281 C 14.03125 59.042969 14.03125 59.101562 14.03125 59.160156 C 14.03125 59.160156 14.03125 59.160156 14.03125 59.214844 C 14.03125 59.214844 14.03125 59.273438 14.03125 59.273438 C 14.03125 59.328125 14.03125 59.386719 14.085938 59.386719 C 14.144531 59.441406 14.144531 59.5 14.203125 59.554688 C 15.109375 60.863281 15.621094 62.511719 15.621094 64.21875 C 15.621094 68.308594 12.835938 71.605469 9.371094 71.605469 C 5.902344 71.605469 3.117188 68.308594 3.117188 64.21875 L 3.117188 4.425781 C 3.117188 3.800781 3.628906 3.289062 4.253906 3.289062 L 49.722656 3.289062 C 50.347656 3.289062 50.859375 3.800781 50.859375 4.425781 L 53.132812 4.425781 C 53.132812 2.550781 51.597656 1.015625 49.722656 1.015625 L 4.425781 1.015625 C 2.550781 1.015625 1.015625 2.550781 1.015625 4.425781 L 1.015625 64.101562 C 1.015625 69.445312 4.824219 73.765625 9.539062 73.765625 Z M 9.539062 73.765625 " fill-opacity="1" fill-rule="nonzero"/></g><path fill="#560216" d="M 50.460938 36.9375 L 54.441406 36.9375 L 54.441406 40.347656 L 50.460938 40.347656 Z M 50.460938 36.9375 " fill-opacity="1" fill-rule="nonzero"/><path fill="#560216" d="M 50.460938 31.253906 L 54.441406 31.253906 L 54.441406 34.664062 L 50.460938 34.664062 Z M 50.460938 31.253906 " fill-opacity="1" fill-rule="nonzero"/><path fill="#560216" d="M 50.460938 42.621094 L 54.441406 42.621094 L 54.441406 46.710938 L 50.460938 46.710938 Z M 50.460938 42.621094 " fill-opacity="1" fill-rule="nonzero"/><path fill="#560216" d="M 50.460938 24.886719 L 54.441406 24.886719 L 54.441406 28.980469 L 50.460938 28.980469 Z M 50.460938 24.886719 " fill-opacity="1" fill-rule="nonzero"/><path fill="#560216" d="M 43.640625 36.9375 L 48.1875 36.9375 L 48.1875 40.347656 L 43.640625 40.347656 Z M 43.640625 36.9375 " fill-opacity="1" fill-rule="nonzero"/><path fill="#560216" d="M 43.640625 24.886719 L 48.1875 24.886719 L 48.1875 28.980469 L 43.640625 28.980469 Z M 43.640625 24.886719 " fill-opacity="1" fill-rule="nonzero"/><g clip-path="url(#id2)"><path fill="#560216" d="M 69.21875 6.699219 L 41.9375 6.699219 C 39.4375 6.699219 37.390625 8.746094 37.390625 11.246094 L 37.390625 48.757812 C 37.390625 51.257812 39.4375 53.304688 41.9375 53.304688 L 69.21875 53.304688 C 71.71875 53.304688 73.765625 51.257812 73.765625 48.757812 L 73.765625 11.246094 C 73.765625 8.746094 71.71875 6.699219 69.21875 6.699219 Z M 42.503906 12.949219 C 42.503906 12.667969 42.789062 12.382812 43.074219 12.382812 L 68.082031 12.382812 C 68.367188 12.382812 68.648438 12.667969 68.648438 12.949219 L 68.648438 18.632812 C 68.648438 18.917969 68.367188 19.203125 68.082031 19.203125 L 43.074219 19.203125 C 42.789062 19.203125 42.503906 18.917969 42.503906 18.632812 Z M 69.785156 47.222656 C 69.785156 48.1875 69.046875 48.929688 68.082031 48.929688 L 43.074219 48.929688 C 42.109375 48.929688 41.367188 48.1875 41.367188 47.222656 L 41.367188 24.316406 C 41.367188 23.351562 42.109375 22.613281 43.074219 22.613281 L 68.082031 22.613281 C 69.046875 22.613281 69.785156 23.351562 69.785156 24.316406 Z M 69.785156 47.222656 " fill-opacity="1" fill-rule="nonzero"/></g><path fill="#560216" d="M 56.714844 42.621094 L 60.691406 42.621094 L 60.691406 46.710938 L 56.714844 46.710938 Z M 56.714844 42.621094 " fill-opacity="1" fill-rule="nonzero"/><path fill="#560216" d="M 43.640625 31.253906 L 48.1875 31.253906 L 48.1875 34.664062 L 43.640625 34.664062 Z M 43.640625 31.253906 " fill-opacity="1" fill-rule="nonzero"/><path fill="#560216" d="M 43.640625 42.621094 L 48.1875 42.621094 L 48.1875 46.710938 L 43.640625 46.710938 Z M 43.640625 42.621094 " fill-opacity="1" fill-rule="nonzero"/><path fill="#560216" d="M 62.964844 36.9375 L 67.511719 36.9375 L 67.511719 40.347656 L 62.964844 40.347656 Z M 62.964844 36.9375 " fill-opacity="1" fill-rule="nonzero"/><path fill="#560216" d="M 56.714844 36.9375 L 60.691406 36.9375 L 60.691406 40.347656 L 56.714844 40.347656 Z M 56.714844 36.9375 " fill-opacity="1" fill-rule="nonzero"/><path fill="#560216" d="M 62.964844 24.886719 L 67.511719 24.886719 L 67.511719 28.980469 L 62.964844 28.980469 Z M 62.964844 24.886719 " fill-opacity="1" fill-rule="nonzero"/><path fill="#560216" d="M 62.964844 31.253906 L 67.511719 31.253906 L 67.511719 34.664062 L 62.964844 34.664062 Z M 62.964844 31.253906 " fill-opacity="1" fill-rule="nonzero"/><path fill="#560216" d="M 62.964844 42.621094 L 67.511719 42.621094 L 67.511719 46.710938 L 62.964844 46.710938 Z M 62.964844 42.621094 " fill-opacity="1" fill-rule="nonzero"/><path fill="#560216" d="M 56.714844 31.253906 L 60.691406 31.253906 L 60.691406 34.664062 L 56.714844 34.664062 Z M 56.714844 31.253906 " fill-opacity="1" fill-rule="nonzero"/><path fill="#560216" d="M 56.714844 24.886719 L 60.691406 24.886719 L 60.691406 28.980469 L 56.714844 28.980469 Z M 56.714844 24.886719 " fill-opacity="1" fill-rule="nonzero"/><path fill="#560216" d="M 28.296875 12.949219 L 6.699219 12.949219 C 6.074219 12.949219 5.5625 13.460938 5.5625 14.085938 C 5.5625 14.710938 6.074219 15.222656 6.699219 15.222656 L 28.296875 15.222656 C 28.921875 15.222656 29.433594 14.710938 29.433594 14.085938 C 29.433594 13.460938 28.921875 12.949219 28.296875 12.949219 Z M 28.296875 12.949219 " fill-opacity="1" fill-rule="nonzero"/><path fill="#560216" d="M 28.296875 18.632812 L 6.699219 18.632812 C 6.074219 18.632812 5.5625 19.144531 5.5625 19.769531 C 5.5625 20.394531 6.074219 20.90625 6.699219 20.90625 L 28.296875 20.90625 C 28.921875 20.90625 29.433594 20.394531 29.433594 19.769531 C 29.433594 19.144531 28.921875 18.632812 28.296875 18.632812 Z M 28.296875 18.632812 " fill-opacity="1" fill-rule="nonzero"/><path fill="#560216" d="M 28.296875 24.316406 L 6.699219 24.316406 C 6.074219 24.316406 5.5625 24.828125 5.5625 25.453125 C 5.5625 26.078125 6.074219 26.589844 6.699219 26.589844 L 28.296875 26.589844 C 28.921875 26.589844 29.433594 26.078125 29.433594 25.453125 C 29.433594 24.828125 28.921875 24.316406 28.296875 24.316406 Z M 28.296875 24.316406 " fill-opacity="1" fill-rule="nonzero"/><path fill="#560216" d="M 28.296875 30 L 6.699219 30 C 6.074219 30 5.5625 30.511719 5.5625 31.136719 C 5.5625 31.761719 6.074219 32.273438 6.699219 32.273438 L 28.296875 32.273438 C 28.921875 32.273438 29.433594 31.761719 29.433594 31.136719 C 29.433594 30.511719 28.921875 30 28.296875 30 Z M 28.296875 30 " fill-opacity="1" fill-rule="nonzero"/><path fill="#560216" d="M 28.296875 35.683594 L 6.699219 35.683594 C 6.074219 35.683594 5.5625 36.195312 5.5625 36.820312 C 5.5625 37.445312 6.074219 37.957031 6.699219 37.957031 L 28.296875 37.957031 C 28.921875 37.957031 29.433594 37.445312 29.433594 36.820312 C 29.433594 36.195312 28.921875 35.683594 28.296875 35.683594 Z M 28.296875 35.683594 " fill-opacity="1" fill-rule="nonzero"/><path fill="#560216" d="M 28.296875 41.367188 L 6.699219 41.367188 C 6.074219 41.367188 5.5625 41.878906 5.5625 42.503906 C 5.5625 43.128906 6.074219 43.640625 6.699219 43.640625 L 28.296875 43.640625 C 28.921875 43.640625 29.433594 43.128906 29.433594 42.503906 C 29.433594 41.878906 28.921875 41.367188 28.296875 41.367188 Z M 28.296875 41.367188 " fill-opacity="1" fill-rule="nonzero"/></svg>