<svg xmlns="http://www.w3.org/2000/svg" xmlns:xlink="http://www.w3.org/1999/xlink" width="100" zoomAndPan="magnify" viewBox="0 0 75 74.999997" height="100" preserveAspectRatio="xMidYMid meet" version="1.0"><defs><clipPath id="id1"><path d="M 1.097656 1.097656 L 73.847656 1.097656 L 73.847656 73.847656 L 1.097656 73.847656 Z M 1.097656 1.097656 " clip-rule="nonzero"/></clipPath></defs><g clip-path="url(#id1)"><path fill="#560216" d="M 56.871094 71.421875 C 48.847656 71.421875 42.320312 64.894531 42.320312 56.871094 C 42.320312 48.847656 48.847656 42.320312 56.871094 42.320312 C 64.894531 42.320312 71.421875 48.847656 71.421875 56.871094 C 71.421875 64.894531 64.894531 71.421875 56.871094 71.421875 Z M 4.734375 68.996094 C 4.066406 68.996094 3.523438 68.453125 3.523438 67.785156 L 3.523438 12.007812 L 8.371094 12.007812 C 10.378906 12.007812 12.007812 10.378906 12.007812 8.371094 L 12.007812 3.523438 L 50.808594 3.523438 C 51.476562 3.523438 52.023438 4.066406 52.023438 4.734375 L 52.023438 40.613281 C 47.394531 41.996094 43.605469 45.300781 41.558594 49.597656 L 28.984375 49.597656 C 28.316406 49.597656 27.773438 50.140625 27.773438 50.808594 C 27.773438 51.476562 28.316406 52.023438 28.984375 52.023438 L 40.613281 52.023438 C 40.261719 53.1875 40.046875 54.40625 39.957031 55.660156 L 15.648438 55.660156 C 14.980469 55.660156 14.433594 56.203125 14.433594 56.871094 C 14.433594 57.539062 14.980469 58.085938 15.648438 58.085938 L 39.957031 58.085938 C 40.261719 62.347656 42.132812 66.179688 45.011719 68.996094 Z M 9.585938 5.238281 L 9.585938 8.371094 C 9.585938 9.039062 9.039062 9.585938 8.371094 9.585938 L 5.238281 9.585938 Z M 56.871094 39.898438 C 56.046875 39.898438 55.242188 39.976562 54.445312 40.089844 L 54.445312 4.734375 C 54.445312 2.726562 52.816406 1.097656 50.808594 1.097656 L 11.804688 1.097656 C 10.832031 1.097656 9.917969 1.476562 9.226562 2.167969 L 2.167969 9.226562 C 1.476562 9.917969 1.097656 10.832031 1.097656 11.804688 L 1.097656 67.785156 C 1.097656 69.792969 2.726562 71.421875 4.734375 71.421875 L 48.175781 71.421875 C 50.71875 72.953125 53.6875 73.847656 56.871094 73.847656 C 66.230469 73.847656 73.847656 66.230469 73.847656 56.871094 C 73.847656 47.511719 66.230469 39.898438 56.871094 39.898438 " fill-opacity="1" fill-rule="nonzero"/></g><path fill="#560216" d="M 63.546875 49.761719 C 62.972656 49.425781 62.222656 49.621094 61.886719 50.199219 L 54.191406 63.390625 L 51.667969 60.863281 C 51.191406 60.390625 50.425781 60.390625 49.953125 60.863281 C 49.480469 61.339844 49.480469 62.105469 49.953125 62.578125 L 53.589844 66.21875 C 53.816406 66.445312 54.125 66.570312 54.445312 66.570312 C 54.5 66.570312 54.550781 66.566406 54.601562 66.5625 C 54.972656 66.515625 55.304688 66.292969 55.492188 65.96875 L 63.980469 51.421875 C 64.316406 50.84375 64.125 50.097656 63.546875 49.761719 " fill-opacity="1" fill-rule="nonzero"/><path fill="#560216" d="M 12.007812 15.648438 L 14.433594 15.648438 L 14.433594 24.132812 C 14.433594 24.800781 14.980469 25.347656 15.648438 25.347656 C 16.316406 25.347656 16.859375 24.800781 16.859375 24.132812 L 16.859375 15.648438 L 19.285156 15.648438 C 19.953125 15.648438 20.496094 15.101562 20.496094 14.433594 C 20.496094 13.765625 19.953125 13.222656 19.285156 13.222656 L 12.007812 13.222656 C 11.34375 13.222656 10.796875 13.765625 10.796875 14.433594 C 10.796875 15.101562 11.34375 15.648438 12.007812 15.648438 " fill-opacity="1" fill-rule="nonzero"/><path fill="#560216" d="M 9.585938 31.410156 L 45.960938 31.410156 C 46.628906 31.410156 47.171875 30.863281 47.171875 30.195312 C 47.171875 29.53125 46.628906 28.984375 45.960938 28.984375 L 9.585938 28.984375 C 8.917969 28.984375 8.371094 29.53125 8.371094 30.195312 C 8.371094 30.863281 8.917969 31.410156 9.585938 31.410156 " fill-opacity="1" fill-rule="nonzero"/><path fill="#560216" d="M 45.960938 37.472656 L 44.746094 37.472656 C 44.078125 37.472656 43.535156 38.015625 43.535156 38.683594 C 43.535156 39.351562 44.078125 39.898438 44.746094 39.898438 L 45.960938 39.898438 C 46.628906 39.898438 47.171875 39.351562 47.171875 38.683594 C 47.171875 38.015625 46.628906 37.472656 45.960938 37.472656 " fill-opacity="1" fill-rule="nonzero"/><path fill="#560216" d="M 9.585938 39.898438 L 39.898438 39.898438 C 40.566406 39.898438 41.109375 39.351562 41.109375 38.683594 C 41.109375 38.015625 40.566406 37.472656 39.898438 37.472656 L 9.585938 37.472656 C 8.917969 37.472656 8.371094 38.015625 8.371094 38.683594 C 8.371094 39.351562 8.917969 39.898438 9.585938 39.898438 " fill-opacity="1" fill-rule="nonzero"/><path fill="#560216" d="M 39.898438 43.535156 L 15.648438 43.535156 C 14.980469 43.535156 14.433594 44.078125 14.433594 44.746094 C 14.433594 45.414062 14.980469 45.960938 15.648438 45.960938 L 39.898438 45.960938 C 40.566406 45.960938 41.109375 45.414062 41.109375 44.746094 C 41.109375 44.078125 40.566406 43.535156 39.898438 43.535156 " fill-opacity="1" fill-rule="nonzero"/><path fill="#560216" d="M 9.585938 45.960938 L 10.796875 45.960938 C 11.464844 45.960938 12.007812 45.414062 12.007812 44.746094 C 12.007812 44.078125 11.464844 43.535156 10.796875 43.535156 L 9.585938 43.535156 C 8.917969 43.535156 8.371094 44.078125 8.371094 44.746094 C 8.371094 45.414062 8.917969 45.960938 9.585938 45.960938 " fill-opacity="1" fill-rule="nonzero"/><path fill="#560216" d="M 9.585938 52.023438 L 24.132812 52.023438 C 24.800781 52.023438 25.347656 51.476562 25.347656 50.808594 C 25.347656 50.140625 24.800781 49.597656 24.132812 49.597656 L 9.585938 49.597656 C 8.917969 49.597656 8.371094 50.140625 8.371094 50.808594 C 8.371094 51.476562 8.917969 52.023438 9.585938 52.023438 " fill-opacity="1" fill-rule="nonzero"/><path fill="#560216" d="M 9.585938 58.085938 L 10.796875 58.085938 C 11.464844 58.085938 12.007812 57.539062 12.007812 56.871094 C 12.007812 56.203125 11.464844 55.660156 10.796875 55.660156 L 9.585938 55.660156 C 8.917969 55.660156 8.371094 56.203125 8.371094 56.871094 C 8.371094 57.539062 8.917969 58.085938 9.585938 58.085938 " fill-opacity="1" fill-rule="nonzero"/><path fill="#560216" d="M 25.347656 61.722656 L 9.585938 61.722656 C 8.917969 61.722656 8.371094 62.265625 8.371094 62.933594 C 8.371094 63.601562 8.917969 64.148438 9.585938 64.148438 L 25.347656 64.148438 C 26.015625 64.148438 26.558594 63.601562 26.558594 62.933594 C 26.558594 62.265625 26.015625 61.722656 25.347656 61.722656 " fill-opacity="1" fill-rule="nonzero"/><path fill="#560216" d="M 27.0625 15.992188 L 28.292969 19.285156 L 24.824219 19.285156 L 26.058594 15.992188 C 26.214844 15.585938 26.90625 15.574219 27.0625 15.992188 Z M 21.285156 25.269531 C 21.910156 25.503906 22.609375 25.1875 22.847656 24.5625 L 23.917969 21.710938 L 29.203125 21.710938 L 30.273438 24.5625 C 30.457031 25.046875 30.917969 25.347656 31.410156 25.347656 C 31.550781 25.347656 31.695312 25.324219 31.835938 25.269531 C 32.460938 25.035156 32.777344 24.332031 32.546875 23.707031 L 29.332031 15.140625 C 28.898438 13.996094 27.792969 13.222656 26.554688 13.222656 C 25.328125 13.222656 24.21875 13.996094 23.789062 15.140625 L 20.574219 23.707031 C 20.339844 24.332031 20.65625 25.035156 21.285156 25.269531 " fill-opacity="1" fill-rule="nonzero"/><path fill="#560216" d="M 35.535156 25.105469 C 35.753906 25.265625 36.003906 25.347656 36.257812 25.347656 C 36.628906 25.347656 36.988281 25.179688 37.230469 24.859375 L 39.898438 21.300781 L 42.5625 24.859375 C 42.804688 25.179688 43.164062 25.347656 43.535156 25.347656 C 43.789062 25.347656 44.042969 25.265625 44.257812 25.105469 C 44.800781 24.703125 44.90625 23.945312 44.503906 23.410156 L 41.414062 19.285156 L 44.503906 15.160156 C 44.90625 14.625 44.800781 13.867188 44.257812 13.464844 C 43.730469 13.0625 42.964844 13.171875 42.5625 13.710938 L 39.898438 17.265625 L 37.230469 13.710938 C 36.828125 13.171875 36.070312 13.0625 35.535156 13.464844 C 34.996094 13.867188 34.886719 14.625 35.289062 15.160156 L 38.382812 19.285156 L 35.289062 23.410156 C 34.886719 23.945312 34.996094 24.703125 35.535156 25.105469 " fill-opacity="1" fill-rule="nonzero"/></svg>